<svg xmlns="http://www.w3.org/2000/svg" width="595.28" height="401.094" viewBox="0 0 595.28 401.094"><path fill="#241A18" d="M547.724 273.473c0 9.98-8.448 20.108-18.454 20.108H69.097c-10.006 0-18.12-8.093-18.12-18.076V82.4c0-9.984 8.114-18.078 18.12-18.078h460.507c10.004 0 18.12 8.094 18.12 18.077v191.073z"/><path fill="#241A18" d="M431.417 287.556c0 8.44-19.147 28.11-29.064 28.11H173.938c-9.916 0-17.955-6.84-17.955-15.782V64.322s12.336-36.384 26.934-36.384h221.506c14.125 0 26.995 11.057 26.995 24.315v235.303z"/><path fill="#FBFAFB" stroke="#FBFAFB" stroke-miterlimit="10" d="M422.44 269.48c0 9.98-7.684 18.076-17.16 18.076H202.26c-9.475 0-17.157-8.095-17.157-18.077V55.565c0-9.984 7.684-18.078 17.158-18.078H405.28c9.477 0 17.16 8.094 17.16 18.078V269.48z"/><ellipse fill="#241A18" cx="234.257" cy="241.233" rx="38.158" ry="37.429"/><ellipse fill="#241A18" cx="381.089" cy="79.273" rx="34.768" ry="34.104"/><circle fill="#65BFEC" cx="380.501" cy="79.272" r="26.577"/><circle fill="#FEE200" cx="234.256" cy="241.235" r="29.168"/><ellipse fill="#476BA6" cx="376.092" cy="85.444" rx="18.668" ry="19.135"/><path fill="#ED6C0B" d="M261.965 236.65c0 11.444-9.162 20.724-20.467 20.724-11.3 0-20.46-9.28-20.46-20.725 0-11.447 9.16-20.73 20.46-20.73 11.305.002 20.467 9.283 20.467 20.73z"/><path fill="#241A18" d="M253.23 224.296c3.906 4.19 4.41 10.08 1.116 13.148-3.293 3.07-9.13 2.16-13.04-2.033-3.908-4.194-4.408-10.08-1.118-13.15 3.292-3.068 9.13-2.157 13.04 2.036z"/><ellipse transform="rotate(-40.258 370.155 91.133)" fill="#241A18" cx="370.138" cy="91.128" rx="7.426" ry="9.459"/><path fill="#BE1823" d="M431.417 224.957H532.8s3.148-.048 5.616-2.073c2.528-2.07 2.528-5.707 2.528-5.707V86.615s.13-2.604-1.476-4.96c-2.41-3.536-6.668-3.386-6.668-3.386H431.417v146.687z"/><path fill="#BE1622" d="M538.794 274.293c-1.394 1.17-2.997 1.21-2.997 1.21h-104.38v-39.166h104.38s2.646 0 3.482 1.283c.774 1.19.835 2.652.835 2.652v30.755s.07 2.092-1.32 3.266zM156.428 224.957h-90.64s-2.812-.048-5.02-2.073c-2.26-2.07-2.26-4.707-2.26-4.707V86.615s-.115-2.604 1.318-4.96c2.157-3.536 5.962-3.386 5.962-3.386h90.64v146.687zM60.433 274.293c1.245 1.17 2.68 1.21 2.68 1.21h93.315v-39.166H63.11s-2.365 0-3.113 1.283c-.693 1.19-.747 2.652-.747 2.652v30.755s-.062 2.092 1.183 3.266z"/><g fill="#241A18"><path d="M296.49 85.228c-2.78 8.04-9.487 22.135-25.273 38.242-17.133 17.48-34.408 25.675-43.275 29.03 7.758 5.38 17.106 8.522 27.158 8.522 26.79 0 48.588-22.334 48.588-49.786 0-9.532-2.643-18.434-7.198-26.008z"/><path d="M223.297 148.83c6.816-2.304 25.844-9.98 44.35-28.86 18.096-18.465 23.657-34.11 25.214-39.99-1.39-1.76-2.884-3.427-4.49-4.977-8.848-7.87-20.496-12.658-33.27-12.658-12.774 0-24.425 4.788-33.272 12.66-9.42 9.086-15.317 21.963-15.317 36.23 0 14.998 6.514 28.458 16.787 37.594z"/></g><path fill="#241A18" d="M303.185 133.763c-5.317 12.13-14.97 21.852-26.94 27.066 29.752 27.794 111.724 103.99 115.383 103.266 6.104-1.21 9.508-6.026 9.743-10.288.14-2.582-76.49-94.168-98.185-120.045z"/><g><g stroke="#000" stroke-width="3" stroke-linecap="round" stroke-linejoin="round" stroke-miterlimit="10"><path d="M265.322 356.88c.16-1.053.24-2.152.24-3.266 0-5.03-1.326-9.002-3.943-11.81-2.65-2.835-6.416-4.27-11.192-4.27-4.45 0-8.057 1.206-10.762 3.57l.004-.026-.267.268c-.19.174-.388.338-.567.525-.082.087-.148.185-.23.27l-1.612 1.614c-.256.22-.502.45-.738.697-.318.33-.613.68-.895 1.038l-.8-1.258c-1.467-2.303-3.33-4.023-5.54-5.107-2.162-1.057-4.964-1.59-8.327-1.59-2.87 0-5.387.47-7.484 1.398-1.913.84-3.42 1.972-4.536 3.335l-1.145 1.143c-.74.602-1.384 1.262-1.9 1.998-.533.758-.933 1.55-1.224 2.37-.28-2.985-1.352-5.39-3.212-7.153-2.16-2.053-5.003-3.09-8.448-3.09-2.438 0-4.634.54-6.527 1.613-.52.295-1.018.633-1.483 1.01l-.094-2.066h-10.21l-2.578 2.578v7.137c-.646-2.37-1.71-4.385-3.216-6.002-2.652-2.834-6.418-4.27-11.194-4.27-4.81 0-8.64 1.406-11.402 4.164l.005-.023-2.418 2.418v-6.002h-3.092l1.704-1.705 1.794-8.59-.866-.656c-.774-.59-1.797-1.048-3.038-1.358-1.156-.293-2.432-.443-3.79-.443-3.64 0-6.6.952-8.796 2.833-.154.13-.283.28-.426.418l-.01-.02-2.63 2.642c-.112.11-.228.22-.334.338l-.05.05.005.003c-1.524 1.678-2.377 3.854-2.542 6.488h-2.303l-2.58 2.58v1.384c-.072-.082-.136-.172-.21-.25-2.65-2.834-6.416-4.27-11.19-4.27-4.81 0-8.64 1.406-11.403 4.164l.004-.023-2.635 2.635.014-.002c-.05.05-.104.094-.152.145-1.062 1.1-1.918 2.37-2.574 3.8-.183-5.82-1.913-10.456-5.19-13.77-3.475-3.517-8.383-5.3-14.588-5.3H52.836l-2.58 2.58v40.18H66.17c6.1 0 10.938-1.73 14.398-5.127l-.002.014.12-.12c.023-.022.048-.042.07-.064.02-.018.032-.04.05-.057l2.04-2.04-.064.016c.183-.17.38-.324.556-.502 1.602-1.62 2.82-3.564 3.688-5.797.335 4.104 1.74 7.434 4.205 9.912 2.848 2.866 6.855 4.32 11.91 4.32 3.434 0 6.367-.66 8.716-1.97 1.214-.678 2.25-1.52 3.124-2.51l1.77-1.77c1.266-1.17 2.256-2.585 2.926-4.26l.656-1.644-1.752-.64 1.367-1.368.222-1.457c.158-1.048.24-2.147.24-3.267 0-1.36-.11-2.63-.31-3.832h1.42v22.16h11.065l2.58-2.577V349.78h4.93c-.65 1.942-.98 4.134-.98 6.524 0 5.014 1.44 9.008 4.287 11.873 2.846 2.867 6.853 4.322 11.908 4.322 3.435 0 6.367-.663 8.716-1.972 1.216-.678 2.255-1.523 3.128-2.514l1.764-1.764c1.268-1.17 2.258-2.586 2.928-4.262l.008-.02v9.972h11.065l2.58-2.578v-16.416c0-1.248.18-2.27.497-3.11.493-.177 1.02-.276 1.607-.276 1.132 0 3.237 0 3.237 4.63v17.75h11.065l2.58-2.577v-1.566c2.85 3.12 7.29 4.703 13.236 4.703 4.397 0 7.89-.902 10.38-2.684 1.048-.748 1.886-1.6 2.527-2.547.017-.015.037-.024.055-.036 1.273-.91 2.24-1.975 2.912-3.18.693 1.56 1.615 2.943 2.79 4.125 2.845 2.866 6.852 4.32 11.906 4.32 3.436 0 6.368-.663 8.716-1.972.807-.45 1.533-.97 2.188-1.56l-.014.034 3.063-3.063-.023.01c1.115-1.11 1.994-2.43 2.607-3.962l.656-1.645-1.752-.64 1.367-1.368.225-1.455zM73.08 358.776c-1.254.688-2.814 1.027-4.72 1.027h-4.404V341.32h1.824c2.985 0 5.133.833 6.564 2.538 1.487 1.766 2.24 4.455 2.24 7.994.002 2.89-.51 5.206-1.504 6.924zm27.795-9.216c.02-.05.042-.096.06-.146.503-.158 1.064-.244 1.704-.244.756 0 1.405.14 1.98.39h-3.745zm33.958-11.47v-1.032c.16-.01.308-.025.488-.025.916 0 1.668.188 2.236.56l.764.5h-3.487zm18.214 11.47c.018-.05.04-.096.06-.146.503-.158 1.063-.244 1.702-.244.756 0 1.405.14 1.98.39h-3.743zm18.807 10.548l-1.296-.473 1.296-1.297v1.77zm32.632 3.196v-9.06c.53 1.372 1.393 2.562 2.61 3.542.487.395 1.057.768 1.69 1.11l-4.3 4.408zm27.797-9.9c-.236-.233-.49-.456-.762-.67-.68-.53-1.525-1.022-2.5-1.47l3.765-3.188 2.54-2.547c-1.648 2.12-2.658 4.764-3.042 7.873zm13.744-3.844c.02-.05.042-.098.063-.146.5-.158 1.06-.244 1.7-.244.757 0 1.407.14 1.98.39h-3.743zM313.45 363.57c.075-.493.114-1.01.114-1.532 0-2.387-.65-4.293-1.932-5.668-1.314-1.408-3.15-2.12-5.457-2.12-2.355 0-4.246.72-5.613 2.136-.395.408-.72.88-1.004 1.387-.074.04-.145.082-.217.125-.282-.81-.716-1.504-1.312-2.07-1.104-1.047-2.535-1.576-4.252-1.576-.736 0-1.43.105-2.07.313v-4.36c.41-.425.756-.9 1.043-1.413.202-.113.397-.238.587-.37v3.714h6.658l2.582-2.582v-6.785h.996l2.58-2.58v-5.833h-.506l.787-3.775-.87-.656c-.433-.328-.983-.576-1.638-.742-.572-.145-1.193-.217-1.844-.217-1.783 0-3.25.482-4.36 1.434-.11.095-.19.21-.29.312l-.016-.025-2.686 2.686.023.014c-.27.3-.516.62-.71.973l-.173.29c-.146.313-.26.647-.344.997-1.303-.998-2.945-1.525-4.93-1.525-2.327 0-4.203.697-5.584 2.068l-.002-.004-.064.064-.012.012-.006.006-2.575 2.574c-1.38 1.408-2.08 3.324-2.08 5.695 0 2.37.7 4.287 2.08 5.697.214.22.444.418.685.602l-4.89 1.357-2.142 2.297v.162l-.44.123-2.14 2.295v5.832h2.14v4.332c0 3.352 2.06 5.27 5.648 5.27.792 0 1.564-.11 2.295-.33.318-.097.628-.218.95-.38v.475h6.66l1.366-1.364v1.363h6.658l1.418-1.417c1.342 1.096 3.094 1.652 5.22 1.652 1.624 0 3.026-.322 4.165-.96.475-.263.887-.587 1.256-.95l.004.006.102-.1c.013-.015.026-.026.04-.04l2.727-2.727c.463-.514.834-1.107 1.104-1.785l.655-1.643-.475-.174.09-.56zm-30.64-11.657v-.105c.09.035.175.074.266.105h-.265zM548.557 358.294l.225-1.455c.16-1.032.24-2.128.24-3.26 0-5.017-1.322-8.978-3.928-11.774-2.643-2.826-6.396-4.262-11.158-4.262-4.9 0-8.79 1.455-11.563 4.328-.38.395-2.107 2.092-2.58 2.582-.7.725-1.31 1.525-1.832 2.395-.854-2.804-2.458-5.077-4.77-6.755-2.328-1.693-5.543-2.55-9.555-2.55-4.295 0-7.834 1.118-10.543 3.327.006-.053-.842.764-.842.764-.078.076-.168.143-.246.223-.047.048-.084.103-.133.153l-2.144 2.146c-.102.093-.205.18-.303.278-.05.05-.088.11-.135.158l-.215.215h.03c-1.472 1.608-2.534 3.542-3.177 5.798v-1.242c0-3.73-1.104-6.672-3.28-8.74-2.155-2.043-4.99-3.082-8.427-3.082-2.43 0-4.618.54-6.51 1.61-.51.29-1.003.626-1.466 1.003l-.094-2.057h-10.186l-2.582 2.58v7.047c-.643-2.338-1.697-4.326-3.188-5.922-2.64-2.826-6.395-4.262-11.156-4.262-4.902 0-8.79 1.455-11.56 4.328-.38.394-2.11 2.09-2.583 2.58-1.785 1.855-2.988 4.19-3.62 6.96V338.1h-2.78l2.008-2.01-.014-.01c1.415-1.245 1.73-3.032 1.73-4.312 0-2.176-.837-5.824-6.437-5.824-2.268 0-3.75.602-4.715 1.46l-2.645 2.655c-.1.09-.195.185-.285.282l-.138.147.002.026c-.986 1.203-1.23 2.71-1.23 3.832 0 1.096.222 2.568 1.17 3.752h-7.196v-9.033l-11.037 3.064-2.58 2.58v3.39h-2.47l-2.58 2.58v1.164c-.426-.488-.89-.947-1.418-1.357-2.52-1.953-5.992-2.943-10.32-2.943-3.66 0-6.7.787-9.045 2.338-.738.49-1.39 1.045-1.975 1.648l.008-.02-3.227 3.227c.082-.656.14-1.326.14-2.033 0-4.238-1.396-7.596-4.142-9.982-2.68-2.32-6.4-3.498-11.06-3.498h-17.088l-2.58 2.58v40.06h11.092l2.58-2.58v-10.737h3.416c4.656 0 8.375-1.168 11.053-3.47.01-.007.018-.017.027-.024l-.012.04 3.373-3.37c.046-.047.097-.092.14-.14l.016-.015h-.004c.273-.295.533-.604.77-.922l6.62 2.79c-.63.413-1.184.862-1.674 1.343l-.002-.003-2.748 2.748c-.063.066-.133.13-.193.195l-.37.37.044.03c-1.247 1.53-1.886 3.354-1.886 5.477 0 2.83.98 5.053 2.912 6.607 1.822 1.47 4.313 2.213 7.406 2.213 2.545 0 4.8-.396 6.703-1.182 1.02-.422 1.928-.963 2.7-1.605 1.4 1.85 3.685 2.787 6.8 2.787 1.63 0 3.1-.322 4.373-.955l.832-.414 2.578-2.578.002-.002.156-1.305c1.55 3.416 4.977 5.254 10.035 5.254 1.644 0 3.24-.23 4.74-.682 1.558-.47 2.882-1.13 3.933-1.967l.85-.672.027-.03v2.796h11.035l2.58-2.58h.002v-8.217c.646 2.81 1.89 5.172 3.748 7.04 2.84 2.862 6.834 4.312 11.877 4.312 3.426 0 6.348-.66 8.69-1.963.767-.43 1.466-.926 2.1-1.482l.003.02 3.205-3.203c1.06-1.08 1.89-2.36 2.482-3.835v9.908h11.04l2.58-2.58v-16.367c0-1.236.177-2.252.49-3.088.49-.174 1.013-.275 1.595-.275 1.127 0 3.22 0 3.22 4.61v17.7h11.038l2.58-2.58v-7.363c.693 2.434 1.863 4.512 3.53 6.186 2.837 2.863 6.83 4.313 11.872 4.313 3.783 0 6.945-.872 9.396-2.587.47-.33.896-.688 1.3-1.06v.01l.103-.105c.14-.13.27-.266.402-.4l2.375-2.377h-.006c.78-.767 1.447-1.606 1.975-2.54.71 1.82 1.72 3.412 3.047 4.746 2.837 2.863 6.833 4.313 11.872 4.313 3.43 0 6.352-.66 8.69-1.964.853-.477 1.614-1.04 2.296-1.672l.004.002.283-.285c.154-.15.316-.298.46-.46l1.948-1.947c.076-.07.146-.146.22-.22l.382-.38-.053.014c.943-1.027 1.717-2.207 2.264-3.572l.66-1.645-1.748-.64 1.36-1.356zM342.354 346.34c-.686.17-1.512.253-2.48.253h-4.83v-5.25h2.25c1.917 0 3.343.34 4.118.986.703.59 1.045 1.536 1.045 2.897 0 .413-.04.774-.103 1.114zm23.607 3.597c.054-.207.118-.387.18-.572.57-.164 1.218-.254 1.956-.254 1.012 0 1.72.247 2.23.78.077.08.138.176.204.268l-2.104.404c-.982.182-1.908.39-2.773.63l.308-1.255zm5.134 10.96c-.693.22-1.424.345-2.193.345-.415 0-.757-.06-1-.164l3.194-.72v.538zm16.035-.043l-.767.242c-.17.053-.572.145-1.37.145-.134 0-.235-.01-.31-.022-.014-.072-.027-.19-.027-.37v-11.073h2.473v11.08zm20.532-2.763l-1.645 1.394c-.908.773-1.943 1.148-3.158 1.148-1.62 0-2.114-.494-2.114-2.113v-8.745h6.41l.506-.506v8.82zm26.998-8.558c.018-.045.037-.084.055-.127.498-.154 1.053-.24 1.686-.24.75 0 1.382.127 1.942.367h-3.682zm18.725 10.51l-1.055-.385 1.055-1.057v1.442zm62.316-2.35l-7.47-2.41-2.578 2.582-.352 1.932c-.053.29-.115.557-.19.807-.392.086-.82.14-1.31.14-1.602 0-2.748-.495-3.607-1.562-.922-1.134-1.39-2.962-1.39-5.435 0-1.725.23-3.14.675-4.242.53-.176 1.11-.285 1.797-.285 2.11 0 3.18 1.064 3.7 3.672l.388 1.96 10.512-3.786.53-.53c-.493 1.73-.755 3.638-.755 5.737 0 .487.026.956.05 1.422zm13.855-8.16c.016-.045.035-.084.053-.127.498-.154 1.055-.24 1.69-.24.735 0 1.368.13 1.93.367h-3.673z"/></g><g fill="#FFF"><path d="M82.115 335.688c3.152 3.19 4.732 7.723 4.732 13.584 0 5.865-1.58 10.395-4.732 13.584-3.156 3.195-7.61 4.79-13.365 4.79H54.555v-36.747H68.75c5.755 0 10.21 1.595 13.365 4.788zm-5.875 22.69c1.764-2.098 2.645-5.13 2.645-9.105s-.88-7.006-2.645-9.102c-1.762-2.1-4.39-3.145-7.88-3.145h-6.123v24.496h6.124c3.49 0 6.12-1.044 7.88-3.142zM118.47 356.622H98.76c.78 3.934 3.1 5.902 6.96 5.902 1.597 0 2.913-.3 3.954-.89 1.04-.595 1.762-1.45 2.172-2.562l6.234 2.28c-.89 2.228-2.385 3.927-4.48 5.097-2.1 1.17-4.724 1.75-7.88 1.75-4.602 0-8.165-1.272-10.688-3.813-2.526-2.543-3.79-6.094-3.79-10.66 0-4.568 1.227-8.12 3.68-10.662 2.448-2.54 5.9-3.814 10.354-3.814 4.305 0 7.616 1.247 9.938 3.73 2.318 2.488 3.48 6.035 3.48 10.635-.003 1.04-.076 2.042-.223 3.007zm-17.68-10.13c-1.092 1.075-1.788 2.667-2.085 4.784h12.973c-.297-2.076-1-3.666-2.115-4.758-1.115-1.098-2.56-1.648-4.343-1.648-1.857 0-3.333.543-4.43 1.62zM133.115 339.808h8.797v5.678h-8.465v22.16h-7.63v-22.16h-4.843v-5.678h4.844v-3.34c0-3.045.95-5.375 2.842-6.986 1.892-1.62 4.455-2.424 7.683-2.424 1.226 0 2.347.13 3.368.39 1.02.257 1.83.612 2.423 1.06l-1.057 5.066c-.855-.557-1.912-.84-3.174-.84-3.193 0-4.787 1.434-4.787 4.29v2.784zM170.64 356.622h-19.708c.778 3.934 3.098 5.902 6.96 5.902 1.596 0 2.91-.3 3.952-.89 1.04-.595 1.762-1.45 2.172-2.562l6.234 2.28c-.89 2.228-2.385 3.927-4.48 5.097-2.098 1.17-4.723 1.75-7.88 1.75-4.6 0-8.165-1.272-10.687-3.813-2.527-2.543-3.79-6.094-3.79-10.66 0-4.568 1.226-8.12 3.678-10.662 2.45-2.54 5.902-3.814 10.355-3.814 4.306 0 7.617 1.247 9.938 3.73 2.32 2.488 3.48 6.035 3.48 10.635 0 1.04-.074 2.042-.222 3.007zm-17.677-10.13c-1.094 1.075-1.79 2.667-2.086 4.784h12.973c-.3-2.076-1.002-3.666-2.117-4.758-1.114-1.098-2.56-1.648-4.343-1.648-1.856 0-3.332.543-4.427 1.62zM200.012 341.87c1.836 1.742 2.758 4.25 2.758 7.516v18.26h-7.63V351.61c0-4.232-1.65-6.35-4.954-6.35-1.783 0-3.297.637-4.537 1.896-1.245 1.264-1.868 3.195-1.868 5.79v14.698h-7.63v-27.838h6.85l.224 4.957c.928-1.82 2.207-3.195 3.842-4.125 1.633-.922 3.527-1.39 5.68-1.39 3.004.003 5.426.878 7.264 2.622zM207.387 362.856l4.455-4.563c.74 1.594 1.807 2.72 3.2 3.367 1.392.648 3.11.973 5.15.973 1.634 0 2.895-.22 3.786-.666.89-.447 1.336-1.06 1.336-1.838 0-.63-.416-1.17-1.253-1.614-.834-.45-2.272-.877-4.314-1.28-4.268-.853-7.266-1.978-8.992-3.368-1.724-1.39-2.588-3.277-2.588-5.656 0-1.56.48-3.02 1.45-4.395.962-1.373 2.39-2.48 4.284-3.313 1.895-.838 4.157-1.254 6.793-1.254 3.12 0 5.64.473 7.574 1.416 1.928.947 3.543 2.443 4.844 4.486l-4.732 4.006c-.817-1.48-1.828-2.578-3.036-3.285-1.205-.7-2.72-1.053-4.537-1.053-1.523 0-2.736.258-3.646.777-.91.52-1.364 1.15-1.364 1.893 0 .78.443 1.428 1.334 1.95.893.52 2.47 1 4.733 1.444 4.046.82 6.913 1.887 8.603 3.205 1.69 1.315 2.535 3.144 2.535 5.48 0 2.603-1.104 4.69-3.313 6.265-2.21 1.578-5.336 2.365-9.383 2.365-6.2.002-10.505-1.777-12.917-5.344zM263.623 356.622h-19.71c.778 3.934 3.1 5.902 6.96 5.902 1.596 0 2.913-.3 3.953-.89 1.04-.595 1.762-1.45 2.172-2.562l6.234 2.28c-.89 2.228-2.385 3.927-4.48 5.097-2.098 1.17-4.725 1.75-7.88 1.75-4.6 0-8.165-1.272-10.688-3.813-2.527-2.543-3.788-6.094-3.788-10.66 0-4.568 1.226-8.12 3.677-10.662 2.45-2.54 5.902-3.814 10.355-3.814 4.305 0 7.617 1.247 9.938 3.73 2.318 2.488 3.48 6.035 3.48 10.635 0 1.04-.076 2.042-.223 3.007zm-17.678-10.13c-1.095 1.075-1.79 2.667-2.087 4.784h12.972c-.297-2.076-1-3.666-2.116-4.758-1.114-1.098-2.56-1.648-4.343-1.648-1.854 0-3.33.543-4.425 1.62z"/><g><path d="M293.035 337.458c1.06 1.082 1.59 2.582 1.59 4.494 0 1.916-.53 3.414-1.59 4.496s-2.537 1.623-4.435 1.623c-1.9 0-3.377-.54-4.437-1.622-1.06-1.082-1.588-2.58-1.588-4.496 0-1.912.53-3.412 1.588-4.494 1.06-1.084 2.537-1.623 4.437-1.623 1.898 0 3.377.54 4.435 1.623zm-6.517 1.705c-.48.62-.72 1.55-.72 2.79s.24 2.17.72 2.786c.48.62 1.174.93 2.083.93s1.605-.31 2.083-.93c.48-.616.718-1.548.718-2.788 0-1.238-.237-2.168-.717-2.79-.48-.618-1.173-.93-2.082-.93s-1.604.312-2.082.93zM300.72 336.07h3.718v2.4h-3.578v9.364h-3.223v-9.365h-2.047v-2.4h2.047v-1.41c0-1.288.398-2.272 1.2-2.954.8-.686 1.884-1.023 3.247-1.023.518 0 .992.053 1.424.164.432.11.773.26 1.023.447l-.446 2.143c-.36-.238-.807-.355-1.342-.355-1.348 0-2.02.605-2.02 1.813v1.174z"/><g><path d="M285.023 367.24c-.377.296-.853.532-1.425.704-.573.174-1.173.258-1.8.258-2.62 0-3.93-1.184-3.93-3.553v-6.05h-2.142v-2.398h2.142v-2.705l3.224-.895v3.6h3.812v2.398h-3.812v5.53c0 1.083.54 1.626 1.624 1.626.688 0 1.293-.22 1.81-.658l.497 2.14zM296.848 357.075c.777.734 1.164 1.795 1.164 3.176v7.718h-3.225v-6.777c0-1.786-.697-2.68-2.094-2.68-.752 0-1.393.27-1.917.8-.524.533-.79 1.35-.79 2.447v6.21h-3.223V351.05h3.224v7.152c.362-.754.866-1.314 1.52-1.682.65-.367 1.407-.553 2.27-.553 1.27 0 2.293.37 3.07 1.108zM311.752 363.31h-8.33c.332 1.662 1.31 2.494 2.943 2.494.674 0 1.23-.127 1.67-.377s.744-.613.918-1.08l2.637.96c-.38.944-1.01 1.663-1.895 2.155-.89.494-1.996.74-3.33.74-1.945 0-3.45-.537-4.518-1.61-1.068-1.075-1.602-2.575-1.602-4.507 0-1.93.518-3.432 1.553-4.506 1.037-1.075 2.496-1.612 4.377-1.612 1.82 0 3.22.525 4.2 1.574.98 1.05 1.472 2.553 1.472 4.496 0 .44-.03.863-.095 1.272zm-7.47-4.284c-.464.455-.757 1.13-.882 2.023h5.482c-.127-.878-.422-1.55-.895-2.01-.47-.466-1.082-.7-1.836-.7-.78 0-1.406.233-1.867.686z"/></g></g><g><path d="M350.975 334.02c2.37 2.054 3.553 4.95 3.553 8.685 0 3.627-1.184 6.457-3.553 8.488-2.37 2.04-5.678 3.055-9.934 3.055h-7.712v13.318h-7.658V330.94h15.37c4.257-.002 7.565 1.026 9.935 3.08zm-5.88 12.876c1.108-.945 1.66-2.363 1.66-4.246 0-1.887-.552-3.293-1.66-4.22-1.112-.925-2.853-1.386-5.218-1.386h-6.55v11.266h6.55c2.365 0 4.105-.473 5.217-1.414zM386.88 362.733l-.554 4.61c-1.037.515-2.24.776-3.607.776-3.554 0-5.683-1.386-6.384-4.163-.814 1.365-2.072 2.406-3.773 3.107-1.703.703-3.72 1.055-6.05 1.055-2.7 0-4.808-.61-6.327-1.833-1.516-1.22-2.27-2.98-2.27-5.273 0-4.51 3.604-7.436 10.82-8.762l6.657-1.28v-1.333c0-1.48-.418-2.655-1.25-3.524-.832-.87-1.988-1.303-3.467-1.303-1.703 0-3.092.37-4.164 1.11-1.068.74-1.81 1.942-2.217 3.604l-6.05-2.553c.59-2.404 1.927-4.29 3.997-5.658 2.068-1.37 4.77-2.057 8.102-2.057 3.957 0 7.047.864 9.268 2.583s3.326 4.262 3.326 7.63v11.374c0 .742.166 1.28.504 1.61.332.33.848.497 1.555.497.773.002 1.4-.068 1.882-.22zm-13.513-.966c1.35-.795 2.025-1.88 2.025-3.248v-2.888l-5.94 1.336c-1.255.297-2.188.693-2.8 1.19-.61.5-.914 1.19-.914 2.08s.275 1.565.83 2.026c.555.463 1.334.69 2.332.69 1.625.002 3.116-.392 4.467-1.187zM408.297 365.843c-.887.705-2.008 1.262-3.36 1.668-1.35.407-2.763.61-4.243.61-6.18 0-9.268-2.797-9.268-8.38v-14.265h-5.047v-5.658h5.046v-6.38l7.604-2.11v8.49h8.988v5.658h-8.988v13.043c0 2.553 1.275 3.83 3.83 3.83 1.627 0 3.05-.52 4.27-1.555l1.167 5.05zM411.072 331.77c0-2.737 1.572-4.104 4.715-4.104 3.146 0 4.72 1.367 4.72 4.105 0 2.7-1.573 4.052-4.72 4.052-3.142 0-4.715-1.352-4.715-4.05zm8.49 35.795h-7.6v-27.748h7.6v27.748zM452.19 356.577h-19.644c.775 3.92 3.088 5.883 6.936 5.883 1.592 0 2.904-.3 3.94-.89 1.036-.59 1.757-1.442 2.163-2.552l6.215 2.275c-.887 2.22-2.375 3.914-4.465 5.078-2.092 1.167-4.707 1.75-7.854 1.75-4.587 0-8.138-1.27-10.653-3.804-2.52-2.535-3.775-6.072-3.775-10.625s1.22-8.093 3.664-10.628c2.44-2.53 5.883-3.803 10.324-3.803 4.29 0 7.59 1.24 9.902 3.718 2.31 2.477 3.467 6.016 3.467 10.6 0 1.038-.074 2.036-.22 3zm-17.62-10.1c-1.09 1.073-1.783 2.663-2.08 4.772h12.93c-.295-2.07-.996-3.655-2.107-4.743-1.11-1.094-2.553-1.643-4.33-1.643-1.848 0-3.32.54-4.413 1.614zM481.463 341.874c1.832 1.736 2.748 4.232 2.748 7.492v18.2h-7.6V351.58c0-4.218-1.647-6.325-4.94-6.325-1.775 0-3.285.633-4.52 1.89-1.24 1.26-1.862 3.183-1.862 5.77v14.65h-7.602v-27.748h6.826l.225 4.94c.922-1.813 2.195-3.185 3.826-4.108 1.627-.92 3.512-1.39 5.658-1.39 3 0 5.41.874 7.243 2.614zM512.18 341.483c2.033 1.477 3.422 3.46 4.164 5.936l-7.104 2.554c-.668-3.367-2.46-5.053-5.385-5.053-2.186 0-3.857.75-5.02 2.253-1.17 1.496-1.75 3.688-1.75 6.572s.59 5.064 1.775 6.52c1.184 1.467 2.832 2.195 4.94 2.195 3.25 0 5.177-1.646 5.77-4.94l6.88 2.22c-.592 2.555-1.97 4.588-4.133 6.104-2.162 1.52-4.965 2.277-8.406 2.277-4.59 0-8.14-1.27-10.653-3.802-2.518-2.535-3.777-6.072-3.777-10.625s1.25-8.094 3.748-10.63c2.498-2.53 5.967-3.802 10.406-3.802 3.665 0 6.51.743 8.546 2.223zM547.086 356.577H527.44c.775 3.92 3.09 5.883 6.938 5.883 1.586 0 2.904-.3 3.94-.89 1.034-.59 1.76-1.442 2.165-2.552l6.213 2.275c-.89 2.22-2.375 3.914-4.465 5.078-2.09 1.167-4.708 1.75-7.853 1.75-4.59 0-8.14-1.27-10.656-3.804-2.513-2.535-3.772-6.072-3.772-10.625s1.223-8.093 3.664-10.628c2.44-2.53 5.88-3.803 10.324-3.803 4.287 0 7.59 1.24 9.902 3.718 2.31 2.477 3.467 6.016 3.467 10.6 0 1.038-.073 2.036-.22 3zm-17.62-10.1c-1.093 1.073-1.786 2.663-2.08 4.772h12.927c-.297-2.07-.996-3.655-2.105-4.743-1.11-1.094-2.553-1.643-4.328-1.643-1.853 0-3.325.54-4.413 1.614z"/></g></g></g></svg>