<svg xmlns="http://www.w3.org/2000/svg" width="495.049" height="414" viewBox="0 0 495.049 414"><path fill="#1A1113" d="M439.154 261.002c0 7.41-6.27 14.927-13.7 14.927H83.86c-7.428 0-13.45-6.01-13.45-13.42V119.164c0-7.41 6.022-13.42 13.45-13.42h341.845c7.427 0 13.45 6.01 13.45 13.42v141.838z"/><path fill="#1A1113" d="M352.817 271.456c0 6.266-14.214 20.868-21.575 20.868H161.684c-7.36 0-13.33-5.078-13.33-11.717V105.745s9.158-27.008 19.995-27.008h164.428c10.485 0 20.04 8.208 20.04 18.05v174.67z"/><path fill="#F7F5F6" stroke="#F7F5F6" stroke-miterlimit="10" d="M346.153 258.037c0 7.41-5.703 13.42-12.737 13.42h-150.71c-7.032 0-12.735-6.01-12.735-13.42V99.245c0-7.41 5.704-13.42 12.737-13.42h150.71c7.033 0 12.736 6.01 12.736 13.42v158.792z"/><path fill="#1A1113" d="M259.114 141.46c0 5.132-1.042 10.023-2.923 14.47-5.645 13.347-18.857 22.71-34.258 22.71-20.535 0-37.183-16.646-37.183-37.18 0-20.537 16.646-37.183 37.182-37.183s37.182 16.646 37.182 37.182z"/><path fill="#1A1113" d="M329.77 245.662c.12-2.233-77.09-94.122-77.09-94.122l-23.722 17.684s90.257 84.733 93.58 84.075c4.53-.898 7.057-4.475 7.232-7.638z"/><ellipse fill="#1A1113" cx="206.46" cy="237.07" rx="28.325" ry="27.784"/><ellipse fill="#1A1113" cx="315.457" cy="116.844" rx="25.809" ry="25.316"/><circle fill="#55BDEA" cx="315.021" cy="116.843" r="19.729"/><circle fill="#FAE207" cx="206.459" cy="237.071" r="21.652"/><ellipse fill="#476FA7" cx="311.748" cy="121.424" rx="13.858" ry="14.204"/><ellipse fill="#F47522" cx="211.838" cy="233.667" rx="15.191" ry="15.385"/><ellipse transform="rotate(-42.994 216.12 228.627)" fill="#1A1113" cx="216.119" cy="228.622" rx="6.05" ry="7.705"/><ellipse transform="rotate(-40.253 307.34 125.632)" fill="#1A1113" cx="307.328" cy="125.643" rx="5.513" ry="7.021"/><path fill="#DF5244" d="M352.817 224.987h75.26s2.336-.036 4.168-1.538c1.877-1.538 1.877-3.496 1.877-3.496v-97.66s.096-1.935-1.096-3.682c-1.79-2.626-4.95-2.514-4.95-2.514h-75.26v108.89zM432.525 261.61c-1.034.87-2.225.9-2.225.9h-77.483v-29.075H430.3s1.965 0 2.585.952c.576.884.62 1.97.62 1.97v22.83s.053 1.553-.98 2.423zM148.686 224.987H81.403s-2.088-.036-3.727-1.538c-1.678-1.538-1.678-3.496-1.678-3.496v-97.66s-.086-1.935.98-3.682c1.6-2.626 4.425-2.514 4.425-2.514h67.283v108.89zM77.426 261.61c.925.87 1.988.9 1.988.9h69.27v-29.075h-69.27s-1.755 0-2.31.952c-.516.884-.556 1.97-.556 1.97v22.83s-.046 1.553.878 2.423z"/><ellipse fill="none" stroke="#F7F5F6" stroke-width="3" stroke-miterlimit="10" cx="221.932" cy="140.57" rx="37.182" ry="38.071"/><path fill="none" stroke="#F7F5F6" stroke-width="5" stroke-miterlimit="10" d="M196.823 170.88s18.087-4.51 35.748-22.528c17.66-18.02 19.644-32.59 19.644-32.59"/><path d="M214.07 313c-4.048 0-6.937.904-9 2.277l-.047.023c-.028.02-.065.037-.096.057l-.044.025c-.015.008-.035.018-.05.03-.044.026-.095.052-.138.077-.03.02-.068.034-.097.054-.027.02-.063.035-.095.053-.026.02-.064.037-.094.057-.014.01-.03.016-.04.025-.016.005-.035.017-.05.026-.028.018-.064.035-.095.053-.028.017-.063.034-.092.052-.048.03-.1.053-.143.082-.014.01-.03.016-.045.025-.015.01-.033.02-.048.028l-.044.023c-.015.013-.033.022-.05.03-.013.012-.028.018-.043.027-.015.008-.033.014-.047.025-.046.03-.102.053-.146.084-.013.01-.028.016-.04.023-.016.01-.033.017-.047.026-.03.02-.065.035-.093.055-.016.01-.034.017-.05.026l-.05.03c-.028.02-.062.034-.09.052l-.048.027c-.014.01-.03.016-.045.027-.046.025-.098.05-.142.078-.014.01-.033.018-.047.03-.016.01-.03.017-.046.024-.03.02-.064.035-.094.055l-.047.024c-.016.01-.032.016-.046.027-.016.01-.034.017-.05.028-.03.02-.066.037-.094.057-.014.006-.03.014-.043.023-.016.01-.035.018-.052.027-.012.012-.03.018-.042.027l-.047.025-.045.025-.05.03-.047.026c-.028.018-.064.035-.093.055-.032.02-.066.035-.096.055-.013.01-.03.016-.042.023l-.048.028c-.032.02-.065.037-.097.055-.013.012-.03.018-.04.027-.017.008-.035.018-.05.027-.016.01-.033.016-.05.027l-.042.025c-.016.007-.034.017-.05.026l-.024.014c-1.768-2.438-5.03-4.28-10.887-4.28-3.572 0-6.203.616-8.135 1.608-.016.008-.028.018-.044.025-.018.008-.033.02-.05.025-.016.01-.026.02-.044.025l-.046.03c-.02.007-.03.017-.05.028-.018.007-.03.02-.05.026l-.042.027c-.017.008-.03.018-.05.027-.015.008-.026.018-.042.023l-.05.03c-.015.01-.027.017-.044.022-.018.012-.032.023-.05.03-.017.01-.03.02-.044.026-.018.01-.032.02-.05.032-.016.006-.026.014-.043.02s-.032.02-.05.028c-.017.01-.03.02-.046.027-.02.008-.03.02-.048.027-.016.01-.027.018-.045.025-.016.01-.03.02-.05.028-.015.006-.026.016-.042.025-.017.008-.03.02-.047.027-.018.008-.033.018-.05.027-.015.008-.025.018-.04.023-.02.012-.036.023-.055.033-.016.006-.025.016-.04.02-.017.01-.033.02-.052.028-.015.013-.028.022-.046.028-.017.012-.03.02-.045.027-.018.01-.03.02-.048.027-.017.008-.03.018-.044.027-.02.01-.033.02-.05.026s-.03.018-.045.027c-.02.008-.034.02-.05.03-.015.005-.026.015-.042.02-.017.012-.03.02-.047.027-.02.01-.034.02-.053.03l-.042.028c-.016.004-.028.016-.044.02l-.05.032c-.016.006-.03.016-.045.025-.016.01-.03.016-.042.025-.02.008-.034.02-.054.027l-.04.027c-.02.008-.035.018-.052.027-.018.01-.03.02-.046.028-.017.008-.03.018-.05.027-.015.006-.028.016-.045.025-.016.008-.028.018-.046.03-.017.007-.03.017-.047.024-.016.008-.028.018-.043.023-.02.01-.032.02-.05.03-.015.01-.026.017-.04.024-.02.01-.037.02-.053.03-.018.008-.03.018-.047.03-.017.005-.03.015-.046.022l-.043.027c-.017.007-.03.015-.048.026-.018.006-.033.02-.055.03-.012.005-.026.017-.038.022-.017.01-.03.02-.05.027-.015.008-.024.018-.04.023l-.054.03c-.017.01-.028.02-.046.026-.018.01-.03.02-.048.027-.015.01-.028.02-.044.028-.017.008-.03.02-.047.025-.018.01-.03.02-.048.03-.017.007-.03.017-.047.024-.016.01-.03.02-.045.025-.017.012-.03.02-.046.027l-.05.03c-.016.006-.027.014-.043.023-.02.01-.035.02-.053.03-.012.007-.023.015-.038.02l-.054.03c-.015.01-.024.017-.04.026-.02.01-.034.017-.052.028l-.042.025c-.02.006-.033.018-.05.027-.016.006-.028.018-.043.023-.017.012-.032.02-.05.027-.02.01-.034.02-.05.03-.016.007-.027.017-.043.024l-.05.03c-.017.007-.027.017-.043.024-.015.008-.03.016-.045.027-.02.008-.034.018-.052.025l-.045.03c-.017.007-.032.017-.05.024-.097.05-.177.113-.27.166-1.444-2.49-4.087-4.19-8.886-4.19-2.21 0-4.033.308-5.606 1-.51-.294-1.097-.462-1.725-.462h-5.498c-.722 0-1.393.225-1.947.6-.015.01-.03.018-.046.027-.015.008-.032.016-.045.025l-.055.03c-.012.01-.027.015-.04.024-.018.01-.033.016-.052.027-.014.013-.027.017-.042.028-.015.01-.034.018-.05.027-.014.01-.03.016-.04.02-.017.015-.036.022-.053.032-.015.012-.03.018-.046.027-.015.01-.03.018-.045.025-.017.013-.032.02-.05.03-.012.008-.03.016-.042.02-.015.013-.032.02-.047.03-.015.01-.03.016-.05.025-.013.01-.03.02-.046.03-.015.007-.03.017-.047.026-.015.01-.03.017-.046.028-.015.008-.03.014-.044.023s-.034.02-.05.03c-.014.01-.032.018-.05.03l-.04.02-.052.03c-.012.01-.03.017-.045.026-.015.01-.032.018-.048.027-.014.01-.03.018-.044.025-.015.01-.03.018-.048.027-.013.01-.03.018-.046.025-.017.012-.034.02-.05.03-.015.01-.03.013-.045.026-.016.01-.033.016-.047.025l-.046.026c-.015.01-.03.018-.047.027-.016.01-.032.018-.045.027l-.05.027-.044.027c-.016.008-.032.016-.045.025-.017.01-.033.017-.05.026-.016.012-.03.018-.046.03-.016.01-.032.015-.045.024l-.052.027c-.013.01-.028.016-.042.023-.015.012-.03.018-.046.027-.017.01-.034.018-.052.03-.016.007-.03.015-.046.024l-.048.028c-.015.01-.03.018-.046.03-.016.01-.03.015-.047.026-.015.008-.028.014-.044.025l-.046.026s-.032.014-.048.025-.03.02-.045.03c-.016.008-.033.014-.048.023-.018.014-.035.02-.052.03-.013.01-.027.015-.04.022-.018.012-.034.02-.052.03-.014.01-.03.017-.043.024-.016.01-.032.015-.048.026-.014.01-.032.018-.048.027-.015.01-.032.018-.048.03l-.046.022c-.015.012-.03.018-.046.03-.004 0-.01.003-.012.005-2.016-1.746-4.938-2.813-9.227-2.813-3.702 0-6.42.764-8.44 1.943l-.043.023-.05.03c-.017.01-.034.02-.053.028-.01.01-.023.013-.037.024-.018.008-.033.018-.05.027-.017.01-.03.02-.045.026l-.052.03c-.013.01-.023.017-.037.022-.018.012-.037.02-.057.03-.013.01-.028.02-.043.026-.016.01-.03.018-.05.027-.01.01-.023.017-.038.026l-.05.027-.055.03-.034.02c-.02.013-.04.024-.06.034-.014.01-.024.016-.04.025-.008.004-.018.006-.026.012-.006-.02-.014-.045-.024-.066.355-.555.55-1.203.55-1.873v-4.5c0-1.713-1.25-3.172-2.942-3.43-.08-.012-1.912-.29-3.946-.29-2.318 0-4.23.4-5.74 1.192-.018.008-.033.02-.05.027-.016.008-.03.018-.045.025-.017.007-.032.02-.05.028-.016.008-.027.016-.043.025-.02.01-.036.02-.052.03-.015.005-.024.017-.04.022l-.052.03c-.017.007-.03.017-.046.024-.016.01-.027.02-.045.026s-.032.02-.05.027c-.015.01-.03.02-.044.025-.017.01-.03.02-.047.027l-.045.027c-.018.008-.034.02-.05.03-.015.007-.026.015-.042.02l-.05.03c-.02.007-.03.017-.048.028-.016.006-.03.018-.047.027-.013.006-.027.016-.04.023-.02.01-.035.02-.052.03-.018.005-.03.017-.046.024-.016.008-.028.02-.043.025-.02.01-.035.02-.055.028-.013.008-.026.018-.04.025-.018.008-.033.02-.052.03-.017.01-.03.017-.046.024-.017.01-.032.02-.047.027-.016.01-.03.018-.042.027-.018.007-.034.017-.052.026l-.044.025-.05.03c-.016.008-.03.02-.044.027-.017.008-.03.018-.05.027-.014.006-.028.016-.043.025-.017.007-.03.017-.045.024l-.053.03c-.016.007-.027.017-.04.024-.02.008-.034.02-.05.03-.02.007-.032.017-.048.022-.018.012-.032.023-.048.03-.015.01-.028.017-.044.024l-.05.03c-.017.007-.028.017-.043.024-.018.008-.03.016-.048.027-.017.006-.03.018-.048.025s-.03.02-.052.03l-.046.026c-.016.008-.03.018-.043.025-.018.01-.03.02-.045.026-.02.008-.035.02-.053.03l-.042.022c-.017.01-.033.02-.054.03-.013.01-.025.017-.042.024-.016.01-.03.02-.05.03-.015.007-.026.017-.044.024-.015.01-.03.02-.045.027-.02.01-.033.02-.05.03-.015.007-.027.015-.043.024-.016.006-.03.016-.046.025-.02.008-.033.02-.05.03-.017.005-.03.015-.046.024-.017.008-.03.018-.048.03-.016.003-.03.015-.045.024-.016.006-.03.018-.045.023l-.05.03-.043.024-.056.03c-.014.007-.025.017-.038.024l-.048.028c-.02.01-.035.02-.053.03-.016.005-.03.017-.044.024-.015.008-.028.018-.046.025-.013.008-.027.02-.042.023-.02.012-.037.025-.057.035l-.036.02-.055.03-.044.026c-.014.01-.03.02-.046.028l-.048.027c-.015.008-.027.018-.043.025-.018.01-.032.02-.05.025-.015.012-.03.02-.046.03s-.032.02-.052.028c-.014.006-.027.018-.04.023-.018.008-.032.02-.048.03-.015.005-.03.015-.048.024-.018.008-.033.02-.05.03-.015.005-.026.015-.04.022l-.055.03c-.015.007-.026.015-.043.024-2.16 1.115-3.473 3.05-3.974 5.75-1.874-1.02-4.3-1.615-7.49-1.615-4 0-6.872.88-8.937 2.224-.045.03-.1.053-.145.08-.013.01-.03.018-.044.027-.015.01-.03.02-.044.026-.08.05-.164.09-.24.14-.058.036-.125.067-.183.104-.06.037-.128.07-.187.107-.03.018-.063.035-.094.055l-.044.025c-.03.02-.068.035-.094.055-.033.02-.068.035-.098.055-.028.018-.063.033-.09.053-.032.02-.065.035-.096.053-.013.012-.03.018-.045.027-.06.037-.13.068-.187.11-.03.017-.065.032-.095.052-.028.02-.063.035-.092.055-.03.018-.064.033-.093.053l-.037.02c-1.427-5.84-5.323-10.694-15.48-10.694H66.483c-.72 0-1.39.22-1.943.596-.017.012-.036.02-.052.03-.015.013-.028.017-.042.026s-.033.016-.05.027c-.015.008-.03.018-.042.023-.018.014-.038.023-.054.033-.014.01-.027.015-.038.02-.017.013-.034.02-.05.032l-.05.027c-.015.01-.032.017-.047.026l-.044.025c-.015.01-.03.017-.046.028-.016.01-.034.018-.052.03l-.04.022c-.016.01-.034.018-.05.03-.013.01-.03.013-.043.024-.02.01-.036.018-.053.03-.014.007-.03.013-.042.022-.016.012-.035.018-.05.03l-.044.022c-.016.012-.034.018-.05.03-.014.007-.03.017-.046.024-.013.012-.03.018-.045.027l-.05.026c-.015.012-.03.018-.045.027s-.034.018-.05.03c-.015.007-.03.013-.042.022l-.05.03c-.013.01-.03.013-.04.022-.02.01-.036.02-.053.03-.016.01-.03.017-.046.024-.016.01-.03.017-.045.028-.018.008-.037.018-.053.03l-.046.024c-.012.01-.03.018-.042.025-.016.012-.034.018-.05.027l-.046.027-.048.03c-.013.008-.03.016-.044.023-.016.012-.033.018-.05.03s-.032.015-.047.024c-.013.012-.03.016-.043.025l-.05.03c-.014.01-.03.015-.043.024-.017.008-.033.018-.05.027-.014.01-.03.016-.046.025l-.046.03c-.016.01-.032.015-.047.026-.015.01-.03.016-.045.027-.015.01-.033.017-.047.026-.015.01-.03.014-.045.025-.017.013-.036.02-.052.032-.014.008-.028.014-.042.025l-.05.025c-.015.01-.03.018-.048.027-.013.01-.03.017-.046.026-.015.01-.032.018-.048.027-.03.02-.064.035-.094.055l-.044.023c-.016.013-.03.017-.048.028l-.047.03-.046.026c-.016.01-.032.016-.045.027-.016.01-.032.015-.046.024-.016.01-.034.018-.05.027s-.032.02-.044.028l-.048.027c-.016.01-.033.016-.05.027l-.042.023c-.017.012-.035.02-.053.033-.012.008-.027.014-.038.02-.02.01-.04.022-.056.032-.015.01-.03.014-.042.023l-.05.027c-.014.01-.03.018-.045.027-.016.012-.033.018-.048.027l-.045.025-.05.026s-.03.016-.045.027c-.016.012-.032.018-.047.027-.016.01-.034.016-.05.027-.013.01-.028.016-.042.02-.017.015-.035.024-.052.034-.01.01-.026.015-.04.022-.018.014-.036.02-.053.033-.014.01-.026.014-.04.023-.016.01-.034.018-.052.03l-.046.024-.047.03c-.013.01-.028.013-.042.024-.948.62-1.575 1.684-1.575 2.9v29.87c0 1.917 1.556 3.47 3.472 3.47H74.64c4.03 0 7.296-.824 9.814-2.488l.05-.027.044-.026c.016-.01.033-.018.05-.027.013-.008.03-.014.042-.023l.05-.03c.014-.01.03-.015.043-.024l.05-.027s.03-.016.045-.027c.016-.01.033-.016.05-.025s.03-.017.044-.026c.018-.012.033-.018.05-.03l.042-.024c.015-.012.036-.018.048-.027l.05-.027c.013-.01.027-.016.04-.023.02-.01.035-.018.05-.03s.034-.017.05-.026l.045-.023c.017-.014.035-.02.05-.03.014-.01.028-.015.042-.024l.052-.03c.012-.01.028-.015.04-.024.017-.01.035-.018.05-.03.016-.007.032-.013.045-.024.017-.01.034-.018.052-.03.014-.01.027-.013.04-.022.016-.012.032-.018.048-.027.014-.01.03-.016.046-.025.018-.012.034-.02.054-.03.01-.01.024-.017.04-.022.014-.012.03-.018.047-.027.017-.015.036-.02.054-.032.012-.01.03-.018.04-.027l.046-.024c.016-.01.03-.014.046-.023.016-.012.03-.018.048-.03.016-.01.032-.015.048-.024.014-.013.032-.02.048-.03l.044-.025c.016-.01.033-.018.05-.027.014-.01.03-.018.045-.027l.048-.026c.028-.02.06-.033.088-.05.017-.013.035-.02.05-.028l.053-.03c.015-.01.03-.02.047-.026.027-.02.063-.037.094-.057.028-.02.062-.033.092-.05.012-.01.03-.02.043-.026.015-.012.028-.018.043-.025l.052-.03c.015-.01.032-.017.048-.026.014-.01.033-.02.05-.03.01-.007.025-.013.038-.022.017-.01.035-.016.05-.027.015-.01.03-.016.047-.025.015-.012.033-.02.05-.03.014-.01.03-.015.046-.026.012-.008.03-.016.044-.023l.05-.03c.015-.01.033-.02.048-.028.014-.01.026-.014.04-.023.033-.02.068-.037.102-.057.01-.01.026-.014.038-.023.018-.012.036-.018.05-.03l.045-.024.05-.027c.016-.01.03-.017.044-.024l.048-.03c.014-.01.03-.015.046-.024l.045-.025.053-.03c.013-.01.03-.017.043-.024l.05-.03c.012-.01.03-.017.044-.024.016-.01.03-.02.047-.028s.032-.016.047-.025c.013-.012.03-.018.046-.03.016-.01.032-.015.05-.024.014-.012.028-.018.043-.027.016-.01.034-.018.048-.025l.046-.026c.017-.012.035-.02.05-.03.014-.01.03-.015.043-.024.016-.01.033-.016.048-.025.016-.012.033-.02.05-.03.07-.046.135-.103.205-.15 2.17 3.774 6.07 5.6 11.893 5.6 3.575 0 6.44-.67 8.607-1.993l.05-.03.042-.022.05-.03c.016-.01.03-.017.045-.024.016-.01.033-.018.048-.03.015-.007.03-.013.044-.022.016-.012.035-.02.05-.03.015-.007.03-.015.044-.024.016-.01.034-.018.05-.027l.043-.027.047-.025.054-.03.04-.02c.017-.013.036-.02.055-.032.013-.01.025-.016.038-.02.018-.01.035-.022.052-.03.017-.01.03-.02.048-.03.016-.007.033-.015.048-.026.016-.008.027-.014.04-.023.018-.01.035-.02.052-.028.014-.01.03-.018.046-.027l.047-.03c.017-.007.033-.017.048-.026.015-.01.03-.017.043-.022.017-.014.035-.02.054-.033.012-.008.026-.014.04-.02.016-.014.034-.023.055-.035.01-.006.023-.014.038-.02l.052-.03c.014-.01.027-.017.04-.024l.052-.03c.015-.007.03-.017.044-.024l.05-.027c.016-.01.03-.02.05-.03.012-.007.03-.015.044-.026.015-.01.03-.017.046-.024.015-.012.032-.02.048-.027.016-.013.03-.02.047-.03.016-.01.03-.016.046-.025s.03-.016.047-.027l.047-.027.048-.024c.016-.012.032-.018.047-.03.015-.01.028-.015.045-.026l.045-.025.045-.025c.017-.01.034-.018.05-.025.015-.012.033-.02.05-.03.017-.01.03-.02.047-.028l.038-.02c.018-.014.037-.02.056-.035.016-.006.027-.014.044-.02.014-.013.03-.02.046-.028.015-.012.03-.02.046-.027.014-.01.032-.018.045-.027.016-.008.033-.018.05-.03.017-.007.03-.015.047-.026l.045-.023c.016-.01.03-.02.046-.026.017-.008.034-.02.05-.03.015-.007.03-.017.044-.022l.046-.027c.018-.01.033-.02.048-.027l.045-.027c.016-.01.032-.017.047-.024.016-.012.033-.02.05-.03.013-.01.03-.017.046-.024.006-.004.01-.006.013-.01.11 1.82 1.605 3.264 3.45 3.264h5.793c.72 0 1.39-.22 1.945-.596.015-.012.032-.018.047-.027.014-.012.03-.016.045-.027.017-.012.034-.018.052-.03l.04-.02c.016-.014.035-.02.05-.03.015-.013.032-.017.045-.024l.047-.03c.016-.007.034-.015.046-.024.02-.01.034-.02.05-.027.013-.01.032-.017.045-.028.016-.01.033-.016.05-.025.014-.01.03-.018.046-.03.01-.007.026-.015.04-.02.017-.015.037-.02.054-.032.013-.008.028-.014.038-.02.02-.015.038-.02.055-.034.015-.01.03-.015.044-.022.016-.012.034-.018.05-.027.015-.013.03-.017.045-.028.014-.008.03-.014.045-.023l.05-.03c.014-.01.028-.014.043-.025.018-.01.035-.018.05-.03l.045-.022c.016-.012.033-.02.048-.03.015-.01.032-.015.046-.024.016-.013.032-.02.046-.03.016-.008.033-.016.047-.025.016-.01.032-.016.047-.027.015-.01.033-.016.045-.025.017-.012.034-.018.05-.03.015-.01.033-.015.048-.024.014-.01.03-.02.045-.028s.032-.016.046-.025c.016-.012.033-.018.048-.027l.047-.027.048-.027.044-.025c.018-.01.033-.015.05-.028.015-.008.032-.016.047-.027.015-.008.03-.014.044-.023.016-.012.033-.018.048-.03.015-.01.03-.015.045-.024.016-.01.032-.018.047-.03.016-.007.032-.015.047-.024l.05-.027c.014-.01.034-.018.05-.03.01-.007.026-.013.038-.02l.055-.03c.012-.01.03-.02.043-.028.014-.01.03-.015.045-.024s.03-.016.048-.027l.05-.028.046-.025c.014-.01.03-.018.044-.027.017-.012.036-.02.054-.03.014-.01.028-.017.04-.024.017-.01.032-.016.048-.027.015-.013.03-.017.045-.024.017-.014.034-.02.05-.03.016-.01.03-.02.046-.028l.048-.027c.015-.007.03-.01.044-.02.016-.014.035-.02.055-.033.012-.01.026-.016.04-.025l.047-.025.045-.025c.015-.01.032-.018.05-.027.014-.01.032-.018.047-.03.013-.007.03-.015.044-.024.018-.01.035-.015.05-.028l.047-.025c.013-.01.03-.018.046-.027l.047-.025c.016-.012.03-.018.046-.025l.048-.03c.015-.01.03-.015.046-.022.016-.012.033-.02.047-.03l.048-.028s.03-.016.045-.025c.016-.01.032-.016.047-.025s.03-.016.045-.027l.053-.03c.008-.007.02-.01.03-.017 2.297 2.266 5.65 3.39 10.182 3.39 3.744 0 6.727-.726 8.933-2.165l.043-.022c.03-.02.065-.035.096-.055.014-.012.027-.016.042-.023.018-.014.035-.02.053-.03.013-.013.03-.017.04-.026l.048-.025.05-.03c.015-.008.03-.016.043-.025.017-.01.035-.018.052-.03.03-.02.065-.034.097-.054.014-.007.025-.015.04-.024s.034-.016.05-.027c.013-.01.028-.017.042-.024.016-.014.034-.02.05-.03l.042-.022c.016-.012.035-.02.052-.03.03-.02.063-.034.093-.054.016-.01.03-.02.044-.025.015-.01.03-.02.047-.027s.034-.018.05-.03c.044-.026.095-.052.14-.08l.047-.028c.014-.006.03-.014.043-.023.017-.012.035-.018.052-.03l.04-.024c.016-.01.032-.016.047-.027.015-.008.033-.018.047-.023l.047-.03c.016-.01.034-.017.05-.028l.044-.023c.015-.01.032-.018.048-.025.014-.012.03-.018.046-.027.014-.012.032-.018.05-.027.014-.012.03-.018.046-.027.016-.01.032-.018.046-.025l.047-.028c.014-.01.03-.016.046-.027.017-.008.035-.018.053-.03l.007-.003c.317 1.584 1.7 2.783 3.377 2.783h5.793c.722 0 1.39-.22 1.945-.596.016-.013.033-.02.047-.028.015-.012.03-.018.046-.03.017-.01.035-.015.05-.024.015-.01.03-.016.043-.023.017-.014.035-.02.05-.03.015-.013.03-.017.046-.024.013-.013.03-.02.047-.028.014-.01.03-.016.045-.025l.048-.027c.014-.01.032-.018.046-.03.016-.01.032-.015.047-.024.016-.01.035-.018.05-.03.01-.007.027-.015.04-.022.018-.012.034-.018.05-.027.015-.01.028-.016.043-.023.018-.014.038-.02.055-.033.015-.01.03-.015.043-.022.016-.012.033-.016.046-.027.018-.013.034-.017.052-.03.012-.006.027-.012.04-.02l.052-.03c.013-.01.028-.014.042-.025.017-.01.035-.018.05-.03l.044-.022c.016-.012.034-.02.05-.03.014-.01.03-.015.045-.024.014-.013.032-.02.048-.03l.045-.025c.015-.01.032-.016.048-.027.015-.01.03-.016.045-.025.016-.01.033-.016.048-.027.017-.012.035-.018.053-.03l.042-.024.048-.027.044-.025.05-.027.047-.027c.017-.012.033-.018.048-.027s.03-.015.045-.026c.016-.01.034-.018.05-.03.015-.007.03-.013.045-.022.015-.012.032-.018.048-.03.014-.01.03-.015.045-.024.016-.008.03-.016.046-.027.015-.01.033-.017.05-.026l.047-.027c.017-.01.034-.018.05-.03.01-.007.026-.013.04-.02l.05-.03.047-.028s.03-.015.044-.024c.016-.01.03-.016.047-.027l.05-.028c.016-.01.03-.016.046-.025l.044-.027c.017-.012.036-.018.054-.03.013-.01.03-.017.046-.024.01-.01.025-.016.04-.025l.05-.028s.033-.016.05-.027c.015-.008.03-.018.044-.027l.048-.027c.014-.01.03-.013.044-.02.015-.014.034-.02.05-.033.015-.01.03-.014.044-.02.018-.013.034-.02.05-.032l.022-.012c.456 1.383 1.745 2.385 3.28 2.385h5.788c.692 0 1.333-.203 1.87-.553l.045-.023c.016-.012.033-.018.048-.03.017-.01.034-.017.05-.028.014-.01.03-.018.043-.023.017-.01.034-.02.052-.028.013-.01.026-.014.038-.023.02-.013.038-.02.055-.034.013-.006.028-.012.04-.02.017-.012.034-.02.054-.03.015-.01.03-.017.045-.026.014-.012.03-.018.047-.027l.046-.03c.015-.007.027-.015.043-.02.015-.012.034-.02.054-.03.01-.01.025-.017.04-.024l.052-.03c.015-.012.03-.018.043-.027l.05-.03c.015-.01.03-.015.045-.024.015-.007.03-.015.042-.024l.053-.03c.015-.01.03-.02.045-.026.016-.008.03-.014.044-.025.017-.012.033-.018.048-.027l.053-.03c.012-.007.027-.013.04-.024.016-.01.034-.016.05-.027.014-.01.03-.016.044-.02.014-.015.03-.024.05-.032.013-.01.03-.018.043-.025.018-.012.034-.02.05-.03.015-.01.03-.015.045-.024s.03-.018.047-.025l.05-.028.043-.025c.016-.01.032-.018.047-.03l.046-.022c.017-.012.033-.02.048-.03.016-.01.033-.015.05-.024.014-.01.03-.017.047-.028.014-.01.03-.016.045-.025.015-.01.032-.016.048-.027.013-.012.027-.016.04-.025.02-.008.035-.016.05-.027.016-.01.033-.018.05-.027.018-.01.03-.02.046-.026l.048-.027c.013-.01.028-.016.042-.025l.056-.03c.013-.01.027-.017.04-.022.016-.012.033-.018.046-.03.016-.01.03-.015.046-.024s.035-.018.05-.03l.044-.022c.016-.012.033-.018.047-.027.017-.012.035-.018.052-.03.015-.01.03-.017.047-.026l.044-.024c.013-.01.03-.016.044-.025.012-.005.024-.01.036-.02 2.06 1.564 5.144 2.698 9.838 2.698 4.104 0 6.96-.867 8.943-2.14.014-.005.03-.015.043-.02.014-.012.032-.02.047-.03.017-.01.035-.017.05-.028l.044-.023.054-.03c.012-.007.025-.015.04-.02.015-.01.034-.02.048-.034l.05-.025c.014-.01.03-.016.046-.025.015-.012.033-.018.047-.027s.03-.016.04-.025l.058-.03.037-.023.056-.03c.014-.01.027-.017.042-.024l.048-.03.045-.022.05-.028c.015-.01.028-.014.042-.023.015-.01.032-.02.048-.026.018-.014.037-.02.054-.035.012-.007.024-.015.04-.02.017-.013.036-.022.053-.034.012-.008.028-.014.04-.023.017-.008.034-.018.05-.027.015-.01.03-.018.044-.025.018-.01.033-.02.048-.026.016-.012.034-.02.05-.03l.043-.022c.018-.012.036-.02.054-.03.013-.01.026-.015.038-.022.016-.01.036-.018.052-.03.015-.007.035-.017.05-.026.01-.01.03-.018.044-.025l.047-.03c.012-.008.03-.016.043-.025.02-.01.037-.018.052-.03l.046-.024s.033-.017.045-.026c.016-.01.03-.014.045-.023.02-.01.038-.02.055-.032l.04-.02c.018-.013.035-.02.052-.032.014-.008.03-.016.04-.023.018-.01.034-.018.05-.03.015-.005.032-.015.048-.022l.044-.026c.015-.01.03-.018.045-.025.017-.013.033-.02.05-.03.016-.01.035-.02.05-.027.013-.01.03-.016.042-.027.02-.01.036-.02.053-.03l.035-.02c.02-.01.04-.02.06-.032.01-.01.027-.016.037-.023.018-.01.036-.02.054-.028.014-.01.03-.018.043-.023.016-.013.033-.02.047-.028l.05-.03c.014-.01.03-.017.044-.026.016-.008.034-.02.05-.03.014-.005.03-.015.043-.02.016-.012.033-.018.05-.027.014-.013.03-.02.044-.03.017-.01.035-.018.05-.03.015-.005.03-.013.042-.02.017-.01.038-.02.056-.033.01-.006.025-.014.04-.02.014-.01.03-.02.046-.026l.055-.032c.003-.004.01-.004.017-.008 2.293 2.707 5.852 4.03 10.8 4.03 3.025 0 5.55-.476 7.572-1.415.015-.01.027-.02.045-.027.017-.008.028-.018.046-.025.018-.01.03-.02.05-.027s.03-.02.046-.027c.033-.017.06-.04.092-.054.033-.016.06-.04.096-.055.017-.01.027-.02.045-.026s.03-.018.048-.027c.015-.006.028-.018.045-.027.016-.006.03-.018.045-.027.02-.006.03-.018.047-.025.034-.014.062-.04.092-.055.02-.008.033-.018.05-.027.02-.008.03-.02.048-.025.03-.015.056-.038.09-.052.02-.006.033-.02.05-.027.034-.017.06-.038.093-.054s.06-.037.09-.053c.036-.018.064-.04.1-.057.015-.004.025-.016.04-.025.02-.007.034-.017.05-.028.035-.012.062-.035.097-.05.015-.01.028-.02.044-.028.017-.008.028-.018.044-.025.05-.024.09-.058.14-.083.02-.008.03-.02.05-.027.017-.006.027-.018.046-.027.048-.02.09-.055.138-.076.035-.018.063-.04.097-.057s.06-.04.093-.055c.017-.008.03-.018.047-.027.016-.008.03-.018.048-.025.016-.01.03-.02.046-.027.014-.008.028-.02.044-.027.018-.01.032-.02.052-.03.017-.006.027-.018.043-.023.016-.01.03-.02.046-.027.034-.016.058-.037.09-.053.036-.016.06-.04.097-.057.033-.014.058-.035.093-.05.034-.017.06-.04.094-.056s.06-.04.092-.053c.017-.01.03-.02.048-.026.017-.008.03-.02.047-.027.018-.01.03-.02.048-.027.033-.016.06-.037.09-.053.018-.008.032-.02.05-.027.035-.016.06-.04.093-.055.036-.014.06-.04.092-.053.036-.016.062-.04.095-.053.02-.01.033-.022.05-.028.015-.01.026-.02.042-.027.02-.008.03-.02.05-.027.033-.018.06-.037.092-.053l.045-.03c.018-.005.033-.02.05-.024.032-.015.058-.036.09-.054.033-.014.06-.037.092-.05.053-.024.093-.062.145-.085.017-.007.03-.017.047-.024.016-.01.027-.02.043-.027.596-.274 1.133-.603 1.644-.956 2.385-1.64 3.844-4.133 4.314-7.506.086-.605.01-1.215-.212-1.77.315-.525.498-1.14.498-1.795-.057-8.65-1.69-16.623-13.527-16.623zm-137.947 7.306c.876.137 1.043.31 1.052.318.39.494.586 2.43.586 5.752 0 1.785-.04 3.063-.17 3.996h-1.467v-10.066zM261.293 306.425c-.036-.004-.872-.137-1.802-.137-1.057 0-1.933.188-2.623.56-.01.007-.016.01-.02.017l-.024.01-.02.014c-.01.005-.015.01-.02.01-.01.007-.017.015-.026.017-.005.002-.01.008-.018.012-.008.003-.018.007-.022.013-.01.004-.016.008-.02.014-.01.002-.015.006-.023.01l-.02.014c-.01.005-.016.01-.022.015l-.022.014c-.007 0-.012.005-.02.01l-.023.013c-.006.004-.01.008-.02.012-.008.004-.015.008-.022.014-.006 0-.015.01-.02.01-.01.005-.015.01-.023.015-.007.002-.012.01-.02.012-.01.004-.017.01-.022.014l-.02.015c-.007.002-.014.006-.02.01l-.026.016-.017.013c-.01.002-.016.01-.025.012-.005.006-.01.01-.018.012l-.022.014c-.008.007-.014.01-.022.013l-.02.014c-.007.002-.014.01-.02.012-.01.003-.015.01-.024.01-.005.005-.013.01-.02.015-.01.004-.016.01-.02.014-.008.003-.016.007-.022.013-.007.002-.013.008-.02.01-.01.004-.018.01-.024.014l-.02.014s-.014.01-.024.015c-.006.004-.01.008-.018.01-.01.008-.016.01-.022.014-.01.005-.015.01-.02.01-.01.007-.017.01-.022.017l-.02.01-.023.014c-.008.007-.013.01-.02.013-.008.006-.017.01-.02.014-.01.006-.017.008-.022.014l-.02.015-.022.01-.023.016c-.006.003-.01.007-.02.01l-.022.017c-.006.004-.013.008-.02.01l-.023.014c-.007.005-.01.01-.02.015-.007.004-.014.006-.02.012-.01.004-.017.01-.024.014-.007.005-.013.01-.018.01-.01.007-.018.01-.023.017-.01.002-.016.01-.022.012-.008.003-.015.01-.02.013-.01.004-.014.008-.022.012-.006.002-.014.008-.02.012l-.022.014c-.01.005-.015.01-.023.015-.007.002-.014.006-.02.012-.008.004-.015.01-.023.012-.007.003-.01.01-.02.013l-.022.014-.02.012c-.008.005-.013.01-.022.01l-.022.015c-.007.002-.013.006-.02.012l-.026.016c-.004.004-.01.006-.015.01-.008.002-.017.01-.025.012-.004.006-.013.01-.02.014-.007.003-.013.007-.02.013l-.023.01c-.006.006-.012.01-.02.014s-.014.01-.02.014c-.007.003-.015.01-.023.013-.005.006-.014.01-.02.014-.01.006-.014.01-.022.012-.01.005-.015.01-.023.01-.005.007-.014.01-.02.017-.01.002-.017.008-.022.014-.006.005-.012.007-.02.01-.007.005-.016.01-.024.017l-.018.01c-1.065.566-1.68 1.584-1.862 3.016-1.064-.7-2.405-1.088-4.024-1.088-1.604 0-2.95.363-4.008 1.053l-.023.016-.02.01-.02.012c-.01.008-.016.01-.022.014-.006.004-.015.008-.02.014-.008.004-.017.008-.022.012-.007.004-.015.008-.023.016l-.02.01c-.005.006-.01.01-.022.012-.004.006-.01.01-.02.014-.005.006-.014.008-.02.012-.008.006-.015.01-.02.012l-.022.014c-.008.006-.018.01-.023.016l-.018.01c-.01.006-.02.008-.027.016-.014.01-.028.016-.04.025-.007.002-.014.006-.02.01-.006.006-.017.008-.023.012l-.02.016c-.008.003-.016.01-.02.013-.01.004-.015.008-.023.014-.01.004-.016.008-.023.014l-.018.01c-.01.005-.02.01-.025.015-.008.004-.014.008-.02.014-.005.003-.015.005-.02.01-.01.005-.016.007-.024.015l-.02.01c-.005.006-.015.01-.02.016-.007.003-.016.007-.02.013l-.046.025c-.008.002-.015.008-.02.012-.01.004-.015.008-.024.014l-.02.014c-.007.002-.014.006-.02.01l-.02.014c-.007.004-.016.006-.022.014-.008.002-.017.01-.022.012l-.022.014-.02.012c-.007.006-.016.01-.02.012-.006.004-.015.006-.02.012-.01.004-.018.012-.027.018-.005.004-.013.006-.018.008-.01.004-.014.008-.02.014-.012.004-.02.01-.028.018-.005.002-.01.004-.015.01-.01.002-.018.008-.025.01-.006.008-.014.01-.018.014-.01.004-.018.01-.026.014-.005.004-.013.01-.02.012s-.014.008-.02.012l-.025.016c-.006.006-.014.008-.018.01-.007.006-.017.01-.025.016l-.02.012c-.006.006-.016.008-.02.01l-.02.014-.026.016-.018.01c-.01.006-.017.01-.023.016-.008.004-.015.006-.023.012-.004.004-.012.008-.018.01l-.02.016-.022.01c-.007.008-.015.01-.022.012-.007.008-.015.012-.02.016l-.02.012-.026.016c-.006.002-.01.006-.018.008-.007.008-.017.012-.025.016-.014.012-.027.016-.04.025-.01.005-.016.01-.024.015-.008.004-.013.006-.018.01l-.023.014-.02.013c-.006.004-.015.006-.02.01-.008.008-.015.01-.023.014-.006.006-.018.012-.024.014-.003.007-.012.01-.018.015-.008.004-.015.006-.02.014-.01 0-.015.003-.023.01l-.023.013c-.004.006-.01.008-.018.012-.01.004-.02.012-.027.018-.005.002-.012.004-.016.01-1.773 1.146-2.74 3.207-2.74 6.025 0 4.49 2.444 7.066 6.706 7.066 1.422 0 2.64-.285 3.634-.824.01-.002.013-.008.02-.012.01-.004.015-.008.022-.014.007-.004.015-.01.022-.012.006-.002.014-.01.022-.012.006-.006.012-.012.02-.014l.02-.014.024-.012c.006-.004.013-.01.02-.012.01-.004.017-.01.022-.014.008-.004.014-.01.02-.014.01-.002.015-.008.022-.012s.015-.01.02-.012c.01-.004.016-.01.02-.014.01-.002.02-.01.026-.014.007-.004.01-.008.02-.012.006-.002.014-.008.022-.012.005-.002.014-.01.022-.012.006-.006.01-.01.02-.014l.02-.014c.008-.002.015-.008.022-.014.01-.004.017-.008.022-.012l.022-.014.02-.012.02-.012c.01-.004.018-.01.024-.014l.02-.014c.008-.004.015-.006.02-.014.008-.002.014-.006.022-.01.006-.006.015-.008.02-.01.008-.008.017-.014.023-.018.008-.004.016-.008.02-.014.01-.002.015-.006.02-.01.01-.004.018-.008.023-.014.01-.004.017-.008.022-.012.007-.006.013-.008.022-.012l.02-.014c.008-.004.012-.008.017-.012l.028-.014.016-.014c.01-.004.017-.006.023-.012.008-.004.016-.008.024-.014.005-.004.013-.006.02-.012.006-.004.015-.01.025-.014.006-.002.01-.01.018-.012l.02-.014c.007-.002.014-.006.02-.012.01-.004.016-.008.023-.012.007-.006.015-.01.023-.014.006-.002.015-.01.02-.012.01-.004.014-.01.02-.014.01-.004.016-.006.02-.012.01-.004.02-.01.027-.014.007-.002.012-.01.02-.014.007-.002.014-.01.022-.012.005-.002.01-.008.02-.012l.02-.014c.01-.004.016-.01.025-.012.005-.002.01-.01.02-.012l.02-.014c.01-.004.016-.01.022-.012l.022-.014c.006-.002.013-.01.02-.012.01-.004.015-.01.022-.014.01-.004.015-.008.02-.012.01-.004.018-.01.023-.014.008-.002.013-.01.02-.012.008-.004.016-.01.024-.016.007-.002.014-.006.02-.01.007-.006.013-.01.02-.012.008-.006.016-.01.022-.016s.015-.008.022-.014c.007-.002.013-.006.02-.01s.015-.01.02-.012l.024-.014c.008-.006.013-.01.02-.012.01-.004.015-.01.022-.014.008-.006.015-.008.022-.016.008-.002.014-.006.02-.01l.02-.014.025-.014c.006-.002.015-.01.02-.012.005-.002.01-.008.02-.01.01-.008.018-.01.027-.016.004-.004.01-.008.017-.01l.023-.014c.01-.006.014-.01.02-.016.01-.002.016-.008.023-.012l.02-.014c.007-.002.015-.008.02-.012.01-.002.016-.008.024-.012.126-.068.24-.152.355-.227v.3c0 .903.71 1.636 1.586 1.636h2.648c.33 0 .637-.105.89-.283l.02-.01c.008-.008.016-.01.022-.016.006-.004.016-.006.02-.014.01-.002.016-.006.02-.008.01-.008.017-.01.025-.016.01-.004.015-.008.022-.012.007-.004.01-.01.02-.014s.014-.006.022-.012c.006-.004.015-.008.02-.014.01-.004.018-.008.02-.014.01-.004.017-.006.024-.012l.02-.014.02-.008c.01-.008.02-.012.026-.016.004-.004.012-.008.018-.01.008-.008.018-.012.022-.018.008-.002.015-.004.022-.012.006-.002.013-.006.02-.012.008-.004.017-.008.023-.014l.015-.01c.01-.006.018-.012.027-.016.004-.004.013-.006.018-.012.01-.004.018-.008.022-.012l.02-.014c.007-.002.016-.01.022-.014.007-.002.014-.006.02-.01l.024-.014c.005-.006.013-.01.02-.014.004-.004.017-.008.02-.014.008-.004.017-.006.023-.012l.022-.012.022-.014c.008-.006.014-.01.02-.012l.023-.014c.007-.006.014-.006.02-.012l.02-.012c.008-.008.016-.01.022-.014.005-.006.012-.01.02-.012.007-.004.013-.01.02-.012l.022-.014.023-.014.02-.014.02-.012c.01-.004.016-.006.023-.012.006-.006.016-.01.022-.014.008-.006.015-.008.022-.014l.02-.012c.008-.006.018-.008.022-.014.006-.004.017-.006.02-.014.01-.002.018-.006.023-.012.008-.004.013-.008.02-.01.007-.006.016-.008.022-.014l.02-.012.023-.016c.007-.004.013-.008.02-.01.007-.006.016-.01.024-.016.006-.004.013-.006.02-.014l.02-.01c.007-.006.016-.008.02-.01l.025-.018c.007-.002.014-.006.02-.014.007-.002.016-.004.02-.012.007-.002.017-.006.02-.012.01-.004.02-.008.024-.014.006-.002.015-.004.02-.012.008-.002.015-.008.022-.012l.022-.014c.005-.004.014-.006.02-.012.007-.004.016-.008.02-.014.01-.004.016-.006.023-.014l.02-.01.02-.014c.01-.004.016-.008.023-.014.007-.002.014-.004.02-.012.008-.004.017-.006.02-.012.01-.006.018-.008.023-.014l.02-.012c.007-.006.015-.01.022-.014l.02-.014c.007-.006.015-.008.022-.01.007-.008.015-.01.02-.014l.022-.014c.006-.004.015-.008.022-.014l.02-.01c.008-.008.017-.01.02-.014l.022-.014.024-.012c.005-.006.015-.01.02-.012.008-.008.017-.01.02-.014.01-.006.016-.01.022-.012.432-.293.72-.793.72-1.365v-6.126-.004c.007-.004.017-.006.022-.014.006-.002.016-.006.02-.01.007-.006.014-.008.02-.014.01-.004.015-.008.022-.012.008-.006.016-.008.023-.016.008-.002.013-.004.02-.012.008-.002.016-.006.02-.012.01-.004.016-.008.023-.014.01-.004.014-.008.02-.012.007-.002.014-.006.02-.012.01-.004.02-.01.024-.014.005-.004.013-.008.02-.01.007-.006.015-.008.022-.016.007-.004.016-.006.02-.014l.023-.01c.005-.006.013-.01.02-.014.008-.004.013-.008.02-.014l.023-.012c.007-.006.015-.008.02-.012.01-.008.015-.012.023-.014.007-.004.016-.01.022-.012.006-.006.015-.01.02-.014.01-.006.016-.01.022-.012.008-.008.015-.01.022-.012.005-.008.014-.01.02-.014.005-.004.014-.006.02-.014.007-.006.016-.008.024-.014.005-.004.013-.008.02-.01l.02-.014.024-.014.02-.012c.006-.006.016-.008.02-.012.008-.006.017-.008.024-.014.005-.006.014-.01.02-.014s.014-.008.02-.014l.02-.01c.01-.008.018-.01.026-.018.005-.002.013-.004.02-.008l.02-.014c.007-.006.014-.008.02-.012.008-.006.015-.01.025-.014.004-.006.01-.008.018-.012l.024-.016c.005-.002.012-.006.02-.012l.02-.01c.007-.008.016-.01.023-.018l.02-.008.02-.016.024-.008c.004-.008.014-.014.02-.018.006-.006.014-.006.018-.01.435-.293.72-.795.72-1.367v-2.195c0-.285-.07-.555-.193-.787.162-.262.25-.566.25-.883v-2.117c.004-.79-.566-1.475-1.342-1.598zM262.15 329.615c-1.596 0-2.797.314-3.702.818l-.02.01c-.007.006-.017.01-.024.014-.006.004-.01.008-.017.01l-.022.016c-.008.004-.013.008-.02.014-.01.004-.016.006-.023.012-.006.003-.014.005-.02.013-.01.004-.017.008-.022.014-.007.002-.014.004-.02.01-.01.004-.017.01-.025.014-.006.005-.012.01-.02.01-.007.007-.016.015-.024.017-.005.002-.01.008-.015.012-.01.003-.017.01-.025.013l-.02.012-.022.014c-.007 0-.013.01-.02.01l-.022.015-.02.012c-.012.004-.017.01-.025.014-.006.003-.013.01-.02.013l-.02.014c-.007.002-.015.008-.024.012-.006.003-.013.01-.022.01l-.018.015c-.007.002-.015.006-.02.012-.01.004-.015.01-.023.014l-.023.013-.02.014s-.015.01-.022.012l-.02.013-.023.012-.02.014s-.015.01-.022.01l-.022.013c-.004.006-.013.01-.02.014-.007.006-.015.01-.022.014s-.013.01-.02.01c-.008.01-.016.01-.02.015-.01.004-.015.01-.022.014-.008.005-.016.007-.023.013l-.02.012s-.013.01-.022.014l-.02.01-.02.013c-.008.006-.017.01-.023.016-.01 0-.014.005-.02.01l-.022.01c-.01.007-.015.01-.02.02-.01 0-.016.003-.023.01-.006.003-.013.01-.02.013-.007.004-.015.006-.022.014-.008.002-.012.004-.018.01-.01.004-.018.008-.026.014l-.02.015c-.008.002-.013.008-.022.012-.005.004-.013.006-.02.012-.008.003-.016.007-.024.013l-.02.012c-.008.004-.014.01-.02.014-.008 0-.015.007-.022.013l-.017.008c-.01.01-.017.01-.026.017l-.022.014c-.005.005-.013.01-.02.015-.008.002-.014.01-.02.012-.008.002-.015.008-.022.012l-.02.01c-.01.005-.018.013-.023.015-.008.002-.014.01-.02.014-.008 0-.013.005-.022.01l-.022.013c-.01.004-.014.01-.02.014-.01.002-.016.01-.025.012-.006.003-.01.01-.017.013-.008.004-.016.008-.022.014l-.02.012c-.008 0-.016.01-.023.01l-.02.015c-.01.004-.017.008-.023.012-.006.004-.013.01-.02.012-.008.005-.014.01-.022.013s-.015.01-.024.014c-.004.006-.01.008-.02.012s-.013.007-.02.013c-.01.004-.014.008-.02.012-.008.002-.014.01-.022.012-.007.004-.015.008-.022.014l-.02.013-.022.014c-.102.057-.188.123-.282.182-.69-1.206-1.97-2.138-4.375-2.138-.267 0-.73 0-1.27.09v-1.93c0-.9-.71-1.633-1.586-1.633h-2.646c-.327 0-.633.103-.887.278l-.023.016-.02.012c-.007.006-.017.008-.022.014-.008.002-.015.006-.018.01-.01.006-.02.01-.026.016-.006.004-.014.006-.02.012-.006.004-.017.006-.023.014-.003.004-.01.006-.017.01-.008.006-.017.008-.023.016-.008.002-.014.006-.02.01l-.024.016c-.006.004-.014.006-.02.012-.01.002-.014.006-.02.012-.01.004-.017.008-.024.014l-.02.01c-.007.006-.015.01-.02.016-.01.002-.017.006-.023.012-.008.004-.017.012-.024.014-.004.004-.013.006-.018.01-.005.006-.017.01-.024.016l-.02.012-.02.014c-.01.002-.015.006-.022.012-.008.004-.015.006-.022.012-.007.006-.014.01-.023.014-.005.006-.012.008-.017.012l-.025.014c-.005.004-.01.008-.016.01-.014.006-.02.012-.027.016-.008.006-.014.008-.02.012-.007.004-.015.008-.02.014-.008.004-.02.008-.024.014-.01.004-.015.008-.02.012-.008.006-.017.01-.023.012-.006.006-.013.01-.02.014-.01.004-.015.008-.02.012l-.022.012c-.007.008-.015.01-.022.012-.007.008-.015.012-.02.014l-.023.014c-.006.006-.014.008-.02.014l-.022.012c-.006.006-.014.008-.022.012-.005.006-.014.008-.02.014l-.022.012c-.006.006-.015.01-.023.012-.004.008-.012.01-.02.016-.004.004-.012.008-.02.012l-.02.014-.022.01c-.007.008-.013.01-.022.016-.008.004-.013.006-.02.012-.007.004-.016.006-.02.012-.01.006-.016.008-.023.016l-.02.01c-.01.006-.017.008-.023.014-.013.01-.03.016-.043.025l-.02.013c-.008.006-.016.008-.023.014-.004.004-.013.006-.02.012-.007.003-.016.007-.02.013-.01.004-.017.006-.023.014-.004.002-.01.004-.018.01-.008.006-.016.008-.022.016-.008.004-.015.006-.02.012-.008.002-.017.006-.024.012-.006.006-.014.008-.02.014-.008.005-.014.007-.02.013-.01.002-.016.008-.025.012-.005.008-.012.008-.018.014-.007.003-.017.005-.02.013-.01.004-.016.008-.023.012-.006.006-.016.006-.022.014-.007 0-.014.005-.02.01l-.025.015c-.007.004-.013.006-.02.012-.006.002-.013.008-.02.012-.006.005-.015.007-.02.013-.01.002-.016.006-.024.012-.007.006-.017.01-.024.018l-.016.008c-.01.01-.018.01-.026.015-.006.006-.013.008-.018.012-.01.006-.018.008-.024.016-.003 0-.004 0-.005.002-.214-.115-.457-.186-.716-.186h-2.645c-.33 0-.636.104-.89.28-.007.006-.014.01-.022.012-.006.008-.015.01-.02.014-.007.006-.017.01-.02.014-.008.006-.016.006-.022.012-.006.004-.016.008-.023.016l-.02.01c-.008.006-.015.01-.02.012-.007.006-.016.01-.022.014-.008.006-.018.008-.022.014-.008.004-.015.008-.022.01-.003.008-.012.01-.02.016-.006.004-.015.008-.02.014l-.02.01-.025.016c-.006.004-.013.006-.02.008-.007.008-.015.012-.022.018l-.02.01c-.008.006-.017.008-.022.016l-.02.008c-.006.008-.015.01-.023.016l-.02.012c-.007.004-.017.008-.02.016-.006.002-.016.006-.022.012-.005.004-.014.006-.02.012l-.022.012-.02.012-.025.016-.02.012c-.006.004-.015.006-.02.014-.008.002-.016.008-.022.012-.007.006-.015.008-.02.012-.008.006-.015.008-.02.014-.008.004-.017.006-.022.012-.01.002-.017.008-.023.014-.006.002-.012.006-.02.012-.006.004-.015.008-.02.014-.01.004-.014.008-.022.012-.005.006-.012.008-.02.014-.007.004-.016.008-.02.012-.01.004-.017.008-.022.014l-.023.012c-.007.006-.015.01-.02.012l-.022.014c-.007.006-.016.008-.02.012-.007.008-.016.01-.023.014-.006.006-.012.008-.02.012-.008.008-.014.008-.02.012-.008.006-.016.01-.024.014-.005.006-.015.01-.02.014-.01.006-.018.008-.022.012-.005.006-.013.01-.02.014l-.022.014-.017.01c-.008.006-.015.01-.024.014-.006.006-.014.01-.02.012-.007.006-.016.01-.02.012-.008.008-.017.01-.023.018-.006.004-.016.006-.02.014-.007.002-.016.004-.022.01l-.02.012c-.007.006-.016.008-.02.016-.017.01-.032.014-.045.023l-.02.01c-.006.006-.015.012-.022.016-.008.004-.013.006-.02.014-.01.002-.016.006-.024.012l-.02.01-.022.015c-.007.004-.015.006-.02.014-.008 0-.014.005-.022.01-.007.005-.014.007-.02.013l-.023.014c-.006.002-.015.006-.02.012-.006.003-.016.005-.022.013-.005.002-.013.006-.02.012l-.022.012c-.004.004-.016.008-.022.014-.006.005-.013.007-.02.015-.007.002-.013.006-.02.012l-.024.012c-.008.005-.013.01-.02.013-.007.004-.016.006-.024.014-.004.004-.014.006-.02.012-.007 0-.014.007-.02.01-.008.007-.014.01-.02.013l-.024.014c-.006.006-.014.01-.02.012-.007.005-.015.007-.02.013-.01.008-.02.01-.025.014-.432.29-.716.793-.716 1.365v.824c-.008.004-.013.012-.022.014-.005.002-.01.008-.018.012l-.022.014c-.01.004-.014.008-.02.012-.008.002-.017.01-.022.012l-.02.014-.02.012c-.01.004-.015.01-.024.014-.007.002-.013.01-.02.012-.01.006-.015.012-.022.014-.01.004-.015.008-.023.012-.004.006-.01.01-.02.014l-.018.012c-.01.002-.017.01-.026.014-.005.004-.01.008-.018.012-.01.004-.015.01-.022.012l-.02.014c-.01.004-.015.01-.022.012-.01.004-.016.01-.023.016-.006.002-.012.006-.018.01-.01.006-.016.01-.022.012-.007.008-.016.012-.023.018l-.02.01c-.007.004-.016.008-.02.014-.482.28-.808.81-.808 1.422v2.195c0 .81.568 1.48 1.315 1.61v2.86c0 2.686 0 5.46 4.058 5.46 1.092 0 2.104-.173 2.146-.18.22-.038.417-.122.595-.243.247.168.54.266.856.266h2.65c.327 0 .634-.104.888-.28.007-.007.014-.01.02-.013l.022-.014c.007-.005.017-.01.024-.013l.018-.01.025-.018.017-.01c.008-.007.017-.01.023-.015.008-.004.013-.006.02-.012.008-.006.016-.008.024-.012.006-.005.016-.007.022-.015.007-.002.012-.006.02-.012.01-.004.015-.008.023-.014.004-.003.013-.005.02-.01.007-.005.017-.01.023-.017l.018-.008c.008-.008.018-.01.024-.016l.02-.015c.01-.004.016-.006.024-.014.006 0 .013-.003.02-.01.007-.005.015-.007.02-.013.008-.004.014-.006.02-.014.01-.002.016-.004.023-.012.006-.003.015-.005.02-.013.01-.002.014-.006.02-.01.01-.004.017-.01.026-.014.005-.006.013-.01.02-.014.004-.003.016-.007.02-.013.007-.006.015-.008.022-.012.006-.006.015-.008.02-.014.01-.003.015-.01.022-.013l.022-.014.02-.01.02-.014c.007-.005.017-.01.02-.015.01-.004.018-.006.024-.012.006-.006.014-.006.02-.012.008-.005.016-.007.022-.013l.02-.012.023-.014.02-.01.023-.013c.005-.008.014-.01.02-.014l.02-.014.022-.013c.008-.006.015-.01.022-.012.007-.008.014-.01.02-.014l.022-.013c.007-.004.016-.008.02-.012.006-.006.017-.01.022-.014l.02-.01c.008-.007.014-.01.022-.013.006-.006.014-.01.02-.014.008-.006.017-.008.023-.014.007-.005.015-.007.02-.013.007-.006.014-.008.022-.012l.02-.016c.008-.003.015-.007.02-.013.01-.004.015-.006.023-.012.005-.006.014-.008.02-.012.01-.006.017-.01.02-.014.01-.005.018-.01.024-.015.008-.004.014-.006.02-.014.007 0 .016-.005.02-.01.01-.005.018-.007.027-.013l.017-.012c.01-.006.018-.008.022-.014.005 0 .008-.003.012-.005.21.65.8 1.123 1.498 1.123h2.646c.33 0 .636-.104.89-.28.006-.007.014-.01.02-.013.007-.006.017-.01.022-.014l.02-.013.022-.01c.01-.008.018-.01.022-.016l.02-.01c.008-.007.017-.01.023-.015.006-.004.014-.006.02-.012.007-.006.017-.008.022-.016.005-.002.014-.004.02-.01.006-.004.015-.008.022-.014l.02-.014c.006-.003.015-.005.02-.01.01-.005.017-.01.023-.017.008-.002.013-.006.02-.01.007-.006.017-.008.024-.014.004-.005.012-.01.018-.013.01-.006.017-.008.023-.016.008 0 .015-.003.022-.01.006-.005.015-.007.02-.013.008-.004.015-.006.022-.014.006-.002.015-.004.02-.01.008-.006.018-.008.024-.016.006-.002.014-.006.02-.012.006-.002.016-.008.022-.012l.02-.014c.01-.005.017-.007.022-.013.008-.006.014-.008.02-.012.007-.006.016-.008.022-.014.007-.003.015-.005.02-.013.01-.004.015-.008.023-.014.007-.002.014-.006.02-.01l.02-.014c.01-.005.018-.01.023-.015s.012-.004.02-.012c.006-.002.015-.008.023-.012.005-.005.012-.007.02-.013l.02-.012.022-.014c.008-.003.014-.005.02-.01l.022-.013c.008-.008.017-.01.022-.014.005-.006.015-.01.02-.014.008-.007.014-.01.022-.013.006-.006.014-.01.02-.012.007-.008.015-.01.022-.014.005-.005.015-.01.022-.013l.02-.012c.007-.006.017-.01.023-.014.005-.005.013-.007.02-.013l.02-.01.02-.014c.01-.006.015-.008.022-.01.008-.008.014-.01.02-.018l.02-.01c.008-.006.02-.01.025-.016.008-.003.015-.007.02-.013.007-.004.015-.006.02-.012.007-.006.016-.008.022-.012l.02-.014.022-.015c.004-.004.012-.006.018-.01 1.037.88 2.475 1.318 4.357 1.318 1.383 0 2.535-.223 3.46-.666l.02-.014.023-.012c.006 0 .013-.01.02-.01.01-.005.017-.013.023-.015.015-.006.025-.016.042-.025.006-.004.013-.01.022-.014.016-.004.026-.018.042-.025.006 0 .012-.007.02-.01s.012-.01.02-.013c.01-.002.015-.01.023-.014.005-.002.013-.01.02-.012.008-.003.013-.01.024-.01.005-.007.01-.01.02-.015.007-.002.014-.01.02-.012.008-.004.014-.01.02-.014.01-.005.015-.01.022-.015.006-.002.013-.008.02-.012.017-.006.028-.018.044-.025.007-.002.014-.008.02-.012.015-.006.028-.02.042-.025.016-.007.027-.02.043-.024.007-.004.012-.01.02-.012.01-.004.015-.01.023-.014.015-.008.028-.018.042-.025l.022-.014.02-.01c.024-.013.04-.028.063-.038l.02-.014c.01-.004.016-.008.022-.012.023-.012.042-.03.063-.04.01-.003.015-.007.024-.01.005-.007.012-.01.02-.013.016-.008.026-.018.043-.027.015-.008.026-.018.04-.025.008-.003.015-.01.024-.01.004-.005.012-.01.02-.017.017-.006.027-.016.042-.023.014-.006.028-.018.042-.025.01-.004.014-.01.02-.012.017-.008.027-.018.044-.027.016-.004.027-.014.045-.023l.022-.014s.015-.01.02-.013c.016-.008.028-.02.043-.025.008-.004.013-.01.02-.014.007-.002.015-.008.02-.012.01-.004.017-.01.024-.014.013-.004.025-.016.04-.025.008-.002.014-.008.023-.012.02-.012.04-.027.065-.037.006-.004.01-.01.02-.014l.02-.012c.008-.006.015-.01.022-.012.008-.006.012-.012.02-.014.01-.004.012-.008.022-.014.008-.002.013-.008.02-.012.024-.01.042-.027.064-.037.017-.008.03-.02.045-.027l.02-.01c.017-.008.028-.02.043-.027.03-.015.056-.038.086-.052l.02-.012c.01-.006.014-.01.023-.014 1.534-.725 2.438-2.053 2.7-3.97.04-.284.004-.57-.098-.833.142-.247.23-.538.23-.847 0-4.096-.746-7.848-6.154-7.848zM455.916 329.84c0-8.618-1.634-16.593-13.47-16.593-3.93 0-6.772.85-8.828 2.154l-.047.03c-.012.01-.027.016-.04.025l-.053.027c-.013.01-.03.018-.04.025l-.055.03c-.013.01-.03.017-.043.026-.018.008-.033.016-.05.027-.015.01-.033.02-.05.025-.012.01-.025.014-.035.023-.02.01-.04.02-.06.033-.01.007-.024.015-.04.022l-.053.03c-.014.01-.026.017-.04.024l-.05.03c-.015.01-.03.017-.044.024l-.05.03-.04.02c-.017.012-.036.02-.052.03-.015.01-.032.017-.048.026-.013.012-.03.018-.042.025-.018.013-.036.02-.054.032-.013.01-.028.016-.042.025l-.05.025c-.01.01-.025.016-.038.023-.018.012-.04.02-.056.033l-.044.023c-.016.01-.035.02-.05.032l-.043.023c-.017.01-.035.02-.05.025-.015.012-.033.02-.05.03-.012.01-.028.02-.04.024l-.044.025c-.016.01-.035.02-.053.028-.015.01-.03.016-.047.027-.015.01-.03.018-.047.027l-.05.027c-.014.01-.028.015-.04.024-.02.01-.036.018-.053.03l-.036.02-.058.032-.042.025c-.013.01-.03.017-.045.026l-.05.03-.052.028c-.013.01-.027.016-.04.023-.013.01-.028.018-.04.025-.02.008-.038.02-.054.03s-.034.017-.05.024c-.016.012-.032.02-.047.03-.014.01-.03.015-.044.024-.017.012-.034.018-.05.03-.014.005-.03.015-.046.022-.013.01-.027.016-.042.025l-.052.03c-.016.01-.032.017-.048.026l-.044.025-.052.03-.046.026-.04.023c-.017.012-.034.02-.05.03l-.046.024c-.015.013-.032.02-.046.028-.016.012-.035.016-.048.027-.016.008-.03.018-.045.027-.02.008-.036.016-.053.025-.013.012-.028.018-.043.03-.018.007-.034.017-.05.026l-.043.023-.047.027-.047.027c-.016.01-.033.018-.05.027l-.047.03c-.014.005-.03.015-.043.022-.016.01-.032.02-.05.028l-.02.012c-2.186-2.736-5.645-4.158-10.438-4.158-3.54 0-6.19.715-8.182 1.844l-.05.03c-.017.007-.03.017-.046.024-.015.01-.028.016-.043.025l-.05.027c-.015.01-.03.02-.05.03-.014.007-.027.017-.042.024-.017.008-.03.016-.047.027l-.05.03c-.014.007-.026.015-.04.02-.02.01-.035.02-.054.033l-.04.02c-.018.01-.033.02-.05.032l-.045.023c-.017.01-.033.02-.053.03-.014.008-.026.018-.04.025-.017.01-.03.018-.046.025l-.052.03c-.016.007-.03.017-.05.028-.013.006-.025.016-.037.023-.02.01-.036.02-.053.03-.017.008-.03.016-.044.025l-.043.023c-.02.01-.035.02-.053.03-.016.01-.03.015-.047.026-.018.01-.033.018-.048.03-.015.005-.028.015-.042.02l-.05.03-.046.026c-.016.008-.03.018-.046.027-.018.008-.033.02-.05.027-.014.008-.028.018-.042.025-.02.01-.035.02-.053.028-.014.01-.03.018-.044.027-.015.006-.03.016-.044.023-.016.01-.03.016-.045.027-.017.008-.034.02-.052.027l-.046.027c-.016.007-.03.017-.047.024l-.05.03c-.015.01-.028.02-.044.024-.02.01-.032.018-.048.03-.016.005-.03.015-.046.024l-.047.027c-.018.005-.032.017-.048.024l-.047.027c-.016.01-.03.02-.046.026l-.05.03c-.015.007-.027.015-.043.024l-.05.027-.048.027c-.013.01-.03.018-.044.025-.017.01-.033.02-.052.028-.013.008-.024.016-.038.023-.02.01-.036.02-.056.032l-.042.023-.048.03c-.015.005-.03.015-.046.024l-.048.026c-.017.008-.03.018-.048.027-.016.008-.03.018-.045.027-.018.008-.033.018-.048.03-.015.005-.028.01-.04.02-.02.01-.036.02-.053.027-.018.012-.03.02-.048.027-.015.012-.028.02-.044.027-.017.013-.03.02-.05.028-.015.01-.03.02-.045.025-.016.01-.028.02-.043.027-.017.01-.034.018-.053.03l-.043.024-.054.03c-.012.007-.024.017-.038.022-.02.01-.034.02-.05.03-.015.007-.03.017-.046.024-.016.01-.032.018-.045.027l-.054.03c-.015.007-.027.017-.043.024l-.044.026c-.018.008-.034.018-.053.03l-.044.022c-.016.01-.03.018-.046.03l-.05.028c-.015.008-.028.014-.042.025-.017.007-.03.017-.05.026-.015.01-.028.018-.045.027s-.03.018-.045.025c-.016.01-.032.018-.045.027-.02.008-.037.02-.054.03-.014.007-.028.013-.042.022l-.05.03c-.218.12-.398.263-.6.394-1.38-2.74-4.04-4.66-9.136-4.66-2.21 0-4.033.312-5.606 1-.508-.288-1.097-.458-1.726-.458h-5.498c-.724 0-1.393.223-1.947.6l-.045.023c-.016.012-.033.018-.045.027-.018.012-.033.02-.053.03-.012.01-.03.015-.04.024l-.053.027c-.014.012-.03.018-.045.027-.016.01-.032.016-.047.027s-.033.016-.048.027c-.015.01-.032.016-.048.027l-.046.026c-.014.01-.032.018-.047.027-.016.012-.03.018-.047.027l-.044.023c-.016.012-.032.02-.05.03-.015.01-.03.015-.046.024-.016.012-.033.02-.05.03-.015.01-.03.015-.043.022-.015.01-.03.02-.048.028-.015.01-.032.016-.044.025-.016.012-.034.018-.05.03l-.048.024-.043.027-.048.027c-.017.013-.032.02-.047.028-.018.01-.035.018-.052.03l-.042.022c-.015.012-.032.016-.043.027-.02.01-.036.016-.05.027-.015.008-.033.016-.048.027l-.047.03c-.015.008-.03.014-.046.02-.016.013-.03.02-.047.03-.016.01-.03.016-.046.027-.015.008-.03.016-.046.027-.016.01-.033.016-.048.025s-.03.017-.044.024c-.016.012-.034.02-.05.03-.015.01-.03.017-.046.026l-.048.027c-.013.01-.03.016-.044.027-.016.01-.035.016-.05.027-.014.01-.028.015-.04.022-.018.012-.034.018-.05.027s-.034.017-.05.028l-.046.027c-.015.01-.03.016-.047.027l-.047.027c-.015.01-.03.015-.045.024-.014.01-.03.018-.046.027-.017.013-.032.02-.05.028-.015.01-.03.016-.045.027-.015.01-.03.016-.044.023-.017.012-.033.02-.048.03-.016.01-.034.017-.05.026-.013.01-.03.014-.042.025-.017.01-.034.017-.048.028l-.047.023-.046.028c-.017.01-.034.018-.048.03-.016.007-.033.017-.05.026-.014.01-.03.016-.045.027-.016.01-.03.015-.045.026-.005.002-.01.002-.014.006-2.013-1.746-4.937-2.813-9.225-2.813-3.66 0-6.368.74-8.376 1.9-.017.007-.03.017-.048.024s-.03.018-.05.03c-.015.005-.028.015-.042.022-.017.01-.03.018-.046.025l-.052.032c-.017.008-.03.018-.045.027-.017.007-.032.017-.05.026l-.04.025-.047.026-.052.03-.048.026c-.015.008-.026.016-.04.02l-.05.032c-.018.008-.035.018-.05.027l-.042.024c-.016.01-.032.02-.048.027l-.052.032c-.015.006-.026.016-.04.023l-.05.027-.047.027-.05.03c-.013.006-.025.01-.04.02-.018.01-.035.023-.055.033-.01.006-.022.014-.037.02l-.055.03c-.013.01-.024.017-.038.024-.02.01-.035.02-.056.033l-.04.023c-.02.008-.034.018-.054.027-.01.01-.025.018-.04.023-.017.012-.033.02-.05.03l-.04.022c-.018.012-.037.02-.054.03-.016.01-.03.02-.047.026-.015.01-.03.02-.045.028-.02.01-.034.02-.053.03-.014.007-.027.015-.04.024-.015.008-.03.018-.045.023-.018.012-.035.02-.054.03-.014.01-.028.017-.04.024-.018.01-.034.02-.052.028-.013.01-.027.018-.042.023-.018.013-.036.02-.053.032-.014.012-.028.02-.046.03-.012.005-.026.015-.037.02-.02.01-.036.02-.053.03-.014.007-.03.015-.044.024-.016.01-.032.018-.05.027-.014.01-.03.02-.045.025l-.05.03c-.015.01-.03.017-.045.024-.016.012-.03.02-.048.03l-.038.02c-.02.012-.04.02-.06.033-.014.008-.024.014-.038.02-.018.01-.036.02-.054.034-.015.005-.03.013-.04.02l-.054.03c-.014.01-.028.017-.04.024l-.048.03c-.016.005-.03.015-.045.022-.017.012-.034.02-.05.03-.015.01-.028.017-.043.024l-.016.006c-.06-.443-.177-.87-.387-1.248.558-.99.858-2.22.858-3.71 0-4.315-2.354-6.6-6.803-6.6-1.357 0-2.83.226-4.053.94-.016.01-.03.017-.05.024-.015.012-.033.02-.05.033l-.04.023c-.017.01-.032.016-.048.025-.014.01-.03.018-.047.027l-.046.027c-.014.01-.03.02-.05.027l-.043.027c-.015.01-.034.02-.05.028-.015.008-.028.018-.044.025s-.03.018-.048.03c-.015.005-.03.013-.044.022l-.05.03-.044.024c-.016.01-.03.015-.045.024-.017.012-.034.02-.053.03-.013.01-.027.017-.04.024-.018.01-.033.02-.05.027-.016.012-.03.018-.044.027-.016.01-.032.016-.05.027l-.045.022c-.015.01-.03.018-.042.027l-.063.034c-.01.004-.02.012-.03.02l-.052.027-.053.032-.044.025c-.014.008-.025.018-.04.023-.017.01-.03.02-.05.03-.016.007-.032.02-.046.026-.02.008-.033.02-.05.027-.014.008-.027.018-.042.023l-.05.03c-.015.007-.034.02-.05.03l-.042.02c-.016.01-.03.02-.046.028l-.043.025c-.017.007-.034.017-.05.024l-.055.03c-.017.01-.028.02-.044.026l-.047.03c-.013.005-.027.015-.042.02-.016.012-.03.018-.05.027-.014.01-.03.018-.046.027-.017.012-.033.02-.053.03-.015.01-.028.017-.04.026-.02.008-.038.02-.055.027-.012.01-.022.016-.033.02-.02.013-.04.024-.062.034-.012.01-.02.017-.035.022l-.05.03c-.02.01-.035.02-.052.028-.014.01-.03.018-.042.025-.017.008-.033.018-.05.03-.013.005-.027.013-.04.02-.017.012-.035.02-.054.03-.014.01-.03.02-.047.028-.017.012-.034.02-.05.03-.012.003-.02.01-.03.02-.02.01-.04.02-.06.028-.015.013-.03.02-.047.028l-.046.03-.045.024c-.017.008-.03.018-.047.027-.015.007-.03.015-.046.026-.016.006-.03.014-.044.023-.02.007-.04.02-.06.032-.014.006-.023.016-.034.02l-.055.03-.04.026c-.02.01-.04.02-.056.033-.01.005-.02.01-.026.015-.02.014-.04.023-.063.033l-.045.03-.045.024-.05.03c-.017.007-.028.015-.045.024l-.05.03c-.013.005-.024.013-.035.02-.02.01-.04.022-.058.034l-.04.02c-.015.01-.032.02-.048.028-.017.008-.032.02-.05.03-.015.007-.03.017-.044.024l-.052.027c-.013.007-.026.015-.04.02-.017.012-.034.023-.053.033l-.048.027c-.012.008-.024.012-.035.02-.02.01-.042.024-.06.034-.137.078-.27.168-.4.26-.534-.334-1.16-.537-1.836-.537h-5.79c-.724 0-1.393.22-1.948.6-.014.01-.03.014-.044.023-.02.01-.035.02-.052.03-.014.01-.03.017-.042.026-.016.008-.033.014-.046.025-.016.01-.034.017-.052.028-.014.008-.03.018-.045.025-.014.012-.03.018-.046.027-.013.01-.03.018-.047.027-.015.012-.034.02-.05.03l-.042.024-.046.026c-.018.012-.032.02-.05.03-.012.01-.027.013-.04.022l-.052.03c-.014.01-.03.017-.044.026l-.052.027c-.013.01-.026.017-.04.026-.017.008-.034.018-.05.03-.015.007-.03.01-.044.022-.017.012-.034.016-.05.03-.015.01-.033.017-.047.026-.016.01-.03.014-.047.023-.015.01-.03.02-.048.027-.014.012-.03.018-.046.03-.014.01-.03.015-.043.024-.016.01-.032.016-.048.025-.015.012-.033.02-.05.03-.015.01-.03.017-.044.024-.015.012-.033.02-.048.03-.016.01-.032.015-.046.026l-.048.027-.044.025c-.016.01-.033.018-.05.027-.014.01-.028.014-.043.025-.017.008-.032.018-.05.027-.016.012-.033.016-.048.03-.014.01-.03.013-.043.022-.018.012-.034.018-.05.027l-.05.027c-.012.01-.03.016-.042.027-.016.01-.033.018-.046.027-.018.008-.033.016-.048.025l-.05.028-.047.025c-.015.012-.03.018-.047.03-.015.01-.03.015-.044.022-.014.01-.03.016-.045.025-.017.01-.032.02-.048.027l-.048.03c-.016.01-.03.017-.045.024-.02.01-.035.02-.05.032l-.046.023c-.014.01-.03.016-.044.027l-.05.027s-.03.015-.045.026l-.05.027c-.014.01-.03.016-.046.025-.015.012-.032.018-.048.03-.014.01-.03.015-.045.022l-.05.03c-.015.01-.03.017-.045.024-.013.01-.028.016-.04.025-.018.01-.037.017-.054.03l-.047.025-.045.025c-.016.01-.03.016-.045.027-.017.01-.032.016-.048.027-.016.01-.033.016-.045.025-.017.01-.035.017-.05.026-.015.012-.032.018-.046.027-.015.01-.03.018-.044.025-.016.01-.033.018-.048.03-.016.01-.032.017-.046.024l-.047.027c-.015.01-.03.017-.046.026l-.05.025c-.015.01-.03.017-.044.028-.016.01-.035.018-.05.027-.016.012-.03.018-.047.025-.014.012-.03.018-.043.027-.02.01-.038.02-.053.03-.012.01-.027.013-.042.024-.02.01-.033.02-.052.028-.013.01-.027.018-.044.027-.016.01-.034.018-.05.027-.013.01-.026.016-.04.023-.016.012-.037.02-.052.03l-.045.026c-.016.01-.03.015-.046.024-.017.012-.034.02-.05.03-.946.622-1.57 1.685-1.57 2.9v.18c-1.93-.808-4.36-1.224-7.316-1.224-1.638 0-5.06.014-7.973 1.623-.017.006-.03.016-.046.023-.017.012-.028.018-.044.027-.02.008-.036.02-.056.03l-.04.024c-.017.008-.035.02-.052.027l-.042.027c-.016.007-.03.02-.045.024l-.05.03c-.017.007-.03.017-.047.026-.017.006-.03.018-.05.027-.015.008-.028.018-.043.023l-.047.03c-.016.007-.03.017-.045.024l-.052.03c-.014.007-.027.017-.043.022-.017.012-.03.02-.05.03-.015.01-.03.02-.043.026l-.046.027c-.016.005-.03.015-.044.022l-.052.03c-.016.01-.03.02-.046.026-.02.01-.034.02-.05.027l-.044.027c-.014.006-.027.018-.04.023l-.054.03c-.01.003-.02.01-.03.017-1.57-9.648-10.37-9.686-14.822-9.686h-11.29c-.72 0-1.39.22-1.944.598l-.055.03c-.01.01-.024.013-.037.02-.017.015-.037.02-.055.034l-.038.023c-.018.013-.036.02-.054.032-.015.01-.03.014-.04.023-.015.01-.034.016-.05.027l-.048.027s-.034.015-.05.028c-.014.008-.027.016-.042.023l-.047.03c-.017.01-.033.016-.048.027-.015.008-.028.012-.04.02-.02.013-.038.022-.056.032-.012.01-.027.013-.038.022-.018.012-.038.02-.053.03-.015.01-.03.015-.044.024-.015.01-.032.018-.047.027l-.045.027c-.017.01-.034.016-.05.027l-.048.027c-.012.01-.028.018-.044.027-.015.01-.03.017-.047.026-.016.012-.032.016-.047.027s-.035.018-.05.03c-.012.007-.03.013-.042.02-.018.014-.037.02-.054.033-.028.02-.06.03-.09.053-.016.007-.032.013-.045.022-.015.01-.03.016-.045.025-.016.012-.034.02-.05.03-.014.01-.028.017-.042.026-.017.01-.034.018-.05.025-.017.012-.033.02-.048.03s-.03.015-.044.024c-.015.012-.032.018-.046.03l-.047.022c-.015.012-.032.02-.048.03-.014.01-.03.015-.047.024-.015.012-.032.018-.045.027-.018.008-.033.018-.048.027s-.033.016-.046.025l-.052.03c-.013.01-.027.013-.04.024l-.05.03-.05.025c-.014.012-.03.016-.043.025-.017.012-.034.016-.05.027-.014.01-.03.016-.043.023-.017.012-.035.02-.05.03-.016.01-.032.017-.046.028-.015.01-.03.016-.046.025-.015.012-.03.018-.047.03-.015.007-.032.015-.047.024-.016.01-.03.018-.05.027-.01.01-.025.016-.038.023-.018.012-.036.02-.055.03-.015.01-.028.017-.043.024-.015.013-.03.017-.047.028-.018.012-.033.018-.05.03-.014.01-.028.015-.043.022l-.05.03c-.014.01-.026.015-.04.022-.017.012-.037.02-.053.03-.014.01-.03.017-.044.026-.014.012-.033.018-.047.03-.017.007-.033.015-.048.024s-.03.014-.042.023c-.02.012-.04.02-.057.033-.012.008-.026.016-.04.02-.017.013-.033.022-.05.032-.014.01-.03.014-.043.02-.016.013-.033.02-.05.03l-.046.027c-.014.01-.032.018-.05.03-.014.007-.028.013-.043.024-.014.01-.033.02-.048.03l-.043.02-.048.03-.05.027c-.014.01-.028.016-.043.023-.018.012-.036.02-.055.033-.012.008-.027.014-.04.02-.016.013-.035.02-.054.032-.012.01-.023.014-.037.023-.016.01-.036.018-.053.03l-.046.024c-.013.01-.03.016-.046.025-.014.012-.032.02-.047.03-.943.618-1.57 1.687-1.57 2.9v29.868c0 1.918 1.556 3.47 3.472 3.47h6.166c.72 0 1.39-.218 1.947-.597.015-.01.03-.016.046-.025.016-.012.03-.018.045-.027.018-.01.036-.018.054-.03.01-.007.027-.015.04-.02.016-.012.036-.02.052-.033l.04-.02c.015-.012.033-.02.05-.03.014-.01.033-.017.048-.026.016-.01.033-.018.046-.027.015-.01.033-.018.047-.03l.05-.024c.014-.01.03-.018.044-.027.014-.01.03-.017.043-.024.017-.012.036-.02.054-.03.012-.01.026-.015.04-.022.016-.012.034-.02.05-.03.016-.01.032-.02.048-.028.015-.01.03-.016.046-.027l.047-.028c.013-.01.03-.014.042-.023l.052-.03c.014-.01.028-.014.042-.025.017-.01.037-.018.052-.03.014-.007.027-.013.04-.022l.054-.03c.015-.01.03-.015.042-.024.016-.01.032-.02.048-.028l.048-.027c.014-.01.028-.016.044-.027l.05-.025c.015-.012.03-.018.044-.025l.05-.03c.016-.01.032-.015.047-.026s.03-.018.047-.027l.043-.023.05-.03c.015-.01.032-.015.048-.026l.045-.027c.015-.01.03-.015.047-.026.016-.01.032-.016.048-.03.015-.007.03-.013.046-.022.016-.012.03-.02.047-.03l.044-.022c.015-.012.033-.018.05-.03.015-.007.032-.017.047-.026l.05-.027c.013-.01.032-.018.048-.03.013-.007.028-.013.038-.02.02-.01.04-.02.055-.03.015-.01.032-.017.048-.028.013-.01.03-.017.042-.026.017-.008.033-.014.046-.023.016-.01.034-.017.05-.026.015-.012.033-.018.05-.03.015-.007.028-.015.043-.024l.05-.03c.014-.01.028-.015.043-.024.014-.01.03-.016.046-.027.013-.01.03-.017.044-.028.018-.008.033-.016.048-.025.015-.012.035-.018.05-.03.014-.01.03-.015.044-.024.016-.01.033-.016.047-.027.02-.01.036-.018.05-.027.015-.01.03-.02.043-.026.016-.008.033-.016.046-.025l.05-.03.044-.025.053-.03c.01-.007.025-.015.038-.02.016-.014.035-.02.052-.033.016-.006.032-.016.046-.025.013-.01.03-.014.045-.023.017-.014.034-.02.05-.03.015-.01.03-.015.045-.024.017-.014.034-.02.05-.03.014-.01.028-.013.04-.022l.052-.03c.016-.01.032-.017.048-.028.014-.012.03-.016.045-.023.015-.01.03-.018.046-.027.015-.01.032-.016.045-.025l.055-.03.04-.026c.017-.01.033-.02.048-.026.015-.012.03-.016.044-.03.018-.01.035-.015.052-.024.013-.01.03-.018.045-.027s.03-.018.046-.025c.016-.012.033-.018.05-.03.945-.618 1.57-1.683 1.57-2.897v-5.036c2.213-.098 5.12-.488 7.58-2.074l.048-.027c.016-.01.03-.016.045-.023.017-.012.035-.02.054-.03.012-.01.026-.017.04-.024.017-.01.035-.02.053-.033.013-.008.026-.014.038-.02.018-.01.034-.017.052-.028.015-.012.03-.02.05-.03.012-.01.028-.017.042-.024.016-.007.03-.017.047-.024.014-.01.028-.018.044-.027l.052-.03.04-.023c.017-.012.035-.018.052-.027l.046-.03s.03-.017.046-.024c.018-.012.03-.018.046-.027l.048-.028c.018-.01.033-.018.048-.03.014-.007.028-.01.042-.02.018-.012.036-.02.055-.03.013-.01.026-.017.038-.024l.05-.03s.033-.02.05-.026c.014-.01.03-.016.044-.027.008-.004.02-.006.027-.016-.62 1.386-.974 2.954-.974 4.704 0 6.072 3.86 9.553 10.593 9.553 2.185 0 3.94-.334 5.35-.832.43.188.9.29 1.4.29h5.54c.69 0 1.334-.202 1.872-.552.014-.012.03-.016.044-.025l.048-.03c.016-.01.03-.015.05-.026l.044-.025c.017-.012.034-.018.05-.03l.04-.02c.018-.012.035-.02.055-.03.01-.01.025-.02.038-.024.02-.012.035-.018.05-.03.017-.007.035-.015.05-.026l.045-.025c.016-.01.033-.02.05-.027.014-.01.03-.016.042-.027.017-.01.034-.016.05-.025.014-.01.03-.018.044-.027l.052-.027c.013-.01.03-.02.044-.028.017-.012.033-.02.05-.03.016-.007.028-.015.042-.022.015-.008.032-.018.048-.025.016-.012.033-.02.05-.03s.03-.02.044-.026c.018-.01.033-.02.048-.03.016-.008.03-.014.044-.023l.05-.03c.016-.01.03-.015.045-.024.02-.008.034-.018.05-.027l.042-.025c.015-.01.033-.017.048-.026.016-.012.033-.018.046-.027l.05-.027c.015-.01.03-.016.046-.027.014-.01.03-.018.047-.027.014-.01.03-.016.048-.025.013-.01.03-.015.043-.022.017-.012.034-.02.052-.03.014-.01.027-.02.04-.024l.05-.03c.014-.007.03-.017.046-.024l.047-.03.05-.028c.013-.008.027-.016.043-.023.016-.013.033-.017.048-.028.015-.01.03-.018.044-.023.017-.013.034-.02.05-.03l.045-.027c.016-.012.033-.018.048-.027.016-.008.032-.018.046-.027l.054-.03.04-.023c.015-.012.033-.018.05-.027.014-.01.03-.018.044-.025.013-.01.027-.014.04-.023 1.293 1.414 3.384 2.307 6.823 2.307 2.385 0 4.6-.364 4.693-.382.504-.084.957-.28 1.357-.55.556.378 1.226.597 1.947.597h5.79c.722 0 1.39-.22 1.947-.598.014-.01.032-.016.048-.025.015-.012.03-.018.046-.03l.05-.024c.013-.01.027-.016.042-.023.017-.012.035-.02.05-.033.016-.008.028-.012.04-.02.018-.012.037-.02.053-.03.014-.01.028-.015.043-.026l.05-.027s.03-.02.045-.026c.015-.01.032-.02.047-.027.016-.012.034-.02.05-.03l.04-.022c.017-.012.037-.02.055-.03.012-.01.026-.015.038-.022.017-.012.035-.02.054-.03.016-.01.03-.02.046-.028.013-.01.032-.016.048-.03l.044-.022c.012-.008.03-.014.042-.025l.055-.03c.014-.01.03-.017.043-.024.016-.01.03-.016.046-.025l.05-.03c.015-.01.03-.018.046-.03.015-.007.03-.013.044-.022l.05-.03c.014-.007.03-.015.043-.024.014-.01.032-.016.047-.027.016-.01.032-.016.046-.025.016-.01.033-.016.047-.025.017-.014.035-.02.053-.03.012-.01.027-.015.042-.026s.03-.017.048-.026l.044-.023.05-.03c.015-.008.03-.014.044-.023l.05-.03c.014-.007.03-.013.045-.024.016-.01.035-.016.05-.03.015-.007.03-.013.045-.022.016-.01.033-.017.048-.03.015-.006.03-.014.044-.023l.047-.027c.016-.008.032-.018.047-.027.016-.01.033-.018.05-.027.013-.01.03-.018.046-.027.013-.01.028-.017.04-.024l.054-.03c.014-.01.03-.017.046-.028.014-.01.03-.016.044-.025.014-.008.03-.014.044-.023l.05-.027c.02-.012.034-.018.052-.03l.04-.022.056-.03c.014-.01.027-.016.04-.025.013-.01.03-.016.044-.025l.052-.03c.016-.01.032-.015.047-.024.016-.012.03-.018.047-.03.016-.01.03-.015.046-.024.016-.01.032-.016.047-.027l.023-.01c2.27 1.898 5.43 2.842 9.587 2.842 3.742 0 6.723-.723 8.93-2.162l.048-.027c.014-.01.03-.016.045-.025.013-.01.03-.014.043-.023.017-.012.032-.018.048-.03.016-.007.037-.02.054-.03.012-.008.027-.014.04-.02l.047-.03.045-.025c.033-.02.067-.037.1-.06.032-.017.065-.032.096-.052.01-.01.026-.016.04-.023.015-.01.034-.018.05-.03.03-.02.064-.034.095-.054.014-.01.027-.014.042-.02l.05-.03.05-.027s.03-.02.045-.028l.045-.027c.014-.008.03-.018.046-.023.016-.012.034-.02.05-.03.014-.01.03-.015.044-.024.013-.012.03-.018.046-.03.015-.007.032-.015.047-.024.016-.01.032-.018.05-.027.015-.01.03-.016.046-.027s.033-.018.05-.027c.013-.01.03-.016.043-.025.015-.012.03-.018.048-.027.03-.02.064-.034.092-.054l.05-.027c.03-.02.064-.036.094-.056.012-.008.03-.016.043-.023l.052-.03c.013-.006.025-.014.04-.02.014-.01.034-.02.05-.03.015-.01.03-.016.047-.027.014-.012.03-.016.044-.027.017-.008.035-.018.053-.03 0 0 .006-.003.01-.003.316 1.586 1.695 2.783 3.374 2.783h5.795c.722 0 1.39-.22 1.947-.598.013-.01.03-.016.043-.025.017-.012.034-.018.05-.03l.046-.024c.015-.01.03-.017.046-.024.015-.012.034-.02.05-.03.013-.01.03-.015.044-.022.015-.012.032-.02.048-.03.014-.01.03-.015.047-.026.013-.01.03-.018.047-.027.015-.01.03-.017.047-.024l.045-.03c.016-.01.03-.017.046-.024l.044-.025c.017-.012.037-.02.055-.03.01-.01.025-.015.038-.022.017-.014.035-.02.054-.03.015-.01.03-.02.045-.028.015-.01.032-.016.048-.027l.044-.027c.014-.008.03-.012.042-.023l.055-.03c.014-.01.03-.017.04-.024l.05-.025c.014-.01.03-.017.045-.026.018-.012.034-.02.05-.03.015-.01.03-.017.046-.024l.047-.03.043-.024s.032-.016.05-.027c.015-.01.032-.017.047-.026.015-.012.03-.018.045-.03.016-.01.032-.015.05-.024.014-.01.03-.016.044-.025.015-.01.034-.02.047-.03.017-.01.034-.017.05-.026.013-.01.03-.017.046-.026.015-.01.03-.016.045-.025.017-.01.032-.017.05-.03.015-.008.03-.014.046-.025l.048-.03c.014-.007.03-.013.045-.022.015-.012.032-.018.046-.03.016-.007.03-.015.046-.024l.048-.028.048-.027c.014-.01.03-.018.046-.027l.046-.027.044-.022c.018-.012.036-.02.053-.03.014-.01.03-.017.045-.028.014-.01.03-.016.044-.025.015-.008.03-.014.045-.023l.05-.027c.015-.012.033-.018.052-.03.01-.007.026-.015.04-.022.017-.012.036-.02.054-.03.012-.01.03-.017.044-.028.015-.008.03-.014.042-.025.018-.01.033-.016.046-.02.016-.015.035-.022.052-.032.016-.012.033-.018.047-.03.016-.01.03-.015.045-.024.016-.01.03-.016.046-.027l.05-.027c.015-.01.028-.016.045-.025l.046-.025c.005-.006.015-.01.023-.016.456 1.383 1.742 2.385 3.28 2.385h5.79c.72 0 1.392-.22 1.946-.6.014-.01.03-.015.046-.024.015-.012.032-.018.046-.03.015-.007.036-.015.05-.024.013-.01.028-.016.042-.023.018-.013.036-.022.053-.034.01-.008.026-.012.04-.02.017-.012.034-.02.05-.03.015-.01.033-.015.048-.026.013-.01.028-.018.044-.027s.033-.018.05-.03c.014-.005.03-.015.043-.022l.052-.03c.012-.01.027-.014.04-.023.016-.01.034-.018.05-.03l.043-.02c.017-.014.035-.02.052-.03.017-.01.03-.02.046-.028.013-.01.03-.017.046-.028.015-.01.033-.018.05-.027.014-.01.027-.014.042-.023.015-.012.033-.018.05-.03.013-.01.03-.015.044-.024l.048-.027c.016-.007.03-.015.045-.024.018-.012.037-.02.053-.03.013-.01.028-.017.043-.024l.05-.03c.014-.007.03-.015.04-.024.017-.01.033-.016.048-.027.02-.01.035-.015.05-.024.016-.012.032-.018.047-.03.016-.01.032-.015.05-.024.013-.01.03-.016.045-.025.014-.014.032-.02.048-.03.013-.01.03-.015.042-.022l.052-.03c.012-.01.03-.015.044-.024.017-.01.032-.015.048-.028.016-.008.032-.014.048-.025l.047-.03c.014-.007.03-.013.045-.022.017-.012.033-.02.05-.03.012-.007.027-.015.04-.024.02-.01.034-.015.05-.024.016-.01.033-.018.046-.03l.048-.026.05-.027c.013-.01.028-.016.04-.023.018-.012.037-.02.055-.03.013-.01.03-.017.046-.028.015-.01.03-.016.042-.023.016-.01.032-.017.048-.026.015-.01.032-.018.048-.027.015-.012.033-.018.05-.03l.043-.024c.016-.01.032-.018.05-.03.016-.007.03-.015.045-.026.016-.008.03-.014.046-.025.014-.01.028-.016.043-.02.018-.013.034-.022.05-.032.018-.012.034-.018.05-.03.016-.01.03-.015.045-.024.015-.012.03-.016.044-.023.017-.014.035-.02.05-.03l.045-.026.047-.025c.016-.01.034-.018.05-.027.003-.004.006-.004.01-.008 2.054 1.738 5.1 2.945 9.66 2.945 3.348 0 6.066-.664 8.163-1.965.015-.01.03-.018.046-.027.018-.012.035-.018.053-.03.012-.007.023-.015.038-.02.015-.01.03-.02.048-.028.018-.012.036-.02.053-.03.013-.01.027-.017.04-.026l.052-.027c.014-.01.028-.02.04-.026l.05-.027c.016-.008.032-.018.047-.027.015-.008.032-.02.048-.027l.045-.027c.014-.008.03-.014.045-.023.015-.012.033-.018.048-.03l.044-.022c.016-.01.033-.02.05-.028.015-.012.034-.018.05-.027.014-.012.028-.02.044-.027l.045-.027.046-.026c.016-.008.034-.016.05-.027.015-.008.03-.016.045-.027.02-.008.034-.016.047-.025.014-.008.03-.014.043-.023.02-.01.038-.023.055-.033.014-.01.028-.017.042-.022.014-.01.03-.018.044-.03.02-.007.037-.017.055-.026.013-.01.028-.016.044-.025.014-.01.03-.018.046-.027l.047-.027c.014-.01.03-.018.045-.027.015-.008.032-.016.048-.027.017-.01.033-.017.048-.028.015-.01.03-.016.043-.02.017-.013.033-.024.052-.034.01-.008.024-.012.037-.02.018-.01.038-.022.055-.034.016-.01.03-.016.045-.023.015-.007.028-.015.044-.024l.052-.03.044-.024c.014-.01.028-.016.042-.023.02-.013.038-.022.057-.036.014-.006.03-.016.044-.023.013-.01.03-.015.046-.026l.044-.027.05-.025c.014-.01.03-.02.046-.027.016-.012.03-.016.048-.027l.043-.025c.015-.008.03-.018.05-.027.012-.008.028-.016.044-.025l.052-.028c.014-.01.027-.016.042-.025l.05-.03c.016-.007.028-.017.043-.022.017-.012.032-.02.05-.03.015-.01.03-.015.044-.022.016-.01.03-.02.048-.03.02-.01.036-.02.052-.026.015-.01.028-.016.043-.027.016-.012.033-.018.052-.03.01-.007.025-.015.038-.02l.054-.03c.012-.01.025-.015.04-.024l.054-.03c.017-.007.03-.017.047-.026.014-.01.03-.018.046-.027l.043-.023c.017-.012.032-.018.05-.03l.042-.022.05-.03c.018-.01.034-.02.048-.026.015-.01.03-.016.044-.025l.05-.027c.016-.012.03-.018.044-.027.018-.01.033-.02.048-.03l.045-.022c.016-.007.036-.02.05-.03l.014-.006c2.29 2.77 5.87 4.125 10.87 4.125 3.026 0 5.55-.476 7.572-1.415.018-.01.03-.018.045-.025.02-.01.033-.02.05-.03.016-.007.027-.017.043-.024.052-.023.09-.057.14-.082.035-.014.062-.04.095-.053.018-.007.03-.02.046-.026.02-.006.033-.018.05-.027.015-.006.028-.016.044-.025.018-.008.032-.02.052-.03.017-.005.027-.017.046-.024.016-.008.03-.02.047-.03.015-.005.025-.015.043-.022.018-.01.03-.02.047-.03.02-.007.03-.017.048-.024.034-.016.058-.037.09-.053.02-.01.033-.02.05-.028.034-.018.06-.04.093-.055.02-.008.03-.02.048-.025.016-.008.03-.02.046-.03.034-.015.06-.036.094-.052.018-.008.032-.02.05-.027.014-.006.026-.02.042-.023.018-.01.03-.02.05-.03.018-.007.03-.017.048-.028.018-.006.028-.016.046-.025.014-.008.027-.02.042-.025.053-.023.09-.057.144-.082.017-.006.028-.02.05-.025.015-.008.024-.02.043-.03.05-.02.09-.054.14-.077.018-.008.032-.02.05-.03.017-.005.03-.015.043-.024.036-.016.063-.04.097-.055.016-.01.03-.02.046-.028.014-.008.027-.018.044-.025s.03-.02.048-.025c.016-.01.03-.02.047-.027.033-.016.06-.04.093-.057.018-.006.03-.02.046-.025.032-.016.057-.037.09-.053s.06-.04.095-.055c.035-.016.062-.037.095-.053.034-.016.063-.04.096-.055.03-.016.058-.04.09-.053.02-.008.03-.02.05-.03.015-.005.028-.02.043-.024.02-.008.03-.02.05-.025.016-.01.028-.02.046-.027.015-.008.027-.02.042-.027.07-.032.123-.075.19-.108.017-.006.028-.018.044-.027.02-.006.03-.016.05-.027.017-.008.03-.018.044-.025.02-.01.03-.02.05-.025.016-.012.03-.02.045-.027.02-.007.03-.02.05-.024.032-.018.06-.04.093-.055.016-.01.03-.02.044-.026.035-.018.063-.04.098-.055.015-.01.026-.02.04-.026.035-.016.064-.04.098-.055.066-.032.12-.077.187-.108.017-.01.03-.02.046-.027.02-.008.03-.02.048-.027 3.36-1.54 5.34-4.36 5.91-8.434.085-.605.01-1.215-.214-1.768.323-.505.506-1.118.506-1.775z"/><path fill="#DF5244" d="M77.926 309.12H65.47v29.87h12.416c9.247 0 12.83-4.793 12.83-15.084 0-10.705-3.374-14.785-12.79-14.785zm-.832 24.743h-5.458v-19.62h4.79c7.167 0 8.042 1.583 8.042 9.706 0 7.622-1.375 9.913-7.374 9.913zM104.25 316.494c-9.08 0-10.747 4.996-10.747 11.287 0 9.417 3.706 11.75 10.5 11.75 5.955 0 9.29-1.792 9.996-6.833h-5.917c-.584 1.67-1.915 2.084-4.124 2.084-3.25 0-4.29-1-4.5-5.165h14.79c0-9.54-2.292-13.12-10-13.12zm-4.748 9.455c.21-3.54 1.083-4.71 4.457-4.71 2.665 0 4.25.71 4.5 4.71h-8.958zM119.204 314.824v2.21h-3.207v4.665h3.207v17.29h5.793V321.7h3.957v-4.665h-3.957v-1.04c0-1.587 0-2.587 2.082-2.587.582 0 1.997.086 1.997.086v-4.5s-1.622-.25-3.413-.25c-5.25 0-6.46 2.207-6.46 6.08zM141.283 316.494c-9.08 0-10.748 4.996-10.748 11.287 0 9.417 3.707 11.75 10.5 11.75 5.955 0 9.29-1.792 9.997-6.833h-5.917c-.583 1.67-1.914 2.084-4.123 2.084-3.25 0-4.29-1-4.5-5.165h14.79c0-9.54-2.292-13.12-10-13.12zm-4.75 9.455c.21-3.54 1.085-4.71 4.46-4.71 2.664 0 4.25.71 4.5 4.71h-8.96zM168.193 316.494c-4.04 0-5.75 1.248-7.333 3.37v-2.83h-5.498v21.956h5.792v-10.418c0-5.164.458-7.332 4.58-7.332 3.71 0 3.75 1.752 3.75 5.125v12.625h5.79v-13.414c0-6.666-1.458-9.082-7.08-9.082zM193.687 326.072l-5.415-1.29c-1.835-.458-2.418-1-2.418-2.042 0-1.25.71-1.957 3.75-1.957 2.666 0 3.333.54 3.623 2.5h5.793c-.293-5.33-3.958-6.79-9.332-6.79-7 0-9.623 2.458-9.623 6.872 0 3.875 1.958 5.25 5.165 6.04l6.083 1.46c1.998.54 2.582 1 2.582 2.25 0 1.54-1.042 2.125-4.082 2.125-3.125 0-4.417-.625-4.625-3h-5.79c.25 5.414 4.708 7.29 10.372 7.29 6 0 9.916-2.083 9.916-7.25 0-3.708-2-5.245-6-6.208zM213.055 316.494c-9.08 0-10.747 4.996-10.747 11.287 0 9.417 3.707 11.75 10.5 11.75 5.954 0 9.288-1.792 9.995-6.833h-5.917c-.582 1.67-1.914 2.084-4.123 2.084-3.248 0-4.29-1-4.498-5.165h14.788c0-9.54-2.29-13.12-9.998-13.12zm-4.75 9.455c.21-3.54 1.083-4.71 4.458-4.71 2.667 0 4.25.71 4.5 4.71h-8.958zM248.6 311.562c-3.313 0-5.142 1.707-5.142 5.432 0 4.395 2.53 5.434 5.12 5.434 3.274 0 5.178-1.648 5.178-5.434 0-3.725-1.846-5.432-5.156-5.432zm.016 8.63c-1.787 0-2.436-.804-2.436-3.198 0-2.373.648-3.195 2.42-3.195 1.825 0 2.434.86 2.434 3.175 0 2.433-.667 3.216-2.418 3.216zM256.08 310.796v1.04h-1.466v2.198h1.465v8.137h2.645v-8.136h1.808v-2.197h-1.808v-.492c0-.744 0-1.215.95-1.215.268 0 .912.037.912.037v-2.115s-.74-.12-1.56-.12c-2.397 0-2.948 1.042-2.948 2.864zM242.482 328.962h-2.645v2.55h-1.315v2.196h1.315v4.473c0 2.786 0 3.825 2.475 3.825.97 0 1.884-.158 1.884-.158v-2.02s-.25.04-.648.04c-1.065 0-1.065-.274-1.065-1.726v-4.433h1.714v-2.195h-1.714v-2.55zM251.41 331.257c-1.027 0-2.226.176-2.855 1.195v-4.666h-2.647v14.06h2.647v-5.665c0-1.96.36-2.687 2.11-2.687 1.696 0 1.696.666 1.696 3.02v5.333h2.646v-5.824c0-3.274-.607-4.765-3.597-4.765zM261.688 331.257c-4.152 0-4.912 2.354-4.912 5.316 0 4.43 1.695 5.527 4.796 5.527 2.723 0 4.247-.842 4.568-3.215h-2.703c-.265.785-.873.98-1.884.98-1.482 0-1.96-.473-2.057-2.43h6.757c0-4.49-1.045-6.178-4.565-6.178zm-2.172 4.45c.097-1.663.495-2.214 2.037-2.214 1.22 0 1.942.332 2.057 2.215h-4.094zM296.678 309.367h-11.29v29.87h6.166v-10.915h5.79c5.917 0 10.958-1.127 10.958-9.582 0-8.79-5.417-9.373-11.624-9.373zm-1.247 13.83h-3.876v-8.707h4.25c5.166 0 6.25.627 6.25 4 0 4.21-1.668 4.707-6.623 4.707zM320.67 316.742c-5.912 0-9.16 1.54-9.453 7.207h5.456c.292-1.876.875-2.544 3.75-2.544 2.708 0 3.75.584 3.75 2.625v1.335l-7.248 1.123c-3.21.502-6.375 2.332-6.375 7.207 0 3.75 1.875 6.084 7.122 6.084 3.5 0 5.625-1.044 6.75-2.212v1.67h5.542v-16.082c0-4.79-3.21-6.414-9.293-6.414zm3.502 14.123c0 2.705-.875 4.623-4.415 4.623-2.585 0-3.417-.918-3.417-2.584 0-2.332 1.583-2.79 3.79-3.125l4.042-.665v1.75zM341.5 311.867h-5.792v5.416h-2.874v4.666h2.874v9.497c0 5.914 0 8.123 5.415 8.123 2.126 0 4.128-.332 4.128-.332v-4.29s-.543.08-1.418.08c-2.33 0-2.33-.583-2.33-3.665v-9.414h3.75v-4.667h-3.75v-5.416zM349.123 317.283h5.792v21.955h-5.792zM351.998 308.785c-2.71 0-3.29.957-3.29 3.123s.58 3.082 3.29 3.082c2.707 0 3.333-.916 3.333-3.082s-.625-3.123-3.332-3.123zM369.66 316.742c-9.08 0-10.75 4.996-10.75 11.287 0 9.415 3.71 11.75 10.5 11.75 5.957 0 9.29-1.794 9.998-6.833h-5.916c-.583 1.666-1.915 2.082-4.123 2.082-3.25 0-4.292-1-4.5-5.165h14.788c0-9.543-2.292-13.123-9.998-13.123zm-4.75 9.455c.21-3.54 1.083-4.707 4.46-4.707 2.664 0 4.25.707 4.5 4.707h-8.96zM396.57 316.742c-4.04 0-5.75 1.248-7.333 3.373v-2.832h-5.498v21.955h5.79V328.82c0-5.162.458-7.33 4.58-7.33 3.712 0 3.75 1.752 3.75 5.123v12.625h5.79v-13.414c0-6.666-1.457-9.082-7.08-9.082zM418.398 321.49c2.958 0 3.666 1.082 4.124 3.21h5.791c-.586-5.376-3.29-7.958-9.625-7.958-8.623 0-10.707 4.748-10.707 11.746 0 6.375 1.71 11.29 10.418 11.29 7.248 0 9.455-3.415 9.915-8.33h-5.79c-.168 2.206-1.252 3.58-4.417 3.58-2.83 0-4.167-1.083-4.167-6.75 0-5.663 1.335-6.788 4.458-6.788zM441.14 335.03c-3.25 0-4.288-1-4.498-5.165h14.788c0-9.543-2.29-13.123-9.998-13.123-9.082 0-10.747 4.996-10.747 11.287 0 9.415 3.706 11.75 10.498 11.75 5.956 0 9.288-1.794 9.996-6.833h-5.916c-.582 1.666-1.916 2.082-4.124 2.082zm0-13.54c2.667 0 4.25.707 4.5 4.707h-8.958c.21-3.54 1.082-4.707 4.458-4.707z"/><path fill="#FFF" d="M78.94 309.095H66.485v29.873H78.9c9.247 0 12.83-4.793 12.83-15.082 0-10.707-3.373-14.79-12.79-14.79zm-.833 24.748H72.65v-19.62h4.79c7.167 0 8.04 1.583 8.04 9.704 0 7.625-1.375 9.916-7.373 9.916zM105.266 316.472c-9.084 0-10.75 4.996-10.75 11.29 0 9.413 3.708 11.745 10.5 11.745 5.955 0 9.29-1.79 9.996-6.83h-5.914c-.583 1.666-1.917 2.08-4.126 2.08-3.248 0-4.288-.998-4.498-5.164h14.79c0-9.54-2.292-13.12-9.998-13.12zm-4.752 9.455c.21-3.54 1.085-4.71 4.458-4.71 2.668 0 4.25.71 4.5 4.71h-8.958zM120.218 314.804v2.207h-3.207v4.67h3.208v17.288h5.79v-17.29h3.96v-4.667h-3.96v-1.04c0-1.582 0-2.582 2.086-2.582.58 0 1.997.084 1.997.084v-4.5s-1.623-.248-3.415-.248c-5.248 0-6.457 2.207-6.457 6.08zM142.296 316.472c-9.08 0-10.747 4.996-10.747 11.29 0 9.413 3.706 11.745 10.497 11.745 5.956 0 9.29-1.79 9.998-6.83h-5.915c-.583 1.666-1.917 2.08-4.124 2.08-3.25 0-4.29-.998-4.5-5.164h14.79c0-9.54-2.29-13.12-10-13.12zm-4.748 9.455c.208-3.54 1.082-4.71 4.458-4.71 2.665 0 4.25.71 4.5 4.71h-8.958zM169.207 316.472c-4.042 0-5.75 1.248-7.332 3.373v-2.834h-5.498v21.958h5.79v-10.416c0-5.166.457-7.334 4.582-7.334 3.71 0 3.748 1.75 3.748 5.127v12.623h5.79v-13.416c0-6.666-1.457-9.08-7.08-9.08zM194.7 326.052l-5.415-1.29c-1.833-.458-2.415-1-2.415-2.042 0-1.252.707-1.96 3.746-1.96 2.668 0 3.334.544 3.626 2.5h5.79c-.29-5.33-3.956-6.788-9.33-6.788-7 0-9.625 2.457-9.625 6.873 0 3.875 1.96 5.248 5.166 6.04l6.083 1.458c2 .543 2.585 1 2.585 2.25 0 1.54-1.042 2.125-4.084 2.125-3.123 0-4.416-.627-4.624-3h-5.792c.25 5.414 4.708 7.29 10.374 7.29 6 0 9.915-2.083 9.915-7.25 0-3.706-2-5.247-6-6.206zM214.07 316.472c-9.083 0-10.75 4.996-10.75 11.29 0 9.413 3.708 11.745 10.5 11.745 5.956 0 9.29-1.79 9.997-6.83h-5.915c-.583 1.666-1.915 2.08-4.124 2.08-3.25 0-4.29-.998-4.498-5.164h14.788c0-9.54-2.29-13.12-10-13.12zm-4.75 9.455c.208-3.54 1.083-4.71 4.458-4.71 2.665 0 4.25.71 4.5 4.71h-8.958zM249.06 311.55c-3.31 0-5.138 1.707-5.138 5.434 0 4.395 2.53 5.434 5.12 5.434 3.273 0 5.178-1.648 5.178-5.434 0-3.727-1.848-5.434-5.16-5.434zm.02 8.633c-1.788 0-2.435-.81-2.435-3.2 0-2.372.646-3.194 2.416-3.194 1.83 0 2.437.862 2.437 3.175 0 2.433-.664 3.218-2.418 3.218zM256.54 310.787v1.04h-1.464v2.196h1.464v8.14h2.647v-8.14h1.81v-2.195h-1.81v-.492c0-.746 0-1.215.952-1.215.265 0 .91.038.91.038v-2.117s-.74-.116-1.56-.116c-2.397 0-2.95 1.04-2.95 2.863zM242.946 328.953H240.3v2.55h-1.313v2.196h1.313v4.472c0 2.785 0 3.824 2.475 3.824.97 0 1.886-.158 1.886-.158v-2.02s-.248.04-.647.04c-1.065 0-1.065-.276-1.065-1.728v-4.432h1.714V331.5h-1.714v-2.547zM251.872 331.248c-1.027 0-2.227.176-2.855 1.197v-4.67h-2.646v14.063h2.647v-5.666c0-1.963.363-2.69 2.115-2.69 1.692 0 1.692.67 1.692 3.022v5.334h2.646v-5.822c0-3.278-.61-4.768-3.598-4.768zM262.15 331.248c-4.148 0-4.912 2.352-4.912 5.314 0 4.432 1.695 5.53 4.8 5.53 2.72 0 4.243-.843 4.566-3.218h-2.702c-.27.787-.876.982-1.886.982-1.483 0-1.96-.473-2.055-2.432h6.76c0-4.49-1.05-6.176-4.57-6.176zm-2.17 4.45c.095-1.665.493-2.216 2.036-2.216 1.217 0 1.94.334 2.057 2.217h-4.093zM297.693 309.343h-11.29v29.873h6.166v-10.914h5.79c5.914 0 10.956-1.127 10.956-9.584 0-8.79-5.416-9.375-11.623-9.375zm-1.25 13.834h-3.874v-8.707h4.247c5.168 0 6.25.623 6.25 3.998 0 4.21-1.667 4.71-6.623 4.71zM321.686 316.72c-5.915 0-9.164 1.54-9.455 7.205h5.456c.294-1.873.877-2.54 3.75-2.54 2.708 0 3.75.583 3.75 2.624v1.33l-7.25 1.128c-3.207.5-6.372 2.332-6.372 7.205 0 3.75 1.875 6.082 7.124 6.082 3.498 0 5.622-1.04 6.748-2.207v1.668h5.54v-16.082c0-4.79-3.207-6.414-9.29-6.414zm3.5 14.123c0 2.705-.876 4.623-4.416 4.623-2.584 0-3.417-.918-3.417-2.582 0-2.334 1.585-2.793 3.79-3.125l4.044-.67v1.753zM342.514 311.845h-5.79v5.414h-2.876v4.665h2.876v9.5c0 5.916 0 8.125 5.414 8.125 2.126 0 4.126-.334 4.126-.334v-4.29s-.544.08-1.418.08c-2.332 0-2.332-.58-2.332-3.665v-9.415h3.75v-4.666h-3.75v-5.415zM350.137 317.26h5.79v21.956h-5.79zM353.012 308.76c-2.71 0-3.292.962-3.292 3.126 0 2.166.583 3.082 3.292 3.082 2.705 0 3.33-.916 3.33-3.082 0-2.164-.625-3.125-3.33-3.125zM370.673 316.72c-9.08 0-10.748 4.998-10.748 11.29 0 9.413 3.706 11.745 10.498 11.745 5.957 0 9.292-1.79 9.998-6.83h-5.914c-.583 1.666-1.915 2.08-4.125 2.08-3.247 0-4.288-.998-4.498-5.164h14.79c0-9.54-2.29-13.12-10-13.12zm-4.75 9.457c.21-3.543 1.084-4.71 4.458-4.71 2.667 0 4.25.71 4.5 4.71h-8.956zM397.583 316.72c-4.04 0-5.75 1.248-7.332 3.375v-2.836h-5.497v21.956h5.79V328.8c0-5.164.46-7.332 4.583-7.332 3.71 0 3.748 1.75 3.748 5.125v12.623h5.793V325.8c0-6.666-1.46-9.08-7.084-9.08zM419.41 321.468c2.96 0 3.667 1.082 4.124 3.207h5.793c-.585-5.375-3.293-7.955-9.623-7.955-8.625 0-10.708 4.748-10.708 11.746 0 6.375 1.708 11.29 10.415 11.29 7.25 0 9.457-3.415 9.917-8.33h-5.793c-.166 2.208-1.25 3.58-4.414 3.58-2.832 0-4.168-1.08-4.168-6.747s1.336-6.792 4.46-6.792zM442.154 335.005c-3.25 0-4.29-.998-4.498-5.164h14.788c0-9.54-2.29-13.12-10-13.12-9.08 0-10.747 4.998-10.747 11.29 0 9.413 3.708 11.745 10.5 11.745 5.956 0 9.29-1.79 9.997-6.83h-5.916c-.584 1.666-1.915 2.08-4.124 2.08zm0-13.537c2.667 0 4.25.71 4.5 4.71h-8.958c.21-3.544 1.084-4.71 4.458-4.71z"/></svg>