<svg xmlns="http://www.w3.org/2000/svg" width="565" height="414" viewBox="0 0 565 414"><path fill="#1A1113" d="M534.895 296.528c0 9.982-8.448 20.11-18.454 20.11H56.27c-10.006 0-18.12-8.095-18.12-18.08V105.456c0-9.983 8.114-18.077 18.12-18.077h460.507c10.004 0 18.12 8.094 18.12 18.077v191.073z"/><path fill="#1A1113" d="M418.588 310.612c0 8.44-19.147 28.11-29.064 28.11H161.108c-9.916 0-17.955-6.84-17.955-15.783V87.376s12.336-36.383 26.934-36.383h221.506c14.125 0 26.995 11.057 26.995 24.316v235.302z"/><path fill="#F7F5F6" stroke="#F7F5F6" stroke-miterlimit="10" d="M409.61 292.534c0 9.982-7.683 18.078-17.158 18.078H189.43c-9.476 0-17.158-8.096-17.158-18.078V78.622c0-9.984 7.683-18.077 17.157-18.077H392.45c9.476 0 17.158 8.093 17.158 18.077v213.912z"/><path fill="#1A1113" d="M292.358 135.49c0 6.914-1.403 13.502-3.938 19.494-7.605 17.98-25.404 30.594-46.15 30.594-27.664 0-50.09-22.425-50.09-50.09 0-27.663 22.426-50.088 50.09-50.088 27.664 0 50.088 22.425 50.088 50.09z"/><path fill="#1A1113" d="M387.54 275.863c.163-3.007-103.85-126.794-103.85-126.794l-31.955 23.822s121.588 114.146 126.063 113.26c6.103-1.21 9.508-6.027 9.743-10.29z"/><ellipse fill="#1A1113" cx="221.428" cy="264.289" rx="38.158" ry="37.43"/><ellipse fill="#1A1113" cx="368.26" cy="102.33" rx="34.768" ry="34.104"/><circle fill="#55BDEA" cx="367.672" cy="102.328" r="26.577"/><circle fill="#FAE207" cx="221.427" cy="264.291" r="29.168"/><ellipse fill="#476FA7" cx="363.263" cy="108.5" rx="18.668" ry="19.135"/><path fill="#F47522" d="M249.136 259.706c0 11.445-9.162 20.725-20.467 20.725-11.3 0-20.462-9.278-20.462-20.724 0-11.447 9.162-20.728 20.46-20.728 11.306 0 20.468 9.28 20.468 20.728z"/><ellipse transform="rotate(-42.994 234.45 252.92)" fill="#1A1113" cx="234.438" cy="252.909" rx="8.15" ry="10.379"/><ellipse transform="rotate(-40.258 357.325 114.19)" fill="#1A1113" cx="357.309" cy="114.184" rx="7.426" ry="9.459"/><path fill="#DF5244" d="M418.588 248.013h101.384s3.147-.048 5.615-2.073c2.528-2.07 2.528-4.707 2.528-4.707V109.67s.13-2.604-1.476-4.957c-2.41-3.538-6.67-3.387-6.67-3.387H418.59v146.687zM525.965 297.348c-1.394 1.17-2.997 1.21-2.997 1.21h-104.38v-39.166h104.38s2.646 0 3.482 1.284c.775 1.19.836 2.652.836 2.652v30.755s.07 2.092-1.32 3.265zM143.6 248.013H52.96s-2.813-.048-5.02-2.073c-2.26-2.07-2.26-4.707-2.26-4.707V109.67s-.116-2.604 1.317-4.957c2.157-3.538 5.962-3.387 5.962-3.387h90.638v146.687zM47.604 297.348c1.245 1.17 2.68 1.21 2.68 1.21h93.315v-39.166H50.28s-2.366 0-3.114 1.284c-.693 1.19-.747 2.652-.747 2.652v30.755s-.062 2.092 1.184 3.265z"/><ellipse fill="none" stroke="#F7F5F6" stroke-width="3" stroke-miterlimit="10" cx="242.27" cy="134.292" rx="50.089" ry="51.286"/><path fill="none" stroke="#F7F5F6" stroke-width="5" stroke-miterlimit="10" d="M208.444 175.122s24.366-6.074 48.158-30.347c23.79-24.273 26.46-43.903 26.46-43.903"/></svg>