<svg xmlns="http://www.w3.org/2000/svg" width="595.28" height="401.094" viewBox="0 0 595.28 401.094"><path fill="#241A18" d="M547.724 313.994c0 9.98-8.448 20.108-18.454 20.108H69.097c-10.006 0-18.12-8.094-18.12-18.077V122.92c0-9.982 8.114-18.076 18.12-18.076h460.507c10.004 0 18.12 8.094 18.12 18.077v191.074z"/><path fill="#241A18" d="M431.417 328.077c0 8.44-19.147 28.11-29.064 28.11H173.938c-9.916 0-17.955-6.84-17.955-15.782v-235.56S168.32 68.46 182.917 68.46h221.506c14.125 0 26.995 11.057 26.995 24.315v235.302z"/><path fill="#FBFAFB" stroke="#FBFAFB" stroke-miterlimit="10" d="M422.44 310c0 9.982-7.684 18.077-17.16 18.077H202.26c-9.475 0-17.157-8.095-17.157-18.077V96.088c0-9.984 7.684-18.078 17.158-18.078H405.28c9.477 0 17.16 8.094 17.16 18.078V310z"/><ellipse fill="#241A18" cx="234.257" cy="281.755" rx="38.158" ry="37.429"/><ellipse fill="#241A18" cx="381.089" cy="119.795" rx="34.768" ry="34.104"/><circle fill="#65BFEC" cx="380.501" cy="119.794" r="26.577"/><circle fill="#FEE200" cx="234.256" cy="281.757" r="29.168"/><ellipse fill="#476BA6" cx="376.092" cy="125.966" rx="18.668" ry="19.135"/><path fill="#ED6C0B" d="M261.965 277.17c0 11.446-9.162 20.726-20.467 20.726-11.3 0-20.46-9.28-20.46-20.725 0-11.445 9.16-20.727 20.46-20.727 11.305 0 20.467 9.282 20.467 20.728z"/><path fill="#241A18" d="M253.23 264.817c3.906 4.19 4.41 10.08 1.116 13.148-3.293 3.07-9.13 2.16-13.04-2.033-3.908-4.195-4.408-10.08-1.118-13.15 3.292-3.068 9.13-2.158 13.04 2.035z"/><ellipse transform="rotate(-40.258 370.155 131.656)" fill="#241A18" cx="370.138" cy="131.649" rx="7.426" ry="9.459"/><path fill="#BE1823" d="M431.417 265.48H532.8s3.148-.05 5.616-2.074c2.528-2.07 2.528-5.707 2.528-5.707V127.136s.13-2.604-1.476-4.96c-2.41-3.536-6.668-3.386-6.668-3.386H431.417v146.69z"/><path fill="#BE1622" d="M538.794 314.814c-1.394 1.17-2.997 1.21-2.997 1.21h-104.38V276.86h104.38s2.646 0 3.482 1.283c.774 1.192.835 2.653.835 2.653v30.755s.07 2.093-1.32 3.266zM156.428 265.48h-90.64s-2.812-.05-5.02-2.074c-2.26-2.07-2.26-4.707-2.26-4.707V127.136s-.115-2.604 1.318-4.96c2.157-3.536 5.962-3.386 5.962-3.386h90.64v146.69zM60.433 314.814c1.245 1.17 2.68 1.21 2.68 1.21h93.315V276.86H63.11s-2.365 0-3.113 1.283c-.693 1.192-.747 2.653-.747 2.653v30.755s-.062 2.093 1.183 3.266z"/><g fill="#241A18"><path d="M296.49 125.75c-2.78 8.04-9.487 22.134-25.273 38.24-17.133 17.48-34.408 25.676-43.275 29.032 7.758 5.378 17.106 8.52 27.158 8.52 26.79 0 48.588-22.333 48.588-49.785 0-9.53-2.643-18.434-7.198-26.008z"/><path d="M223.297 189.35c6.816-2.302 25.844-9.98 44.35-28.858 18.096-18.465 23.657-34.11 25.214-39.99-1.39-1.76-2.884-3.427-4.49-4.977-8.848-7.87-20.496-12.658-33.27-12.658-12.774 0-24.425 4.788-33.272 12.66-9.42 9.086-15.317 21.963-15.317 36.23 0 14.998 6.514 28.458 16.787 37.594z"/></g><path fill="#241A18" d="M303.185 174.284c-5.317 12.13-14.97 21.852-26.94 27.066 29.752 27.795 111.724 103.99 115.383 103.267 6.104-1.21 9.508-6.026 9.743-10.288.14-2.583-76.49-94.17-98.185-120.046z"/></svg>