<?xml version="1.0" standalone="no"?>
<!DOCTYPE svg PUBLIC "-//W3C//DTD SVG 20010904//EN"
 "http://www.w3.org/TR/2001/REC-SVG-20010904/DTD/svg10.dtd">
<svg version="1.0" xmlns="http://www.w3.org/2000/svg"
 width="16.000000pt" height="16.000000pt" viewBox="0 0 16.000000 16.000000"
 preserveAspectRatio="xMidYMid meet">
<metadata>
Created by potrace 1.11, written by Peter Selinger 2001-2013
</metadata>
<g transform="translate(0.000000,16.000000) scale(0.001905,-0.001905)"
fill="#000000" stroke="none">
<path d="M0 4200 l0 -4070 4200 0 4200 0 0 4070 0 4070 -4200 0 -4200 0 0
-4070z m4791 3730 c74 -31 93 -43 95 -60 1 -6 3 -12 4 -15 1 -3 3 -8 5 -12 1
-5 6 -19 12 -33 6 -14 18 -42 26 -63 9 -20 15 -39 14 -42 -1 -2 6 -13 15 -24
14 -17 22 -18 50 -10 18 5 44 11 58 14 14 3 36 8 50 11 25 7 70 8 127 2 18 -2
45 -15 62 -32 l31 -30 22 21 c13 11 36 32 53 46 31 28 55 35 55 16 0 -20 59
-97 80 -102 18 -5 20 -1 20 44 0 27 4 49 9 49 5 0 35 -20 67 -45 62 -49 99
-59 90 -25 -3 11 -8 29 -11 39 -5 15 -2 18 14 14 10 -3 28 -12 38 -22 20 -18
70 -51 77 -51 3 0 -1 21 -9 46 l-14 46 27 -6 c15 -3 38 -9 52 -12 14 -3 32
-14 41 -25 15 -20 15 -20 92 -1 l76 20 27 -40 c15 -21 30 -35 33 -31 3 4 16
16 27 26 21 17 23 17 70 -1 l48 -19 75 34 c42 19 84 39 93 44 27 14 27 13 25
-38 -1 -43 1 -48 20 -49 12 -1 33 10 47 23 l26 24 37 -26 c59 -40 81 -31 62
24 -14 40 -8 46 28 28 21 -10 67 -13 179 -13 150 2 152 1 220 -30 38 -18 71
-30 73 -28 2 1 6 18 10 36 7 36 7 36 116 27 24 -2 70 6 114 21 72 24 73 24 87
5 72 -102 68 -99 119 -70 l43 26 63 -26 c35 -14 66 -30 69 -35 4 -6 5 -138 4
-293 -9 -833 -13 -1134 -13 -1154 -1 -20 -6 -22 -48 -20 -28 1 -50 7 -53 15
-4 10 -13 7 -34 -11 -22 -19 -27 -30 -21 -47 4 -12 8 -32 10 -43 3 -23 16 -98
18 -107 1 -3 -5 -21 -12 -40 -8 -19 -15 -37 -15 -40 -1 -3 -7 -15 -14 -26 -6
-12 -10 -23 -7 -25 4 -4 12 -102 20 -243 2 -37 6 -70 9 -73 3 -3 -13 -32 -36
-64 -23 -33 -39 -61 -37 -63 2 -2 38 -25 79 -52 41 -26 77 -50 80 -53 3 -3 14
-11 25 -17 19 -11 20 -22 20 -420 0 -225 -2 -416 -3 -425 -3 -13 -10 -15 -38
-9 -19 4 -34 5 -34 0 0 -4 13 -34 30 -66 16 -32 25 -61 20 -62 -6 -2 -35 10
-65 27 -36 20 -55 27 -56 19 -1 -7 -2 -24 -4 -38 -8 -78 -17 -198 -16 -218 0
-13 19 -42 40 -65 108 -115 118 -142 115 -305 -2 -91 -6 -118 -21 -140 -25
-37 -43 -80 -43 -103 0 -10 14 -45 30 -78 l30 -59 -5 -438 c-4 -242 -8 -617
-10 -834 -2 -217 -4 -465 -5 -550 -1 -85 -4 -158 -6 -162 -3 -4 -53 28 -112
72 -59 44 -112 83 -117 88 -6 4 -31 24 -56 44 -26 21 -49 35 -53 33 -3 -3 -4
-2 -1 2 5 6 -75 69 -85 66 -3 -1 -10 8 -16 19 -10 18 -8 26 12 47 12 13 21 28
18 33 -3 4 0 8 6 8 7 0 10 7 6 15 -3 8 -1 15 4 15 9 0 26 39 22 53 -1 4 3 7 8
7 6 0 10 4 10 9 0 5 5 22 11 38 7 15 13 35 14 43 2 8 10 37 18 64 15 47 15 50
-4 74 -10 14 -19 22 -19 19 0 -4 -17 10 -38 31 -21 20 -53 48 -71 62 -18 14
-49 42 -68 62 -20 20 -38 36 -42 35 -3 -1 -22 14 -41 33 -46 46 -120 110 -126
110 -3 0 -17 14 -31 30 -14 17 -28 29 -30 26 -3 -2 -18 11 -35 30 -16 19 -34
32 -38 29 -5 -3 -12 0 -16 6 -5 8 -3 9 7 4 12 -8 12 -6 0 8 -7 9 -19 17 -26
17 -7 0 -16 7 -19 16 -3 9 -11 12 -18 8 -7 -4 -10 -4 -6 1 8 8 -10 28 -82 85
-24 19 -54 46 -67 60 -13 14 -23 21 -23 16 0 -5 -16 10 -36 33 -20 22 -40 41
-44 41 -4 0 -29 21 -57 48 -27 26 -64 58 -82 72 -18 14 -57 49 -88 78 -30 28
-61 52 -69 52 -8 0 -13 4 -10 9 4 5 -13 24 -36 42 -24 19 -49 39 -56 46 -7 7
-34 29 -60 50 -25 21 -57 50 -70 66 -13 15 -27 25 -32 22 -4 -3 -10 5 -13 17
-4 12 -9 19 -13 15 -4 -4 -14 2 -21 13 -8 11 -19 17 -25 14 -6 -4 -8 -2 -4 4
3 6 -10 23 -31 39 -21 15 -45 35 -53 43 -9 8 -38 33 -65 55 -26 22 -57 50 -68
62 -11 12 -24 20 -29 17 -4 -3 -8 1 -8 8 -1 7 -19 27 -40 43 -41 31 -52 40
-165 140 -37 33 -72 59 -77 57 -5 -1 -7 2 -4 7 4 5 -8 20 -24 33 -17 13 -45
38 -62 56 -17 17 -37 32 -45 32 -7 0 -13 4 -13 9 0 5 -35 37 -77 70 -43 33
-86 67 -95 75 -9 8 -20 11 -24 8 -4 -4 -4 -2 -1 4 4 7 -23 37 -61 70 -36 33
-87 78 -111 101 -25 23 -49 39 -54 36 -6 -3 -7 -1 -4 4 4 6 -6 19 -21 28 -15
10 -37 31 -50 46 -13 16 -27 29 -32 29 -10 0 -136 125 -170 169 -14 17 -34 42
-45 54 -11 13 -26 35 -34 50 -8 14 -18 24 -23 21 -4 -3 -8 0 -8 6 0 11 -30 53
-64 90 -20 21 -81 103 -92 122 -5 9 -26 34 -46 57 -21 22 -38 45 -38 51 0 5
-4 10 -9 10 -4 0 -21 19 -37 43 -32 47 -40 58 -84 105 -16 18 -30 37 -30 42 0
5 -8 14 -17 19 -10 6 -14 11 -9 11 5 0 -5 13 -22 29 -16 16 -28 31 -26 33 2 3
-12 21 -31 41 -19 20 -35 40 -35 45 0 4 -15 23 -33 43 -17 21 -41 49 -52 65
-37 51 -42 53 -80 41 -19 -5 -35 -14 -35 -18 0 -5 -7 -6 -15 -3 -8 4 -15 1
-15 -5 0 -6 -9 -11 -20 -11 -11 0 -20 -5 -20 -11 0 -5 -4 -7 -10 -4 -5 3 -10
1 -10 -5 0 -6 -4 -9 -10 -5 -5 3 -18 -3 -29 -14 -10 -10 -28 -22 -40 -26 -12
-3 -21 -11 -21 -16 0 -6 -4 -8 -9 -5 -5 3 -20 -4 -33 -17 -14 -12 -32 -26 -40
-32 -84 -56 -128 -89 -128 -95 0 -4 -12 -12 -26 -18 -15 -7 -22 -17 -18 -24 4
-6 3 -8 -3 -5 -11 7 -232 -226 -233 -245 0 -4 -12 -20 -26 -35 -14 -15 -33
-41 -41 -57 -8 -16 -24 -38 -34 -49 -10 -12 -19 -27 -19 -34 0 -7 -4 -13 -10
-13 -5 0 -10 -6 -10 -14 0 -8 -12 -28 -26 -45 -14 -17 -22 -31 -17 -31 4 0 2
-4 -5 -9 -7 -4 -14 -14 -15 -22 -2 -8 -13 -31 -26 -52 -12 -21 -20 -44 -17
-53 3 -8 2 -13 -2 -10 -7 4 -47 -69 -57 -104 -1 -3 -5 -12 -8 -20 -4 -8 -11
-33 -16 -55 -5 -22 -12 -49 -16 -60 -5 -11 -4 -17 0 -12 5 4 17 0 27 -10 10
-9 18 -12 18 -7 0 5 4 4 8 -1 4 -6 36 -25 72 -43 36 -18 93 -48 127 -67 35
-19 63 -32 63 -29 0 3 12 -4 26 -15 15 -11 30 -18 35 -15 5 3 9 1 9 -4 0 -5
24 -20 53 -32 28 -12 78 -38 110 -56 32 -19 65 -34 73 -34 7 0 14 -5 14 -11 0
-5 5 -7 10 -4 6 3 10 2 10 -3 0 -5 26 -21 58 -36 31 -15 75 -38 97 -51 21 -13
43 -21 47 -19 4 3 8 1 8 -4 0 -6 19 -17 43 -27 23 -9 59 -27 79 -41 20 -13 43
-25 50 -26 7 -2 15 -5 18 -8 5 -5 46 -24 65 -30 6 -2 16 -10 23 -17 7 -7 19
-13 26 -13 7 0 24 -10 38 -22 14 -13 38 -32 53 -43 15 -11 42 -33 59 -48 17
-16 42 -36 56 -45 14 -9 29 -22 33 -29 4 -7 12 -13 17 -13 4 0 24 -15 44 -32
19 -18 49 -44 67 -58 29 -22 61 -50 109 -93 8 -7 36 -29 63 -47 26 -18 47 -37
47 -42 0 -4 7 -8 15 -8 8 0 15 -4 15 -9 0 -10 39 -27 53 -23 4 1 7 -2 7 -8 0
-16 71 -90 81 -84 5 3 12 -2 15 -10 3 -9 10 -16 15 -16 4 0 27 -19 51 -43 24
-23 68 -60 98 -82 30 -22 63 -50 73 -62 10 -13 22 -23 27 -23 5 0 24 -13 42
-30 54 -49 68 -60 68 -55 0 2 10 -6 23 -18 54 -52 97 -87 107 -87 5 0 10 -4
10 -9 0 -5 24 -27 52 -48 29 -21 60 -45 69 -53 8 -8 33 -28 54 -45 21 -16 51
-41 67 -55 51 -45 57 -50 63 -50 3 0 13 -8 23 -17 19 -19 59 -52 175 -148 38
-31 72 -53 79 -49 6 4 8 3 5 -4 -4 -5 27 -37 70 -72 43 -33 99 -80 125 -103
26 -22 55 -45 65 -51 9 -5 32 -24 50 -42 18 -18 33 -31 33 -28 0 6 24 -13 114
-92 21 -18 43 -31 49 -27 5 3 7 1 4 -4 -4 -6 0 -16 8 -23 8 -7 15 -10 15 -7 0
3 13 -7 29 -21 65 -60 81 -72 90 -72 5 0 11 -3 13 -7 4 -11 128 -116 128 -109
0 3 15 -11 34 -29 18 -19 36 -35 40 -35 4 0 13 -6 20 -12 29 -28 76 -68 80
-68 3 0 16 -10 28 -22 70 -67 92 -80 132 -73 22 3 54 12 70 19 17 8 46 19 65
25 19 6 42 17 50 25 9 8 33 23 54 34 36 19 40 19 57 4 54 -50 180 -145 180
-137 0 4 10 -4 21 -19 12 -15 23 -25 26 -23 2 3 14 -5 27 -17 12 -11 33 -28
46 -36 13 -8 34 -25 47 -38 13 -12 27 -22 31 -22 15 -1 113 -98 152 -150 57
-78 66 -113 46 -184 -9 -31 -22 -57 -29 -57 -7 -1 -48 -3 -92 -3 -93 -2 -142
-22 -219 -91 -70 -62 -116 -66 -95 -7 7 17 5 22 -9 23 -9 0 -35 2 -57 4 -147
10 -173 8 -211 -14 -43 -26 -34 -30 -91 45 -21 28 -22 29 -36 9 -8 -11 -23
-31 -34 -44 l-19 -24 -36 38 c-34 37 -36 37 -72 25 -37 -12 -65 -11 -290 6
l-80 6 -27 -33 c-30 -37 -38 -36 -41 4 -1 15 -7 27 -13 28 -16 1 -158 1 -182
0 -17 -1 -21 -7 -21 -31 1 -17 -1 -32 -3 -34 -2 -3 -36 26 -75 63 l-70 67 -95
-2 c-52 -1 -184 -3 -294 -5 l-200 -4 -47 33 -47 32 -17 -57 c-10 -32 -21 -62
-26 -67 -4 -5 -31 -9 -59 -7 -48 2 -53 0 -85 -37 -27 -32 -43 -41 -91 -51 -32
-6 -77 -13 -101 -15 -41 -2 -42 -1 -52 35 -6 21 -14 40 -18 43 -4 2 -18 -14
-30 -37 -21 -40 -24 -42 -70 -43 -26 -1 -103 -3 -171 -4 l-124 -4 -12 40 c-6
21 -11 44 -11 49 1 6 -14 11 -32 13 -30 3 -34 0 -49 -36 l-15 -39 -63 2 c-36
2 -82 12 -110 24 l-49 21 -60 -19 c-60 -20 -98 -26 -241 -36 l-70 -6 -108 105
c-59 57 -107 109 -107 115 0 6 0 13 0 16 1 10 -33 70 -43 77 -6 3 -17 2 -26
-2 -55 -29 -158 -52 -238 -54 -13 0 -25 -7 -28 -15 -12 -43 -18 -80 -17 -122
0 -45 0 -46 -29 -44 -15 1 -50 -7 -76 -19 -42 -19 -64 -22 -168 -20 -171 2
-214 9 -297 48 -93 43 -93 43 -218 51 -58 3 -133 8 -168 11 l-63 4 -45 -44
-45 -45 -77 9 c-42 6 -91 12 -109 14 -20 3 -36 -1 -44 -10 -6 -8 -17 -14 -25
-14 -16 0 -32 -29 -29 -52 2 -10 -3 -18 -11 -18 -22 0 -85 28 -83 37 1 4 -3
20 -8 34 -10 24 -16 25 -83 26 -58 1 -73 -2 -77 -16 -4 -9 -13 -26 -21 -38
l-14 -22 -48 25 c-27 14 -63 40 -81 59 -18 18 -38 31 -44 27 -5 -4 -12 -7 -15
-7 -38 -7 -89 -30 -111 -51 l-28 -27 -85 22 c-47 12 -99 24 -115 26 -17 2 -46
17 -64 34 -17 17 -59 44 -93 61 -33 16 -79 47 -101 67 -37 34 -41 42 -38 78 2
22 6 78 10 125 3 47 8 94 10 105 2 11 4 23 4 26 1 3 11 16 24 29 25 28 27 37
13 65 -11 22 -11 21 -20 80 -4 22 -9 48 -12 57 -13 42 -27 556 -28 1048 0 267
3 332 20 410 10 47 14 75 20 148 l7 73 79 -6 c44 -3 84 -2 89 1 5 3 2 18 -6
33 -8 16 -11 31 -8 35 4 3 1 6 -5 6 -6 0 -14 16 -18 35 -3 19 -10 38 -15 41
-24 14 -5 51 47 94 58 48 114 118 114 144 0 9 -3 16 -7 16 -5 0 -17 18 -27 41
-11 22 -23 42 -27 44 -3 3 -21 -2 -38 -11 -18 -9 -34 -14 -36 -13 -2 2 5 21
15 42 l19 39 -64 61 -63 62 9 70 c20 155 23 142 -31 160 -46 15 -47 17 -46 55
1 23 10 51 23 68 12 16 24 46 27 68 4 21 9 53 12 69 4 26 0 35 -32 62 l-38 31
43 18 43 17 -6 86 c-4 47 -9 109 -12 138 l-5 51 33 -7 c50 -10 103 -8 101 5
-1 6 -4 24 -7 39 -3 15 -8 30 -11 33 -3 3 -45 7 -93 10 -48 2 -88 5 -89 6 -2
2 -6 158 -19 946 -8 523 -12 735 -19 1155 -6 328 -9 686 -6 810 0 17 -2 42 -4
57 -6 34 4 40 40 23 164 -76 205 -97 205 -104 0 -5 12 -12 28 -16 15 -3 65
-25 112 -47 47 -22 91 -41 98 -41 6 0 12 -4 12 -10 0 -5 18 -6 43 -1 23 4 49
8 57 9 19 2 109 17 133 21 19 3 76 45 76 56 1 4 -14 19 -33 33 -31 23 -54 71
-44 92 5 11 27 13 34 2 10 -18 61 -9 90 16 16 14 36 25 44 26 27 2 65 7 105
14 47 9 45 9 110 1 28 -4 68 -8 90 -10 50 -5 68 -12 130 -53 45 -29 54 -32 85
-23 18 5 36 8 38 5 3 -3 11 0 19 6 7 6 13 9 13 6 0 -3 14 -2 31 3 24 7 49 3
108 -16 88 -30 94 -32 101 -31 3 0 14 -5 26 -11 27 -14 103 6 199 54 39 19 90
37 115 40 58 7 64 8 132 23 70 15 91 10 117 -32 20 -32 28 -28 35 17 3 23 12
29 48 33 54 6 91 21 126 54 18 16 40 32 50 34 9 2 39 8 66 15 27 6 52 7 55 3
3 -5 21 -18 40 -30 l33 -20 -33 -6 c-19 -4 -60 -7 -91 -8 -32 -2 -58 -5 -58
-8 2 -17 38 -76 46 -74 5 0 25 4 44 7 19 3 62 11 95 17 72 13 64 13 296 5
l186 -6 13 29 c16 40 28 49 76 58 74 14 117 8 191 -28 81 -39 69 -42 117 25
13 19 15 19 97 -11 97 -36 122 -44 130 -40 3 1 12 -3 20 -9 17 -13 56 -10 177
15 23 4 42 7 42 4 0 -2 9 1 20 7 15 8 18 15 11 34 -14 34 -20 86 -12 86 5 0
41 -14 82 -30z m-1155 -3101 c3 -5 9 -7 14 -4 23 14 142 -83 162 -132 24 -58
38 -147 26 -165 -4 -7 -8 -21 -8 -31 0 -19 -37 -77 -57 -90 -7 -4 -13 -13 -13
-20 0 -12 -86 -61 -129 -73 -24 -6 -92 -7 -121 -1 -24 6 -74 30 -92 45 -10 9
-18 12 -18 7 0 -4 -13 8 -30 26 -16 19 -30 38 -30 43 0 5 -7 17 -15 26 -19 21
-28 60 -28 123 1 43 18 104 33 117 13 11 44 66 42 73 -1 5 3 5 9 1 7 -4 17 -1
23 7 30 40 213 77 232 48z m1040 -985 c19 -9 34 -23 34 -30 0 -8 4 -14 9 -14
29 0 30 -104 1 -135 -11 -12 -17 -25 -13 -29 4 -4 0 -4 -10 0 -10 3 -17 1 -17
-5 0 -6 -15 -14 -32 -19 -114 -30 -213 107 -140 193 47 56 104 69 168 39z
m318 -264 c10 -1 16 -4 12 -7 -3 -3 3 -13 15 -21 56 -39 56 -142 -1 -189 -48
-40 -153 -30 -177 16 -6 13 -16 27 -23 31 -17 11 -15 62 4 106 21 46 65 71
116 67 19 -1 43 -3 54 -3z"/>
<path d="M2280 6814 c-147 -26 -211 -42 -229 -57 -8 -7 -17 -11 -20 -10 -13 6
-71 -19 -71 -29 0 -6 -3 -9 -6 -5 -7 7 -86 -30 -95 -45 -3 -5 -9 -9 -13 -9
-19 3 -29 -2 -61 -30 -19 -17 -35 -28 -35 -23 0 4 -9 -2 -20 -14 -12 -12 -24
-22 -28 -22 -14 0 -127 -110 -124 -121 1 -6 -1 -8 -6 -5 -4 2 -17 -7 -27 -20
-11 -14 -28 -33 -39 -42 -29 -26 -145 -208 -152 -239 -4 -16 -12 -35 -19 -43
-13 -16 -58 -130 -51 -130 2 0 -2 -21 -10 -47 -8 -27 -17 -66 -20 -88 -4 -22
-9 -59 -14 -82 -22 -124 9 -394 62 -538 29 -79 85 -194 103 -212 8 -8 15 -21
15 -28 0 -8 8 -20 19 -27 10 -7 19 -17 20 -23 4 -25 102 -135 119 -135 15 0
45 57 37 70 -3 6 -2 10 2 10 9 0 39 69 35 83 -1 4 2 7 8 7 5 0 10 6 10 14 0 8
4 16 8 18 8 3 84 156 80 161 -2 1 7 13 20 27 12 13 22 28 22 32 0 5 11 25 25
45 13 20 21 41 18 46 -3 6 -2 8 3 4 5 -3 32 29 59 71 27 43 60 88 72 102 13
14 23 28 23 32 0 4 14 23 31 43 17 19 28 35 24 35 -5 0 3 11 16 24 39 38 69
73 69 80 0 3 7 14 15 24 44 52 73 84 96 109 14 15 28 32 30 38 2 5 34 40 71
76 37 36 64 69 60 73 -4 4 0 6 8 4 8 -2 14 3 12 10 -1 6 2 11 6 10 5 -2 25 13
44 32 20 19 61 58 93 85 31 28 69 61 83 74 15 13 44 35 65 49 20 13 37 29 37
34 0 5 5 6 10 3 6 -3 13 1 16 9 3 9 12 16 19 16 6 0 20 9 30 20 10 11 24 20
32 20 7 0 13 3 13 8 0 4 14 13 30 20 17 8 28 18 24 23 -3 5 -2 8 3 7 16 -4 53
14 48 23 -3 5 0 6 8 4 7 -3 22 3 32 15 10 11 23 20 29 20 13 0 99 42 106 52 3
3 18 10 33 13 15 4 27 10 27 14 0 19 -89 76 -202 130 -226 108 -499 147 -738
105z"/>
<path d="M5953 6694 c-48 -18 -153 -56 -233 -84 -379 -136 -613 -220 -622
-226 -5 -4 41 -56 104 -116 62 -61 301 -295 532 -522 825 -811 769 -759 786
-734 18 27 191 418 193 438 1 8 5 17 9 20 4 3 32 64 63 135 31 72 65 148 75
170 54 118 68 154 62 159 -3 3 0 6 6 6 7 0 12 4 12 10 0 5 12 35 26 67 l27 57
-18 73 c-18 78 -36 99 -138 170 -22 15 -54 40 -71 56 -17 15 -34 27 -38 27 -5
0 -16 8 -26 18 -22 20 -28 24 -154 120 -52 39 -98 72 -101 72 -3 0 -11 -25
-18 -55 -13 -57 -28 -81 -30 -48 -1 10 -2 23 -4 28 -1 6 -3 19 -4 30 -1 14
-15 25 -49 38 -78 30 -132 56 -132 64 -1 5 -10 19 -21 33 -32 38 -121 36 -236
-6z"/>
<path d="M3406 6343 c-3 -4 -16 -8 -28 -10 -12 -2 -25 -7 -28 -11 -3 -4 -14
-9 -25 -10 -36 -7 -132 -56 -146 -75 -3 -5 -10 -8 -15 -8 -16 1 -44 -10 -44
-18 0 -4 -15 -12 -32 -19 -18 -6 -48 -25 -66 -42 -18 -16 -37 -30 -41 -30 -9
0 -92 -61 -134 -100 -70 -63 -267 -258 -267 -264 0 -4 -10 -17 -22 -30 -13
-13 -30 -33 -38 -46 -8 -12 -27 -35 -42 -50 -16 -16 -28 -33 -28 -38 0 -5 -7
-12 -15 -16 -8 -3 -15 -12 -15 -20 0 -7 -7 -16 -15 -20 -8 -3 -15 -11 -15 -17
0 -6 -12 -26 -27 -45 -50 -60 -78 -98 -78 -105 0 -4 -16 -27 -35 -50 -19 -24
-34 -47 -33 -50 1 -3 -12 -21 -28 -40 -16 -19 -35 -49 -41 -66 -7 -18 -16 -33
-20 -33 -4 0 -16 -17 -27 -37 -11 -21 -40 -69 -65 -108 -25 -38 -46 -74 -46
-81 0 -6 -11 -27 -24 -47 -13 -19 -22 -38 -18 -41 3 -3 0 -6 -6 -6 -6 0 -18
-13 -27 -30 -9 -16 -13 -30 -9 -30 4 0 1 -7 -6 -15 -17 -21 -61 -115 -53 -115
3 0 0 -7 -7 -15 -7 -9 -11 -17 -9 -18 22 -17 66 -45 71 -46 9 -2 91 -37 135
-58 18 -8 37 -12 42 -8 6 3 11 2 11 -4 0 -8 13 -13 75 -25 11 -3 40 -9 65 -15
25 -7 91 -14 146 -17 l101 -6 8 28 c10 33 8 28 26 74 7 19 12 38 11 43 -1 4 2
7 8 7 5 0 10 6 10 14 0 18 29 73 53 100 10 11 15 26 13 32 -3 7 2 15 10 18 9
3 12 10 9 16 -3 5 -1 10 4 10 6 0 11 4 11 9 0 6 11 22 25 37 14 15 25 32 25
39 0 7 9 20 20 30 11 10 20 23 20 29 0 6 16 28 35 50 19 21 35 42 35 47 0 5
17 25 37 44 20 19 34 35 31 35 -4 0 13 21 38 48 67 71 78 84 95 109 8 13 18
20 21 17 4 -3 14 6 24 21 23 36 103 115 115 115 6 0 7 5 4 10 -3 6 -2 10 2 10
8 0 60 44 123 103 14 13 40 32 58 43 17 10 32 22 32 25 0 4 8 10 18 13 10 4
27 14 38 24 10 9 36 26 57 37 20 11 37 24 37 29 0 5 3 6 7 3 3 -4 17 0 29 8
28 18 103 45 126 45 17 0 18 33 3 100 -3 14 -7 38 -10 53 -10 69 -81 257 -119
312 -12 17 -20 32 -20 35 2 6 -55 90 -72 108 -13 13 -56 16 -68 5z"/>
<path d="M2145 3180 c-10 -11 -19 -30 -21 -42 -2 -13 -22 -115 -44 -228 -22
-113 -43 -221 -46 -240 -3 -19 -7 -42 -9 -50 -10 -35 -18 -87 -19 -112 -1 -16
-4 -28 -8 -28 -5 0 -8 -10 -8 -22 0 -11 -7 -57 -16 -100 -9 -44 -14 -82 -11
-84 3 -3 31 9 63 27 57 33 57 33 50 8 -4 -13 -8 -31 -9 -39 -1 -8 -8 -21 -14
-28 -7 -7 -13 -19 -13 -26 0 -7 -12 -18 -26 -25 -14 -6 -24 -17 -22 -24 3 -6
45 -40 94 -74 49 -34 94 -66 100 -71 5 -5 30 -22 55 -38 24 -16 46 -31 49 -34
3 -3 24 -18 48 -34 41 -28 44 -29 134 -22 51 4 98 12 105 18 7 6 13 8 13 5 0
-5 101 20 280 68 242 65 328 88 349 92 30 5 232 58 285 75 l38 12 -33 28 c-19
16 -38 32 -44 36 -24 17 -281 208 -295 219 -16 13 -587 441 -628 471 -13 9
-55 41 -94 71 -69 53 -70 53 -84 32 -15 -20 -15 -20 -47 16 -18 20 -32 45 -32
55 0 11 -24 37 -60 63 -33 25 -60 45 -61 45 0 0 -9 -9 -19 -20z"/>
</g>
</svg>
