<?xml version="1.0" encoding="utf-8"?>
<!-- Generator: Adobe Illustrator 16.0.0, SVG Export Plug-In . SVG Version: 6.00 Build 0)  -->
<!DOCTYPE svg PUBLIC "-//W3C//DTD SVG 1.1//EN" "http://www.w3.org/Graphics/SVG/1.1/DTD/svg11.dtd">
<svg version="1.1" xmlns="http://www.w3.org/2000/svg" xmlns:xlink="http://www.w3.org/1999/xlink" x="0px" y="0px" width="565px"
	 height="414px" viewBox="0 0 565 414" enable-background="new 0 0 565 414" xml:space="preserve">
<g id="Layer_1">
</g>
<g id="Layer_2" display="none">
</g>
<g id="Layer_2_copy_3">
	<rect x="79" y="146.225" display="none" fill="#1A1113" width="329" height="148"/>
	<rect x="151" y="98.225" display="none" fill="#1A1113" width="187" height="226"/>
	<rect x="160.5" y="128.225" display="none" fill="#F7F5F6" width="166" height="166"/>
	<path display="none" fill="#DF5244" d="M151,226.225c0,13.255-10.746,24-24,24h-17c-13.254,0-24-10.745-24-24v-47
		c0-13.255,10.746-24,24-24h17c13.254,0,24,10.745,24,24V226.225z"/>
	<path display="none" fill="#DF5244" d="M86,274.224c0,6.627,5.373,12,12,12h41c6.627,0,12-5.373,12-12v-2c0-6.627-5.373-12-12-12
		H98c-6.627,0-12,5.373-12,12V274.224z"/>
	<path display="none" fill="#DF5244" d="M338,238.296c0,6.627,5.373,12,12,12h41c6.627,0,12-5.373,12-12v-71c0-6.627-5.373-12-12-12
		h-41c-6.627,0-12,5.373-12,12V238.296z"/>
	<path display="none" fill="#DF5244" d="M403,274.224c0,6.627-5.373,12-12,12h-41c-6.627,0-12-5.373-12-12v-2
		c0-6.627,5.373-12,12-12h41c6.627,0,12,5.373,12,12V274.224z"/>
	<path fill="#1A1113" d="M534.895,296.528c0,9.982-8.448,20.109-18.454,20.109H56.268c-10.006,0-18.119-8.094-18.119-18.078V105.455
		c0-9.983,8.113-18.077,18.119-18.077h460.507c10.004,0,18.12,8.094,18.12,18.077V296.528z"/>
	<path fill="#1A1113" d="M418.588,310.612c0,8.44-19.147,28.11-29.064,28.11H161.108c-9.916,0-17.955-6.841-17.955-15.783V87.377
		c0,0,12.336-36.383,26.934-36.383c11.172,0,221.506,0,221.506,0c14.125,0,26.995,11.057,26.995,24.316V310.612z"/>
	<path fill="#F7F5F6" stroke="#F7F5F6" stroke-miterlimit="10" d="M409.61,292.534c0,9.982-7.683,18.078-17.158,18.078H189.429
		c-9.475,0-17.157-8.096-17.157-18.078V78.622c0-9.984,7.683-18.077,17.157-18.077h203.023c9.476,0,17.158,8.093,17.158,18.077
		V292.534z"/>
	<path fill="#1A1113" d="M292.358,135.489c0,6.915-1.403,13.503-3.938,19.495c-7.605,17.979-25.404,30.594-46.15,30.594
		c-27.664,0-50.09-22.425-50.09-50.089c0-27.664,22.426-50.089,50.09-50.089C269.934,85.4,292.358,107.825,292.358,135.489z"/>
	<path fill="#1A1113" d="M387.541,275.863c0.162-3.007-103.85-126.794-103.85-126.794l-31.956,23.823
		c0,0,121.588,114.146,126.063,113.259C383.901,284.943,387.306,280.125,387.541,275.863z"/>
	<ellipse fill="#1A1113" cx="221.428" cy="264.289" rx="38.158" ry="37.43"/>
	<ellipse fill="#1A1113" cx="368.26" cy="102.33" rx="34.768" ry="34.104"/>
	<circle fill="#55BDEA" cx="367.672" cy="102.328" r="26.577"/>
	<circle fill="#FAE207" cx="221.427" cy="264.291" r="29.168"/>
	<ellipse fill="#476FA7" cx="363.263" cy="108.5" rx="18.668" ry="19.135"/>
	<path fill="#F47522" d="M249.136,259.706c0,11.445-9.162,20.725-20.467,20.725c-11.299,0-20.461-9.279-20.461-20.725
		c0-11.447,9.162-20.728,20.461-20.728C239.974,238.978,249.136,248.259,249.136,259.706z"/>
	
		<ellipse transform="matrix(0.7314 -0.6819 0.6819 0.7314 -109.4999 227.7973)" fill="#1A1113" cx="234.438" cy="252.909" rx="8.15" ry="10.379"/>
	
		<ellipse transform="matrix(0.7631 -0.6462 0.6462 0.7631 10.8425 257.9492)" fill="#1A1113" cx="357.309" cy="114.184" rx="7.426" ry="9.459"/>
	<path fill="#DF5244" d="M418.588,248.013h101.384c0,0,3.147-0.048,5.615-2.073c2.528-2.071,2.528-4.707,2.528-4.707V109.671
		c0,0,0.129-2.605-1.476-4.958c-2.41-3.538-6.668-3.387-6.668-3.387H418.588V248.013z"/>
	<path fill="#DF5244" d="M525.965,297.348c-1.394,1.171-2.997,1.211-2.997,1.211h-104.38v-39.167h104.38c0,0,2.646,0,3.482,1.284
		c0.775,1.19,0.836,2.652,0.836,2.652v30.755C527.286,294.083,527.356,296.175,525.965,297.348z"/>
	<path fill="#DF5244" d="M55.849,105.654"/>
	<path fill="#DF5244" d="M143.599,248.013H52.96c0,0-2.813-0.048-5.02-2.073c-2.261-2.071-2.261-4.707-2.261-4.707V109.671
		c0,0-0.115-2.605,1.318-4.958c2.157-3.538,5.962-3.387,5.962-3.387h90.639V248.013z"/>
	<path fill="#DF5244" d="M47.604,297.348c1.245,1.171,2.679,1.211,2.679,1.211h93.316v-39.167H50.282c0,0-2.366,0-3.114,1.284
		c-0.693,1.19-0.747,2.652-0.747,2.652v30.755C46.421,294.083,46.358,296.175,47.604,297.348z"/>
	<path fill="#F7F5F6" stroke="#F7F5F6" stroke-miterlimit="10" d="M251.735,184.684"/>
	
		<ellipse fill="none" stroke="#F7F5F6" stroke-width="3" stroke-miterlimit="10" cx="242.27" cy="134.292" rx="50.089" ry="51.286"/>
	<path fill="none" stroke="#F7F5F6" stroke-width="5" stroke-miterlimit="10" d="M208.444,175.122c0,0,24.366-6.074,48.158-30.347
		c23.789-24.273,26.461-43.903,26.461-43.903"/>
	<path fill="none" stroke="#F7F5F6" stroke-miterlimit="10" d="M300.268,105.269"/>
</g>
<g id="Layer_2_copy" display="none">
	<rect x="79" y="146.225" fill="#1A1113" width="329" height="148"/>
	<rect x="151" y="98.225" fill="#1A1113" width="187" height="226"/>
	<rect x="160.5" y="128.225" fill="#F7F5F6" width="166" height="166"/>
	<path fill="#DF5244" d="M151,226.225c0,13.255-10.746,24-24,24h-17c-13.254,0-24-10.745-24-24v-47c0-13.255,10.746-24,24-24h17
		c13.254,0,24,10.745,24,24V226.225z"/>
	<path fill="#DF5244" d="M86,274.224c0,6.627,5.373,12,12,12h41c6.627,0,12-5.373,12-12v-2c0-6.627-5.373-12-12-12H98
		c-6.627,0-12,5.373-12,12V274.224z"/>
	<path fill="#DF5244" d="M338,238.296c0,6.627,5.373,12,12,12h41c6.627,0,12-5.373,12-12v-71c0-6.627-5.373-12-12-12h-41
		c-6.627,0-12,5.373-12,12V238.296z"/>
	<path fill="#DF5244" d="M403,274.224c0,6.627-5.373,12-12,12h-41c-6.627,0-12-5.373-12-12v-2c0-6.627,5.373-12,12-12h41
		c6.627,0,12,5.373,12,12V274.224z"/>
</g>
<g id="Layer_2_copy_4" display="none">
	<rect x="79" y="146.225" fill="#1A1113" width="329" height="148"/>
	<rect x="151" y="98.225" fill="#1A1113" width="187" height="226"/>
	<rect x="160.5" y="128.225" fill="#F7F5F6" width="166" height="166"/>
	<path fill="#DF5244" d="M151,226.225c0,13.255-10.746,24-24,24h-17c-13.254,0-24-10.745-24-24v-47c0-13.255,10.746-24,24-24h17
		c13.254,0,24,10.745,24,24V226.225z"/>
	<path fill="#DF5244" d="M86,274.224c0,6.627,5.373,12,12,12h41c6.627,0,12-5.373,12-12v-2c0-6.627-5.373-12-12-12H98
		c-6.627,0-12,5.373-12,12V274.224z"/>
	<path fill="#DF5244" d="M338,238.296c0,6.627,5.373,12,12,12h41c6.627,0,12-5.373,12-12v-71c0-6.627-5.373-12-12-12h-41
		c-6.627,0-12,5.373-12,12V238.296z"/>
	<path fill="#DF5244" d="M403,274.224c0,6.627-5.373,12-12,12h-41c-6.627,0-12-5.373-12-12v-2c0-6.627,5.373-12,12-12h41
		c6.627,0,12,5.373,12,12V274.224z"/>
</g>
<g id="Layer_2_copy_2" display="none">
	<rect x="79" y="146.225" fill="#1A1113" width="329" height="148"/>
	<rect x="151" y="98.225" fill="#1A1113" width="187" height="226"/>
	<rect x="160.5" y="128.225" fill="#F7F5F6" width="166" height="166"/>
	<path fill="#DF5244" d="M151,226.225c0,13.255-10.746,24-24,24h-17c-13.254,0-24-10.745-24-24v-47c0-13.255,10.746-24,24-24h17
		c13.254,0,24,10.745,24,24V226.225z"/>
	<path fill="#DF5244" d="M86,274.224c0,6.627,5.373,12,12,12h41c6.627,0,12-5.373,12-12v-2c0-6.627-5.373-12-12-12H98
		c-6.627,0-12,5.373-12,12V274.224z"/>
	<path fill="#DF5244" d="M338,238.296c0,6.627,5.373,12,12,12h41c6.627,0,12-5.373,12-12v-71c0-6.627-5.373-12-12-12h-41
		c-6.627,0-12,5.373-12,12V238.296z"/>
	<path fill="#DF5244" d="M403,274.224c0,6.627-5.373,12-12,12h-41c-6.627,0-12-5.373-12-12v-2c0-6.627,5.373-12,12-12h41
		c6.627,0,12,5.373,12,12V274.224z"/>
</g>
</svg>
