<?xml version="1.0" encoding="utf-8"?>
<!-- Generator: Adobe Illustrator 16.0.0, SVG Export Plug-In . SVG Version: 6.00 Build 0)  -->
<!DOCTYPE svg PUBLIC "-//W3C//DTD SVG 1.1//EN" "http://www.w3.org/Graphics/SVG/1.1/DTD/svg11.dtd">
<svg version="1.1" id="Layer_1" xmlns="http://www.w3.org/2000/svg" xmlns:xlink="http://www.w3.org/1999/xlink" x="0px" y="0px"
	 width="595.28px" height="401.094px" viewBox="0 0 595.28 401.094" enable-background="new 0 0 595.28 401.094"
	 xml:space="preserve">
<g>
	<path fill="#241A18" d="M547.724,273.473c0,9.981-8.448,20.108-18.454,20.108H69.097c-10.006,0-18.119-8.094-18.119-18.077V82.399
		c0-9.983,8.113-18.077,18.119-18.077h460.507c10.004,0,18.12,8.094,18.12,18.077V273.473z"/>
	<path fill="#241A18" d="M431.417,287.556c0,8.441-19.147,28.111-29.064,28.111H173.938c-9.916,0-17.955-6.842-17.955-15.783V64.322
		c0,0,12.336-36.384,26.934-36.384c11.172,0,221.506,0,221.506,0c14.125,0,26.995,11.057,26.995,24.315V287.556z"/>
	<path fill="#FBFAFB" stroke="#FBFAFB" stroke-miterlimit="10" d="M422.439,269.479c0,9.982-7.683,18.077-17.158,18.077H202.258
		c-9.475,0-17.157-8.095-17.157-18.077V55.566c0-9.984,7.683-18.078,17.157-18.078h203.023c9.476,0,17.158,8.094,17.158,18.078
		V269.479z"/>
	<ellipse fill="#241A18" cx="234.257" cy="241.233" rx="38.158" ry="37.429"/>
	<ellipse fill="#241A18" cx="381.089" cy="79.273" rx="34.768" ry="34.104"/>
	<circle fill="#65BFEC" cx="380.501" cy="79.272" r="26.577"/>
	<circle fill="#FEE200" cx="234.256" cy="241.235" r="29.168"/>
	<ellipse fill="#476BA6" cx="376.092" cy="85.444" rx="18.668" ry="19.135"/>
	<path fill="#ED6C0B" d="M261.965,236.649c0,11.445-9.162,20.725-20.467,20.725c-11.299,0-20.461-9.279-20.461-20.725
		c0-11.446,9.162-20.728,20.461-20.728C252.803,215.922,261.965,225.203,261.965,236.649z"/>
	<path fill="#241A18" d="M253.229,224.296c3.907,4.191,4.411,10.079,1.117,13.148c-3.293,3.07-9.13,2.16-13.039-2.033
		c-3.909-4.195-4.409-10.08-1.119-13.15C243.48,219.192,249.317,220.103,253.229,224.296z"/>
	
		<ellipse transform="matrix(0.7631 -0.6462 0.6462 0.7631 28.7804 260.7789)" fill="#241A18" cx="370.138" cy="91.128" rx="7.426" ry="9.459"/>
	<path fill="#BE1823" d="M431.417,224.957h101.384c0,0,3.147-0.048,5.615-2.073c2.528-2.07,2.528-5.707,2.528-5.707V86.615
		c0,0,0.129-2.604-1.476-4.959c-2.41-3.537-6.668-3.387-6.668-3.387H431.417V224.957z"/>
	<path fill="#BE1622" d="M538.794,274.293c-1.394,1.17-2.997,1.211-2.997,1.211h-104.38v-39.167h104.38c0,0,2.646,0,3.482,1.283
		c0.775,1.191,0.836,2.652,0.836,2.652v30.755C540.115,271.027,540.186,273.119,538.794,274.293z"/>
	<path fill="#DD4739" d="M68.678,82.599"/>
	<path fill="#BE1622" d="M156.428,224.957H65.789c0,0-2.813-0.048-5.02-2.073c-2.261-2.07-2.261-4.707-2.261-4.707V86.615
		c0,0-0.115-2.604,1.318-4.959c2.157-3.537,5.962-3.387,5.962-3.387h90.639V224.957z"/>
	<path fill="#BE1622" d="M60.433,274.293c1.245,1.17,2.679,1.211,2.679,1.211h93.316v-39.167H63.111c0,0-2.366,0-3.114,1.283
		c-0.693,1.191-0.747,2.652-0.747,2.652v30.755C59.25,271.027,59.188,273.119,60.433,274.293z"/>
	<path fill="#FBFAFB" stroke="#FBFAFB" stroke-miterlimit="10" d="M264.564,161.628"/>
	<g>
		<path fill="#241A18" d="M296.49,85.228c-2.781,8.041-9.487,22.135-25.273,38.242c-17.133,17.479-34.408,25.675-43.275,29.031
			c7.758,5.378,17.106,8.521,27.158,8.521c26.791,0,48.588-22.334,48.588-49.786C303.688,101.704,301.045,92.802,296.49,85.228z"/>
		<path fill="#241A18" d="M223.297,148.829c6.816-2.303,25.844-9.98,44.35-28.859c18.096-18.465,23.657-34.109,25.214-39.991
			c-1.39-1.758-2.885-3.426-4.491-4.976c-8.848-7.87-20.496-12.658-33.27-12.658c-12.774,0-24.425,4.788-33.272,12.659
			c-9.42,9.087-15.317,21.964-15.317,36.232C206.51,126.233,213.024,139.693,223.297,148.829z"/>
	</g>
	<path fill="none" stroke="#FBFAFB" stroke-miterlimit="10" d="M313.097,82.214"/>
	<g>
		<path fill="#241A18" d="M303.185,133.763c-5.317,12.129-14.971,21.852-26.941,27.066
			c29.753,27.795,111.725,103.991,115.384,103.267c6.104-1.209,9.508-6.026,9.743-10.288
			C401.509,251.226,324.881,159.64,303.185,133.763z"/>
	</g>
</g>
<g>
	<g>
		<path stroke="#000000" stroke-width="3" stroke-linecap="round" stroke-linejoin="round" stroke-miterlimit="10" d="
			M265.322,356.88c0.16-1.053,0.24-2.152,0.24-3.266c0-5.029-1.326-9.002-3.943-11.811c-2.65-2.834-6.415-4.27-11.191-4.27
			c-4.449,0-8.057,1.207-10.762,3.57l0.004-0.025l-0.267,0.268c-0.189,0.174-0.388,0.338-0.567,0.525
			c-0.082,0.086-0.148,0.184-0.229,0.27l-1.613,1.613c-0.256,0.221-0.502,0.451-0.738,0.697c-0.318,0.33-0.613,0.678-0.895,1.037
			l-0.801-1.258c-1.467-2.303-3.33-4.023-5.539-5.107c-2.163-1.057-4.965-1.59-8.328-1.59c-2.869,0-5.387,0.471-7.484,1.398
			c-1.912,0.84-3.418,1.971-4.535,3.334l-1.145,1.143c-0.738,0.602-1.383,1.262-1.898,1.998c-0.534,0.758-0.934,1.551-1.225,2.369
			c-0.281-2.984-1.352-5.389-3.212-7.152c-2.161-2.053-5.003-3.09-8.448-3.09c-2.438,0-4.634,0.541-6.527,1.613
			c-0.52,0.295-1.017,0.633-1.482,1.01l-0.094-2.066h-10.209l-2.579,2.578h-0.001v7.137c-0.645-2.369-1.709-4.385-3.215-6.002
			c-2.651-2.834-6.417-4.27-11.193-4.27c-4.809,0-8.639,1.406-11.402,4.164c0-0.004,0.005-0.023,0.005-0.023l-2.417,2.418v-6.002
			h-3.092l1.704-1.705l1.794-8.59l-0.866-0.656c-0.774-0.588-1.797-1.047-3.038-1.357c-1.156-0.293-2.432-0.443-3.79-0.443
			c-3.641,0-6.601,0.953-8.796,2.834c-0.154,0.131-0.283,0.279-0.426,0.418l-0.01-0.02l-2.629,2.641
			c-0.113,0.111-0.229,0.221-0.335,0.338l-0.049,0.049l0.004,0.004c-1.524,1.678-2.377,3.854-2.542,6.488h-2.304l-2.581,2.578v1.385
			c-0.071-0.082-0.135-0.172-0.209-0.25c-2.65-2.834-6.416-4.27-11.191-4.27c-4.81,0-8.64,1.406-11.402,4.164
			c0-0.004,0.004-0.023,0.004-0.023l-2.635,2.635c0,0,0.012-0.002,0.014-0.002c-0.049,0.049-0.104,0.094-0.152,0.145
			c-1.062,1.1-1.918,2.371-2.574,3.799c-0.184-5.818-1.914-10.455-5.191-13.768c-3.475-3.518-8.383-5.301-14.588-5.301H52.836
			l-2.58,2.58v40.18H66.17c6.1,0,10.938-1.73,14.398-5.127l-0.002,0.014l0.121-0.121c0.022-0.021,0.047-0.041,0.07-0.063
			c0.018-0.018,0.031-0.039,0.049-0.057l2.04-2.039l-0.064,0.016c0.183-0.17,0.38-0.324,0.556-0.502
			c1.602-1.619,2.82-3.564,3.688-5.797c0.335,4.104,1.741,7.434,4.205,9.912c2.847,2.867,6.854,4.322,11.908,4.322
			c3.435,0,6.368-0.662,8.717-1.971c1.214-0.678,2.251-1.521,3.124-2.51l1.77-1.771c1.266-1.168,2.256-2.584,2.926-4.258
			l0.656-1.645l-1.752-0.641l1.367-1.367l0.222-1.457c0.159-1.049,0.241-2.148,0.241-3.268c0-1.359-0.111-2.629-0.309-3.832h1.419
			v22.16h11.065l2.58-2.578v-19.582h4.93c-0.651,1.941-0.981,4.133-0.981,6.523c0,5.014,1.442,9.008,4.288,11.873
			c2.846,2.867,6.853,4.322,11.908,4.322c3.435,0,6.367-0.662,8.716-1.971c1.216-0.678,2.255-1.523,3.128-2.514l1.764-1.764
			c1.268-1.17,2.258-2.586,2.928-4.262l0.008-0.021v9.973h11.065h0.001l2.58-2.578v-16.416c0-1.248,0.18-2.27,0.497-3.109
			c0.493-0.178,1.02-0.277,1.607-0.277c1.132,0,3.237,0,3.237,4.629v17.752h11.064l2.58-2.578v-1.566
			c2.85,3.121,7.291,4.703,13.236,4.703c4.396,0,7.889-0.902,10.38-2.684c1.047-0.748,1.885-1.6,2.526-2.547
			c0.017-0.014,0.037-0.023,0.055-0.035c1.273-0.91,2.24-1.975,2.912-3.18c0.693,1.559,1.615,2.943,2.789,4.125
			c2.846,2.867,6.853,4.32,11.907,4.32c3.436,0,6.368-0.662,8.716-1.971c0.807-0.449,1.533-0.971,2.188-1.559
			c-0.004,0.01-0.014,0.033-0.014,0.033l3.063-3.063c0,0-0.018,0.008-0.023,0.01c1.115-1.109,1.994-2.428,2.607-3.961l0.656-1.645
			l-1.752-0.641l1.366-1.367L265.322,356.88z M73.08,358.776c-1.254,0.688-2.814,1.027-4.719,1.027h-4.405v-18.482h1.824
			c2.985,0,5.133,0.832,6.564,2.537c1.487,1.766,2.241,4.455,2.241,7.994C74.586,354.743,74.074,357.058,73.08,358.776z
			 M100.875,349.56c0.02-0.051,0.042-0.096,0.061-0.146c0.502-0.158,1.063-0.244,1.703-0.244c0.757,0,1.406,0.139,1.98,0.391
			H100.875z M134.833,338.091v-1.033c0.161-0.01,0.308-0.025,0.488-0.025c0.915,0,1.667,0.188,2.235,0.559l0.764,0.5H134.833z
			 M153.047,349.56c0.018-0.051,0.041-0.096,0.061-0.146c0.502-0.158,1.062-0.244,1.701-0.244c0.757,0,1.406,0.139,1.98,0.391
			H153.047z M171.854,360.108l-1.296-0.473l1.296-1.297V360.108z M204.486,363.304v-9.059c0.53,1.371,1.393,2.561,2.609,3.541
			c0.488,0.395,1.058,0.768,1.692,1.111L204.486,363.304z M232.283,353.403c-0.236-0.232-0.49-0.455-0.762-0.668
			c-0.682-0.531-1.526-1.023-2.502-1.471l3.766-3.188l2.541-2.547C233.677,347.651,232.667,350.294,232.283,353.403z
			 M246.027,349.56c0.02-0.051,0.042-0.098,0.063-0.146c0.501-0.158,1.061-0.244,1.701-0.244c0.756,0,1.406,0.139,1.98,0.391
			H246.027z"/>
		<path stroke="#000000" stroke-width="3" stroke-linecap="round" stroke-linejoin="round" stroke-miterlimit="10" d="
			M313.451,363.569c0.074-0.492,0.113-1.01,0.113-1.531c0-2.387-0.65-4.293-1.932-5.668c-1.314-1.408-3.15-2.119-5.457-2.119
			c-2.355,0-4.246,0.719-5.613,2.135c-0.395,0.408-0.721,0.879-1.004,1.387c-0.074,0.039-0.145,0.082-0.217,0.125
			c-0.283-0.809-0.717-1.504-1.313-2.07c-1.104-1.047-2.535-1.576-4.252-1.576c-0.736,0-1.431,0.105-2.071,0.313v-4.359
			c0.411-0.426,0.757-0.9,1.044-1.414c0.203-0.113,0.398-0.238,0.588-0.369v3.713h6.658l2.582-2.582v-6.785h0.996l0,0l2.58-2.578
			v-5.834h-0.506l0.787-3.775l-0.869-0.656c-0.434-0.328-0.984-0.576-1.639-0.742c-0.572-0.145-1.193-0.217-1.844-0.217
			c-1.783,0-3.25,0.482-4.361,1.434c-0.109,0.094-0.189,0.209-0.289,0.311c-0.006-0.01-0.016-0.025-0.016-0.025l-2.686,2.686
			l0.023,0.014c-0.271,0.301-0.516,0.619-0.711,0.973l-0.172,0.289c-0.146,0.314-0.26,0.648-0.344,0.998
			c-1.303-0.998-2.945-1.525-4.93-1.525c-2.327,0-4.203,0.697-5.584,2.068l-0.002-0.004l-0.064,0.064
			c-0.004,0.004-0.008,0.008-0.012,0.012c-0.002,0.002-0.004,0.004-0.006,0.006l-2.575,2.574c-1.38,1.408-2.079,3.324-2.079,5.695
			c0,2.369,0.699,4.287,2.078,5.697c0.215,0.221,0.445,0.418,0.686,0.602l-4.891,1.357l-2.141,2.297v0.162l-0.44,0.123l-2.14,2.295
			v5.832h2.14v4.332c0,3.352,2.059,5.271,5.648,5.271c0.792,0,1.564-0.111,2.295-0.332c0.319-0.096,0.629-0.217,0.952-0.379v0.475
			h6.66l1.365-1.363v1.363h6.658l1.418-1.416c1.342,1.096,3.094,1.652,5.219,1.652c1.625,0,3.027-0.322,4.166-0.959
			c0.475-0.264,0.887-0.588,1.256-0.951l0.004,0.006l0.102-0.102c0.014-0.014,0.027-0.025,0.041-0.039l2.727-2.727
			c0.463-0.514,0.834-1.107,1.104-1.785l0.654-1.643l-0.475-0.174L313.451,363.569z M282.811,351.913v-0.105
			c0.09,0.035,0.174,0.074,0.265,0.105H282.811z"/>
		<path stroke="#000000" stroke-width="3" stroke-linecap="round" stroke-linejoin="round" stroke-miterlimit="10" d="
			M548.557,358.294l0.225-1.455c0.16-1.031,0.24-2.127,0.24-3.26c0-5.016-1.322-8.977-3.928-11.773
			c-2.643-2.826-6.396-4.262-11.158-4.262c-4.9,0-8.791,1.455-11.563,4.328c-0.381,0.395-2.107,2.092-2.58,2.582
			c-0.699,0.725-1.309,1.525-1.832,2.395c-0.855-2.803-2.459-5.076-4.771-6.754c-2.328-1.693-5.543-2.551-9.555-2.551
			c-4.295,0-7.834,1.119-10.543,3.328c0.006-0.053-0.842,0.764-0.842,0.764c-0.078,0.076-0.168,0.143-0.246,0.223
			c-0.047,0.049-0.084,0.104-0.133,0.154l-2.145,2.146c-0.102,0.094-0.205,0.182-0.303,0.279c-0.049,0.051-0.088,0.109-0.135,0.158
			l-0.215,0.215h0.029c-1.471,1.607-2.533,3.541-3.176,5.797v-1.242c0-3.73-1.104-6.672-3.281-8.74
			c-2.154-2.043-4.988-3.082-8.426-3.082c-2.428,0-4.617,0.541-6.508,1.609c-0.512,0.291-1.004,0.627-1.467,1.004l-0.094-2.057
			h-10.186l-2.582,2.58v7.047c-0.643-2.338-1.697-4.326-3.188-5.922c-2.639-2.826-6.395-4.262-11.156-4.262
			c-4.902,0-8.791,1.455-11.561,4.328c-0.379,0.393-2.109,2.09-2.582,2.58c-1.785,1.854-2.988,4.188-3.619,6.959v-13.311h-2.781
			l2.008-2.008l-0.014-0.01c1.416-1.246,1.73-3.033,1.73-4.313c0-2.176-0.836-5.824-6.436-5.824c-2.268,0-3.75,0.602-4.715,1.459
			l0,0l-2.645,2.656c-0.1,0.092-0.195,0.186-0.285,0.283L408,330.489c0,0,0.002,0.014,0.002,0.027
			c-0.986,1.203-1.229,2.711-1.229,3.832c0,1.096,0.221,2.568,1.17,3.752h-7.197v-9.033l-11.037,3.064l-2.58,2.58l0,0v3.389h-2.469
			l-2.58,2.58v1.164c-0.426-0.488-0.889-0.947-1.418-1.357c-2.52-1.953-5.992-2.943-10.32-2.943c-3.66,0-6.701,0.787-9.045,2.338
			c-0.738,0.49-1.391,1.045-1.975,1.648l0.008-0.02l-3.227,3.227c0.082-0.656,0.139-1.326,0.139-2.033
			c0-4.238-1.395-7.596-4.141-9.982c-2.68-2.32-6.402-3.498-11.061-3.498h-17.088l-2.58,2.58l0,0v40.059h11.092l0,0l2.58-2.58
			v-10.736h3.416c4.656,0,8.375-1.168,11.053-3.469c0.01-0.008,0.018-0.018,0.027-0.025l-0.012,0.041l3.373-3.371
			c0.045-0.047,0.096-0.092,0.139-0.139l0.016-0.016h-0.004c0.273-0.295,0.533-0.604,0.771-0.922l6.619,2.791
			c-0.629,0.412-1.184,0.861-1.674,1.342l-0.002-0.002l-2.748,2.748c-0.063,0.066-0.133,0.129-0.193,0.195l-0.371,0.371l0.045,0.029
			c-1.246,1.529-1.885,3.354-1.885,5.477c0,2.83,0.98,5.053,2.912,6.607c1.822,1.469,4.313,2.213,7.406,2.213
			c2.545,0,4.801-0.396,6.703-1.182c1.021-0.422,1.928-0.963,2.699-1.605c1.4,1.85,3.686,2.787,6.801,2.787
			c1.631,0,3.1-0.322,4.373-0.955l0.832-0.414l2.578-2.578l0.002-0.002l0.156-1.305c1.551,3.416,4.977,5.254,10.035,5.254
			c1.643,0,3.238-0.229,4.74-0.682c1.557-0.469,2.881-1.129,3.932-1.967l0.85-0.672l0.027-0.031v2.797h11.035l2.58-2.58h0.002
			v-8.217c0.646,2.809,1.891,5.172,3.748,7.039c2.84,2.863,6.834,4.313,11.877,4.313c3.426,0,6.348-0.66,8.689-1.963
			c0.768-0.43,1.467-0.926,2.1-1.482l0.004,0.02l3.205-3.203c1.059-1.08,1.891-2.359,2.482-3.834v9.908h11.039l2.58-2.58v-16.367
			c0-1.236,0.178-2.252,0.492-3.088c0.49-0.174,1.012-0.275,1.594-0.275c1.127,0,3.221,0,3.221,4.611v17.699h11.037l2.58-2.58
			v-7.363c0.693,2.434,1.863,4.512,3.531,6.186c2.836,2.863,6.83,4.313,11.871,4.313c3.783,0,6.945-0.871,9.396-2.586
			c0.469-0.33,0.896-0.688,1.299-1.061v0.01l0.104-0.104c0.141-0.131,0.271-0.266,0.402-0.4l2.375-2.377l-0.006-0.002
			c0.779-0.766,1.447-1.605,1.975-2.539c0.711,1.82,1.721,3.412,3.047,4.746c2.838,2.863,6.834,4.313,11.873,4.313
			c3.43,0,6.352-0.66,8.689-1.963c0.854-0.477,1.615-1.039,2.297-1.672l0.004,0.002l0.283-0.285
			c0.154-0.152,0.316-0.299,0.461-0.461l1.947-1.947c0.076-0.07,0.146-0.146,0.219-0.221l0.383-0.379l-0.053,0.014
			c0.943-1.027,1.717-2.207,2.264-3.572l0.66-1.645l-1.748-0.641L548.557,358.294z M342.354,346.341
			c-0.686,0.168-1.512,0.252-2.479,0.252h-4.83v-5.25h2.25c1.916,0,3.342,0.34,4.117,0.986c0.703,0.59,1.045,1.537,1.045,2.898
			C342.457,345.64,342.416,346.001,342.354,346.341z M365.961,349.937c0.053-0.207,0.117-0.387,0.18-0.572
			c0.568-0.164,1.217-0.254,1.955-0.254c1.012,0,1.721,0.246,2.229,0.779c0.078,0.08,0.139,0.176,0.205,0.268l-2.104,0.404
			c-0.982,0.182-1.908,0.391-2.773,0.631L365.961,349.937z M371.094,360.896c-0.693,0.221-1.424,0.346-2.193,0.346
			c-0.416,0-0.758-0.059-1.002-0.164l3.195-0.719V360.896z M387.129,360.854l-0.766,0.242c-0.17,0.053-0.572,0.145-1.369,0.145
			c-0.135,0-0.236-0.01-0.311-0.023c-0.014-0.072-0.027-0.191-0.027-0.369v-11.074h2.473V360.854z M407.662,358.091l-1.645,1.393
			c-0.908,0.773-1.943,1.148-3.158,1.148c-1.619,0-2.113-0.494-2.113-2.113v-8.744h6.41l0.506-0.506V358.091z M434.66,349.532
			c0.018-0.045,0.037-0.084,0.055-0.127c0.498-0.154,1.053-0.24,1.686-0.24c0.75,0,1.381,0.127,1.941,0.367H434.66z
			 M453.385,360.042l-1.055-0.385l1.055-1.057V360.042z M515.701,357.692l-7.471-2.41l-2.578,2.582l-0.352,1.932
			c-0.053,0.291-0.115,0.557-0.189,0.807c-0.393,0.086-0.82,0.141-1.311,0.141c-1.602,0-2.748-0.496-3.607-1.563
			c-0.922-1.135-1.389-2.963-1.389-5.436c0-1.725,0.23-3.139,0.674-4.242c0.531-0.176,1.111-0.285,1.797-0.285
			c2.109,0,3.18,1.064,3.699,3.672l0.389,1.959l10.512-3.785l0.531-0.531c-0.494,1.73-0.756,3.639-0.756,5.738
			C515.65,356.757,515.676,357.226,515.701,357.692z M529.555,349.532c0.016-0.045,0.035-0.084,0.053-0.127
			c0.498-0.154,1.055-0.24,1.691-0.24c0.734,0,1.367,0.129,1.928,0.367H529.555z"/>
	</g>
	<g>
		<g>
			<path fill="#FFFFFF" d="M82.115,335.688c3.152,3.189,4.732,7.723,4.732,13.584c0,5.865-1.58,10.395-4.732,13.584
				c-3.156,3.195-7.61,4.789-13.365,4.789H54.555v-36.746H68.75C74.505,330.899,78.959,332.495,82.115,335.688z M76.24,358.378
				c1.764-2.098,2.645-5.131,2.645-9.105s-0.881-7.006-2.645-9.102c-1.762-2.1-4.391-3.146-7.879-3.146h-6.124v24.496h6.124
				C71.85,361.521,74.479,360.476,76.24,358.378z"/>
			<path fill="#FFFFFF" d="M118.471,356.622H98.76c0.779,3.934,3.1,5.902,6.961,5.902c1.596,0,2.912-0.299,3.953-0.891
				c1.039-0.594,1.762-1.449,2.172-2.561l6.234,2.279c-0.891,2.229-2.385,3.928-4.481,5.098c-2.099,1.17-4.723,1.752-7.878,1.752
				c-4.603,0-8.166-1.273-10.689-3.814c-2.526-2.543-3.789-6.094-3.789-10.66c0-4.568,1.226-8.121,3.678-10.662
				c2.449-2.541,5.902-3.814,10.355-3.814c4.305,0,7.616,1.246,9.938,3.729c2.318,2.488,3.479,6.035,3.479,10.635
				C118.691,354.655,118.618,355.657,118.471,356.622z M100.791,346.491c-1.093,1.076-1.789,2.668-2.086,4.785h12.973
				c-0.297-2.076-1.001-3.666-2.115-4.758c-1.115-1.098-2.561-1.648-4.343-1.648C103.363,344.87,101.887,345.413,100.791,346.491z"
				/>
			<path fill="#FFFFFF" d="M133.115,339.808h8.797v5.678h-8.465v22.16h-7.629v-22.16h-4.844v-5.678h4.844v-3.34
				c0-3.045,0.949-5.375,2.842-6.986c1.892-1.619,4.455-2.424,7.683-2.424c1.226,0,2.347,0.131,3.368,0.391
				c1.02,0.256,1.829,0.611,2.422,1.059l-1.057,5.066c-0.855-0.557-1.912-0.84-3.174-0.84c-3.193,0-4.787,1.434-4.787,4.291V339.808
				z"/>
			<path fill="#FFFFFF" d="M170.641,356.622h-19.709c0.778,3.934,3.098,5.902,6.959,5.902c1.597,0,2.912-0.299,3.953-0.891
				c1.04-0.594,1.762-1.449,2.172-2.561l6.234,2.279c-0.89,2.229-2.385,3.928-4.48,5.098c-2.098,1.17-4.723,1.752-7.879,1.752
				c-4.602,0-8.166-1.273-10.688-3.814c-2.527-2.543-3.79-6.094-3.79-10.66c0-4.568,1.226-8.121,3.678-10.662
				c2.448-2.541,5.901-3.814,10.354-3.814c4.306,0,7.617,1.246,9.938,3.729c2.32,2.488,3.48,6.035,3.48,10.635
				C170.863,354.655,170.789,355.657,170.641,356.622z M152.963,346.491c-1.094,1.076-1.79,2.668-2.086,4.785h12.973
				c-0.299-2.076-1.002-3.666-2.117-4.758c-1.114-1.098-2.561-1.648-4.343-1.648C155.534,344.87,154.058,345.413,152.963,346.491z"
				/>
			<path fill="#FFFFFF" d="M200.012,341.87c1.836,1.742,2.758,4.25,2.758,7.516v18.26h-7.629V351.61c0-4.232-1.652-6.35-4.955-6.35
				c-1.783,0-3.297,0.637-4.537,1.896c-1.244,1.264-1.867,3.195-1.867,5.791v14.697h-7.629v-27.838h6.85l0.223,4.957
				c0.928-1.82,2.207-3.195,3.842-4.125c1.633-0.922,3.527-1.389,5.68-1.389C195.752,339.251,198.174,340.126,200.012,341.87z"/>
			<path fill="#FFFFFF" d="M207.387,362.856l4.455-4.563c0.74,1.594,1.807,2.719,3.201,3.367c1.391,0.648,3.108,0.973,5.148,0.973
				c1.635,0,2.896-0.221,3.787-0.666c0.89-0.447,1.336-1.059,1.336-1.838c0-0.629-0.416-1.17-1.253-1.613
				c-0.835-0.449-2.273-0.877-4.315-1.281c-4.268-0.852-7.266-1.977-8.992-3.367c-1.724-1.391-2.588-3.277-2.588-5.656
				c0-1.559,0.481-3.021,1.449-4.395c0.963-1.373,2.392-2.479,4.285-3.313c1.895-0.838,4.157-1.254,6.793-1.254
				c3.119,0,5.641,0.473,7.574,1.416c1.928,0.947,3.543,2.443,4.844,4.486l-4.733,4.006c-0.817-1.48-1.828-2.578-3.036-3.285
				c-1.205-0.701-2.719-1.053-4.537-1.053c-1.523,0-2.736,0.258-3.646,0.777c-0.91,0.521-1.363,1.15-1.363,1.893
				c0,0.779,0.443,1.428,1.334,1.949c0.893,0.521,2.47,1,4.733,1.445c4.046,0.82,6.913,1.887,8.603,3.205
				c1.689,1.316,2.535,3.145,2.535,5.482c0,2.602-1.105,4.688-3.314,6.264c-2.209,1.578-5.336,2.365-9.383,2.365
				C214.105,368.202,209.799,366.423,207.387,362.856z"/>
			<path fill="#FFFFFF" d="M263.623,356.622h-19.711c0.779,3.934,3.1,5.902,6.961,5.902c1.596,0,2.913-0.299,3.953-0.891
				c1.04-0.594,1.762-1.449,2.172-2.561l6.234,2.279c-0.891,2.229-2.385,3.928-4.48,5.098c-2.098,1.17-4.725,1.752-7.879,1.752
				c-4.602,0-8.166-1.273-10.689-3.814c-2.527-2.543-3.788-6.094-3.788-10.66c0-4.568,1.226-8.121,3.677-10.662
				c2.449-2.541,5.902-3.814,10.355-3.814c4.305,0,7.617,1.246,9.938,3.729c2.318,2.488,3.479,6.035,3.479,10.635
				C263.845,354.655,263.77,355.657,263.623,356.622z M245.945,346.491c-1.095,1.076-1.79,2.668-2.087,4.785h12.972
				c-0.297-2.076-1.001-3.666-2.116-4.758c-1.114-1.098-2.56-1.648-4.343-1.648C248.516,344.87,247.039,345.413,245.945,346.491z"/>
		</g>
		<g>
			<g>
				<path fill="#FFFFFF" d="M293.035,337.458c1.059,1.082,1.59,2.582,1.59,4.494c0,1.916-0.531,3.414-1.59,4.496
					s-2.537,1.623-4.435,1.623c-1.899,0-3.377-0.541-4.437-1.623c-1.059-1.082-1.588-2.58-1.588-4.496
					c0-1.912,0.529-3.412,1.588-4.494c1.06-1.084,2.537-1.623,4.437-1.623C290.498,335.835,291.977,336.374,293.035,337.458z
					 M286.518,339.163c-0.479,0.621-0.719,1.551-0.719,2.789c0,1.24,0.24,2.172,0.719,2.787c0.479,0.621,1.174,0.932,2.083,0.932
					s1.604-0.311,2.082-0.932c0.479-0.615,0.718-1.547,0.718-2.787c0-1.238-0.238-2.168-0.718-2.789
					c-0.479-0.619-1.173-0.93-2.082-0.93S286.996,338.544,286.518,339.163z"/>
				<path fill="#FFFFFF" d="M300.721,336.069h3.717v2.4h-3.578v9.365h-3.223v-9.365h-2.047v-2.4h2.047v-1.41
					c0-1.287,0.398-2.271,1.201-2.953c0.799-0.686,1.883-1.023,3.246-1.023c0.518,0,0.992,0.053,1.424,0.164
					c0.432,0.109,0.773,0.26,1.023,0.447l-0.447,2.143c-0.359-0.238-0.807-0.355-1.342-0.355c-1.348,0-2.021,0.605-2.021,1.813
					V336.069z"/>
			</g>
			<g>
				<path fill="#FFFFFF" d="M285.023,367.239c-0.377,0.297-0.853,0.533-1.425,0.705c-0.573,0.174-1.173,0.258-1.8,0.258
					c-2.621,0-3.93-1.184-3.93-3.553v-6.049h-2.142v-2.398h2.142v-2.705l3.224-0.895v3.6h3.812v2.398h-3.812v5.531
					c0,1.082,0.541,1.625,1.624,1.625c0.688,0,1.293-0.221,1.811-0.658L285.023,367.239z"/>
				<path fill="#FFFFFF" d="M296.848,357.075c0.777,0.734,1.164,1.795,1.164,3.176v7.717h-3.225v-6.777
					c0-1.787-0.697-2.682-2.094-2.682c-0.752,0-1.393,0.27-1.917,0.801c-0.524,0.533-0.789,1.35-0.789,2.447v6.211h-3.224V351.05
					h3.224v7.152c0.362-0.754,0.866-1.314,1.519-1.682c0.65-0.367,1.408-0.553,2.271-0.553
					C295.047,355.968,296.07,356.337,296.848,357.075z"/>
				<path fill="#FFFFFF" d="M311.752,363.31h-8.33c0.332,1.662,1.311,2.494,2.943,2.494c0.674,0,1.23-0.127,1.67-0.377
					s0.744-0.613,0.918-1.08l2.637,0.961c-0.379,0.943-1.01,1.662-1.895,2.154c-0.889,0.494-1.996,0.74-3.33,0.74
					c-1.945,0-3.451-0.537-4.518-1.611c-1.068-1.074-1.602-2.574-1.602-4.506c0-1.93,0.518-3.432,1.553-4.506
					c1.037-1.074,2.496-1.611,4.377-1.611c1.82,0,3.221,0.525,4.201,1.574c0.98,1.051,1.471,2.553,1.471,4.496
					C311.848,362.479,311.816,362.901,311.752,363.31z M304.283,359.026c-0.465,0.455-0.758,1.129-0.883,2.023h5.482
					c-0.127-0.877-0.422-1.549-0.895-2.01c-0.471-0.465-1.082-0.699-1.836-0.699C305.369,358.341,304.744,358.573,304.283,359.026z"
					/>
			</g>
		</g>
		<g>
			<path fill="#FFFFFF" d="M350.975,334.019c2.369,2.055,3.553,4.951,3.553,8.686c0,3.627-1.184,6.457-3.553,8.488
				c-2.369,2.039-5.678,3.055-9.934,3.055h-7.713v13.318h-7.658v-36.627h15.371C345.297,330.938,348.605,331.966,350.975,334.019z
				 M345.094,346.896c1.109-0.945,1.662-2.363,1.662-4.246c0-1.887-0.553-3.293-1.662-4.219c-1.111-0.926-2.852-1.387-5.217-1.387
				h-6.549v11.266h6.549C342.242,348.31,343.982,347.837,345.094,346.896z"/>
			<path fill="#FFFFFF" d="M386.879,362.733l-0.553,4.609c-1.037,0.516-2.24,0.777-3.607,0.777c-3.553,0-5.682-1.385-6.383-4.162
				c-0.814,1.365-2.072,2.406-3.773,3.107c-1.703,0.703-3.719,1.055-6.051,1.055c-2.699,0-4.807-0.609-6.326-1.832
				c-1.516-1.221-2.271-2.979-2.271-5.273c0-4.51,3.605-7.436,10.82-8.762l6.658-1.279v-1.334c0-1.48-0.418-2.654-1.25-3.523
				c-0.832-0.871-1.988-1.303-3.467-1.303c-1.703,0-3.092,0.369-4.164,1.109c-1.068,0.74-1.811,1.943-2.217,3.605l-6.051-2.553
				c0.592-2.404,1.928-4.289,3.998-5.658c2.068-1.369,4.771-2.057,8.102-2.057c3.957,0,7.047,0.865,9.268,2.584
				s3.326,4.262,3.326,7.629v11.375c0,0.742,0.166,1.279,0.504,1.611c0.332,0.33,0.848,0.496,1.555,0.496
				C385.77,362.956,386.398,362.886,386.879,362.733z M373.367,361.767c1.35-0.795,2.025-1.879,2.025-3.248v-2.887l-5.939,1.336
				c-1.256,0.297-2.189,0.693-2.801,1.189c-0.609,0.5-0.914,1.191-0.914,2.082s0.275,1.564,0.83,2.025
				c0.555,0.463,1.334,0.691,2.332,0.691C370.525,362.956,372.016,362.562,373.367,361.767z"/>
			<path fill="#FFFFFF" d="M408.297,365.843c-0.887,0.705-2.008,1.262-3.359,1.668c-1.35,0.406-2.764,0.609-4.244,0.609
				c-6.18,0-9.268-2.797-9.268-8.381v-14.264h-5.047v-5.658h5.047v-6.379l7.604-2.111v8.49h8.988v5.658h-8.988v13.043
				c0,2.553,1.275,3.83,3.83,3.83c1.627,0,3.051-0.52,4.27-1.555L408.297,365.843z"/>
			<path fill="#FFFFFF" d="M411.072,331.771c0-2.738,1.572-4.105,4.715-4.105c3.146,0,4.719,1.367,4.719,4.105
				c0,2.699-1.572,4.051-4.719,4.051C412.645,335.821,411.072,334.47,411.072,331.771z M419.563,367.565h-7.602v-27.748h7.602
				V367.565z"/>
			<path fill="#FFFFFF" d="M452.191,356.577h-19.645c0.775,3.92,3.088,5.883,6.936,5.883c1.592,0,2.904-0.299,3.939-0.889
				c1.037-0.592,1.758-1.443,2.164-2.553l6.215,2.275c-0.887,2.219-2.375,3.914-4.465,5.078c-2.092,1.166-4.707,1.748-7.854,1.748
				c-4.588,0-8.139-1.27-10.654-3.803c-2.52-2.535-3.775-6.072-3.775-10.625s1.221-8.094,3.664-10.629
				c2.439-2.531,5.883-3.803,10.324-3.803c4.289,0,7.59,1.242,9.902,3.719c2.311,2.477,3.467,6.016,3.467,10.6
				C452.41,354.616,452.336,355.614,452.191,356.577z M434.57,346.478c-1.09,1.072-1.783,2.662-2.08,4.771h12.93
				c-0.295-2.07-0.996-3.654-2.107-4.742c-1.111-1.094-2.553-1.643-4.33-1.643C437.135,344.864,435.662,345.405,434.57,346.478z"/>
			<path fill="#FFFFFF" d="M481.463,341.874c1.832,1.736,2.748,4.232,2.748,7.492v18.199h-7.602v-15.984
				c0-4.219-1.646-6.326-4.939-6.326c-1.775,0-3.285,0.633-4.521,1.889c-1.24,1.26-1.861,3.184-1.861,5.771v14.65h-7.602v-27.748
				h6.826l0.225,4.941c0.922-1.814,2.195-3.186,3.826-4.109c1.627-0.92,3.512-1.389,5.658-1.389
				C477.219,339.261,479.631,340.134,481.463,341.874z"/>
			<path fill="#FFFFFF" d="M512.18,341.483c2.033,1.477,3.422,3.461,4.164,5.936l-7.104,2.555c-0.668-3.367-2.461-5.053-5.385-5.053
				c-2.186,0-3.857,0.75-5.02,2.252c-1.17,1.496-1.75,3.688-1.75,6.572s0.59,5.064,1.775,6.52c1.184,1.467,2.832,2.195,4.941,2.195
				c3.248,0,5.176-1.646,5.77-4.939l6.879,2.219c-0.592,2.555-1.969,4.588-4.133,6.104c-2.162,1.52-4.965,2.277-8.406,2.277
				c-4.59,0-8.141-1.27-10.654-3.803c-2.518-2.535-3.777-6.072-3.777-10.625s1.25-8.094,3.748-10.629
				c2.498-2.531,5.967-3.803,10.406-3.803C507.299,339.261,510.143,340.003,512.18,341.483z"/>
			<path fill="#FFFFFF" d="M547.086,356.577h-19.646c0.775,3.92,3.09,5.883,6.938,5.883c1.586,0,2.904-0.299,3.941-0.889
				c1.033-0.592,1.758-1.443,2.164-2.553l6.213,2.275c-0.891,2.219-2.375,3.914-4.465,5.078c-2.092,1.166-4.709,1.748-7.854,1.748
				c-4.59,0-8.141-1.27-10.656-3.803c-2.514-2.535-3.773-6.072-3.773-10.625s1.223-8.094,3.664-10.629
				c2.441-2.531,5.881-3.803,10.324-3.803c4.287,0,7.59,1.242,9.902,3.719c2.311,2.477,3.467,6.016,3.467,10.6
				C547.305,354.616,547.232,355.614,547.086,356.577z M529.467,346.478c-1.094,1.072-1.787,2.662-2.082,4.771h12.928
				c-0.297-2.07-0.996-3.654-2.105-4.742c-1.111-1.094-2.553-1.643-4.328-1.643C532.027,344.864,530.555,345.405,529.467,346.478z"
				/>
		</g>
	</g>
</g>
</svg>
