<?xml version="1.0" encoding="utf-8"?>
<!-- Generator: Adobe Illustrator 16.0.0, SVG Export Plug-In . SVG Version: 6.00 Build 0)  -->
<!DOCTYPE svg PUBLIC "-//W3C//DTD SVG 1.1//EN" "http://www.w3.org/Graphics/SVG/1.1/DTD/svg11.dtd">
<svg version="1.1" id="Layer_1" xmlns="http://www.w3.org/2000/svg" xmlns:xlink="http://www.w3.org/1999/xlink" x="0px" y="0px"
	 width="595.28px" height="401.094px" viewBox="0 0 595.28 401.094" enable-background="new 0 0 595.28 401.094"
	 xml:space="preserve">
<g>
	<path fill="#241A18" d="M547.724,313.994c0,9.981-8.448,20.108-18.454,20.108H69.097c-10.006,0-18.119-8.094-18.119-18.077V122.921
		c0-9.983,8.113-18.077,18.119-18.077h460.507c10.004,0,18.12,8.094,18.12,18.077V313.994z"/>
	<path fill="#241A18" d="M431.417,328.077c0,8.441-19.147,28.111-29.064,28.111H173.938c-9.916,0-17.955-6.842-17.955-15.783
		V104.844c0,0,12.336-36.384,26.934-36.384c11.172,0,221.506,0,221.506,0c14.125,0,26.995,11.057,26.995,24.315V328.077z"/>
	<path fill="#FBFAFB" stroke="#FBFAFB" stroke-miterlimit="10" d="M422.439,310c0,9.982-7.683,18.077-17.158,18.077H202.258
		c-9.475,0-17.157-8.095-17.157-18.077V96.088c0-9.984,7.683-18.078,17.157-18.078h203.023c9.476,0,17.158,8.094,17.158,18.078V310z
		"/>
	<ellipse fill="#241A18" cx="234.257" cy="281.755" rx="38.158" ry="37.429"/>
	<ellipse fill="#241A18" cx="381.089" cy="119.795" rx="34.768" ry="34.104"/>
	<circle fill="#65BFEC" cx="380.501" cy="119.794" r="26.577"/>
	<circle fill="#FEE200" cx="234.256" cy="281.757" r="29.168"/>
	<ellipse fill="#476BA6" cx="376.092" cy="125.966" rx="18.668" ry="19.135"/>
	<path fill="#ED6C0B" d="M261.965,277.171c0,11.445-9.162,20.725-20.467,20.725c-11.299,0-20.461-9.279-20.461-20.725
		c0-11.446,9.162-20.728,20.461-20.728C252.803,256.443,261.965,265.725,261.965,277.171z"/>
	<path fill="#241A18" d="M253.229,264.817c3.907,4.191,4.411,10.079,1.117,13.148c-3.293,3.07-9.13,2.16-13.039-2.033
		c-3.909-4.195-4.409-10.08-1.119-13.15C243.48,259.714,249.317,260.624,253.229,264.817z"/>
	
		<ellipse transform="matrix(0.7631 -0.6462 0.6462 0.7631 2.5942 270.3767)" fill="#241A18" cx="370.138" cy="131.649" rx="7.426" ry="9.459"/>
	<path fill="#BE1823" d="M431.417,265.479h101.384c0,0,3.147-0.048,5.615-2.073c2.528-2.07,2.528-5.707,2.528-5.707V127.137
		c0,0,0.129-2.604-1.476-4.959c-2.41-3.537-6.668-3.387-6.668-3.387H431.417V265.479z"/>
	<path fill="#BE1622" d="M538.794,314.814c-1.394,1.17-2.997,1.211-2.997,1.211h-104.38v-39.167h104.38c0,0,2.646,0,3.482,1.283
		c0.775,1.191,0.836,2.652,0.836,2.652v30.755C540.115,311.549,540.186,313.641,538.794,314.814z"/>
	<path fill="#DD4739" d="M68.678,123.12"/>
	<path fill="#BE1622" d="M156.428,265.479H65.789c0,0-2.813-0.048-5.02-2.073c-2.261-2.07-2.261-4.707-2.261-4.707V127.137
		c0,0-0.115-2.604,1.318-4.959c2.157-3.537,5.962-3.387,5.962-3.387h90.639V265.479z"/>
	<path fill="#BE1622" d="M60.433,314.814c1.245,1.17,2.679,1.211,2.679,1.211h93.316v-39.167H63.111c0,0-2.366,0-3.114,1.283
		c-0.693,1.191-0.747,2.652-0.747,2.652v30.755C59.25,311.549,59.188,313.641,60.433,314.814z"/>
	<path fill="#FBFAFB" stroke="#FBFAFB" stroke-miterlimit="10" d="M264.564,202.149"/>
	<g>
		<path fill="#241A18" d="M296.49,125.749c-2.781,8.041-9.487,22.135-25.273,38.242c-17.133,17.479-34.408,25.675-43.275,29.031
			c7.758,5.378,17.106,8.521,27.158,8.521c26.791,0,48.588-22.334,48.588-49.786C303.688,142.226,301.045,133.323,296.49,125.749z"
			/>
		<path fill="#241A18" d="M223.297,189.351c6.816-2.303,25.844-9.98,44.35-28.859c18.096-18.465,23.657-34.109,25.214-39.991
			c-1.39-1.758-2.885-3.426-4.491-4.976c-8.848-7.87-20.496-12.658-33.27-12.658c-12.774,0-24.425,4.788-33.272,12.659
			c-9.42,9.087-15.317,21.964-15.317,36.232C206.51,166.755,213.024,180.215,223.297,189.351z"/>
	</g>
	<path fill="none" stroke="#FBFAFB" stroke-miterlimit="10" d="M313.097,122.735"/>
	<g>
		<path fill="#241A18" d="M303.185,174.284c-5.317,12.129-14.971,21.852-26.941,27.066
			c29.753,27.795,111.725,103.991,115.384,103.267c6.104-1.209,9.508-6.026,9.743-10.288
			C401.509,291.747,324.881,200.161,303.185,174.284z"/>
	</g>
</g>
</svg>
